{
	"asset":{
		"generator":"Khronos glTF Blender I/O v4.2.60",
		"version":"2.0"
	},
	"extensionsUsed":[
		"KHR_materials_sheen"
	],
	"scene":0,
	"scenes":[
		{
			"name":"Scene",
			"nodes":[
				0,
				1,
				2,
				3,
				4,
				5,
				6,
				7,
				8,
				9,
				10,
				11,
				12,
				13,
				14,
				15,
				16,
				17,
				18,
				19,
				20,
				21,
				22
			]
		}
	],
	"nodes":[
		{
			"mesh":0,
			"name":"Desk",
			"translation":[
				-0.020636551082134247,
				0.7595847249031067,
				-2.2862839698791504
			]
		},
		{
			"mesh":1,
			"name":"Keyboard",
			"rotation":[
				0.01993156038224697,
				0.43374404311180115,
				-0.010150090791285038,
				0.9007585048675537
			],
			"scale":[
				0.7949062585830688,
				0.7949062585830688,
				0.7949062585830688
			],
			"translation":[
				-2.447108268737793,
				2.770824432373047,
				-2.4660494327545166
			]
		},
		{
			"mesh":2,
			"name":"PC",
			"rotation":[
				0,
				-0.698049008846283,
				0,
				0.7160500884056091
			],
			"translation":[
				-2.988823890686035,
				0.7631592154502869,
				-2.9846267700195312
			]
		},
		{
			"mesh":3,
			"name":"WallShelf",
			"translation":[
				0.4100192189216614,
				4.13316535949707,
				-3.7780680656433105
			]
		},
		{
			"mesh":4,
			"name":"Sphere",
			"translation":[
				0.9533842206001282,
				4.480178356170654,
				-3.609143018722534
			]
		},
		{
			"mesh":5,
			"name":"Chair",
			"rotation":[
				0,
				0.3935573101043701,
				0,
				0.9193000793457031
			],
			"scale":[
				0.9543260335922241,
				0.9543260335922241,
				0.9543260335922241
			],
			"translation":[
				-1.1754080057144165,
				0.6631267070770264,
				-1.1533265113830566
			]
		},
		{
			"mesh":6,
			"name":"Sphere.001",
			"translation":[
				0.36967965960502625,
				4.4759931564331055,
				-3.469832420349121
			]
		},
		{
			"mesh":7,
			"name":"Mouse",
			"rotation":[
				0,
				-0.901835560798645,
				0,
				0.4320794343948364
			],
			"translation":[
				-1.1068371534347534,
				2.7214341163635254,
				-2.7334256172180176
			]
		},
		{
			"mesh":8,
			"name":"BookShelf",
			"translation":[
				-3.3574161529541016,
				1.155207633972168,
				3.107055425643921
			]
		},
		{
			"mesh":9,
			"name":"MidBookonDesk",
			"rotation":[
				0,
				-0.7097225785255432,
				0,
				0.7044812440872192
			],
			"translation":[
				-2.965416431427002,
				2.845972776412964,
				0.6556118726730347
			]
		},
		{
			"mesh":10,
			"name":"TopBookonDesk",
			"rotation":[
				0,
				-0.7099059820175171,
				0,
				0.7042964696884155
			],
			"translation":[
				-3.0575826168060303,
				2.96742844581604,
				0.6345263719558716
			]
		},
		{
			"mesh":11,
			"name":"BottomBookonDesk",
			"rotation":[
				0,
				-0.7122486233711243,
				0,
				0.7019273042678833
			],
			"translation":[
				-2.907421588897705,
				2.7135121822357178,
				0.6577764749526978
			]
		},
		{
			"mesh":12,
			"name":"BlueBookShelf",
			"rotation":[
				0.7042669057846069,
				0.026767410337924957,
				0.02037714421749115,
				0.7091377973556519
			],
			"translation":[
				-3.1562654972076416,
				4.912469387054443,
				3.741175889968872
			]
		},
		{
			"mesh":13,
			"name":"RedBookShelf",
			"rotation":[
				0.7042669057846069,
				0.026767410337924957,
				0.02037714421749115,
				0.7091377973556519
			],
			"translation":[
				-3.1562654972076416,
				4.912469387054443,
				3.6105270385742188
			]
		},
		{
			"mesh":14,
			"name":"GreenBookShelf",
			"rotation":[
				0.7042669057846069,
				0.026767410337924957,
				0.02037714421749115,
				0.7091377973556519
			],
			"translation":[
				-3.1562654972076416,
				4.912469387054443,
				3.4798669815063477
			]
		},
		{
			"mesh":15,
			"name":"BlackBookShelf.001",
			"rotation":[
				0.7042669057846069,
				0.026767410337924957,
				0.02037714421749115,
				0.7091377973556519
			],
			"translation":[
				-3.1562654972076416,
				4.123103141784668,
				2.4431638717651367
			]
		},
		{
			"mesh":16,
			"name":"BlackBookShelf.004",
			"rotation":[
				0.7042669057846069,
				0.026767410337924957,
				0.02037714421749115,
				0.7091377973556519
			],
			"translation":[
				-3.1562654972076416,
				4.123103141784668,
				2.314553737640381
			]
		},
		{
			"mesh":17,
			"name":"BlackBookShelf",
			"rotation":[
				0.7042669057846069,
				0.026767410337924957,
				0.02037714421749115,
				0.7091377973556519
			],
			"translation":[
				-3.1562654972076416,
				4.123103141784668,
				2.1828622817993164
			]
		},
		{
			"mesh":18,
			"name":"SmallTree",
			"translation":[
				-3.1056180000305176,
				4.0401763916015625,
				3.604269027709961
			]
		},
		{
			"mesh":19,
			"name":"BigTree",
			"translation":[
				2.9141924381256104,
				1.8847708702087402,
				-3.3391597270965576
			]
		},
		{
			"mesh":20,
			"name":"Carpet",
			"rotation":[
				0,
				0.4389455318450928,
				0,
				0.898513674736023
			],
			"translation":[
				1.1331610679626465,
				0.8240403532981873,
				1.0768775939941406
			]
		},
		{
			"mesh":21,
			"name":"iMac",
			"rotation":[
				0,
				-0.34154415130615234,
				0,
				0.93986576795578
			],
			"scale":[
				3.9300684928894043,
				3.930067539215088,
				3.9300684928894043
			],
			"translation":[
				-2.9026291370391846,
				2.7796387672424316,
				-2.9340264797210693
			]
		},
		{
			"mesh":22,
			"name":"EntireRoom",
			"scale":[
				1.0507888793945312,
				1.0507888793945312,
				1.0507888793945312
			],
			"translation":[
				0,
				0.7742587327957153,
				0
			]
		}
	],
	"materials":[
		{
			"doubleSided":true,
			"name":"DeskLightPink",
			"pbrMetallicRoughness":{
				"baseColorFactor":[
					0.8000000715255737,
					0.450446754693985,
					0.5387042760848999,
					1
				],
				"metallicFactor":0,
				"roughnessFactor":0.5
			}
		},
		{
			"doubleSided":true,
			"name":"DeskBlack",
			"pbrMetallicRoughness":{
				"baseColorFactor":[
					0,
					0,
					0,
					1
				],
				"metallicFactor":0,
				"roughnessFactor":0.5
			}
		},
		{
			"doubleSided":true,
			"emissiveFactor":[
				0.4451947808265686,
				0.18452394008636475,
				0.05849310755729675
			],
			"name":"DeskDarkPink",
			"pbrMetallicRoughness":{
				"baseColorFactor":[
					0.1746184080839157,
					0.034658294171094894,
					0.13428732752799988,
					1
				],
				"metallicFactor":0,
				"roughnessFactor":0.5
			}
		},
		{
			"doubleSided":true,
			"name":"KeyboardMetal",
			"pbrMetallicRoughness":{
				"baseColorFactor":[
					0,
					0,
					0,
					1
				],
				"roughnessFactor":0.5
			}
		},
		{
			"doubleSided":true,
			"name":"KeyboardGrey",
			"pbrMetallicRoughness":{
				"baseColorFactor":[
					0.9822370409965515,
					0.9822370409965515,
					0.9822370409965515,
					1
				],
				"metallicFactor":0,
				"roughnessFactor":0.5
			}
		},
		{
			"doubleSided":true,
			"name":"White.001",
			"pbrMetallicRoughness":{
				"baseColorFactor":[
					0.800000011920929,
					0.800000011920929,
					0.800000011920929,
					1
				],
				"metallicFactor":0,
				"roughnessFactor":0.5
			}
		},
		{
			"doubleSided":true,
			"name":"UnderneathDesk",
			"pbrMetallicRoughness":{
				"baseColorFactor":[
					0.00326354312710464,
					0.004265806637704372,
					0.015104466117918491,
					1
				],
				"metallicFactor":0
			}
		},
		{
			"name":"WallShelf",
			"pbrMetallicRoughness":{
				"baseColorFactor":[
					0.31396982073783875,
					0.12604543566703796,
					0.19625817239284515,
					1
				],
				"metallicFactor":0
			}
		},
		{
			"doubleSided":true,
			"name":"MetallicBall",
			"pbrMetallicRoughness":{
				"baseColorFactor":[
					0.7734200358390808,
					0.7085410356521606,
					0.8000000715255737,
					1
				],
				"metallicFactor":0.800000011920929,
				"roughnessFactor":0.5
			}
		},
		{
			"name":"Office_Cha",
			"pbrMetallicRoughness":{
				"baseColorFactor":[
					0.8878909945487976,
					0.8878909945487976,
					0.8878909945487976,
					1
				],
				"metallicFactor":0,
				"roughnessFactor":0.9735999703407288
			}
		},
		{
			"name":"Office_Cha_1",
			"pbrMetallicRoughness":{
				"baseColorFactor":[
					0.03999999910593033,
					0.03999999910593033,
					0.03999999910593033,
					1
				],
				"metallicFactor":0,
				"roughnessFactor":0.9228000044822693
			}
		},
		{
			"doubleSided":true,
			"name":"WhiteSphere",
			"pbrMetallicRoughness":{
				"baseColorFactor":[
					0.800000011920929,
					0.800000011920929,
					0.800000011920929,
					1
				],
				"metallicFactor":0,
				"roughnessFactor":0.5
			}
		},
		{
			"doubleSided":true,
			"name":"Mouse",
			"pbrMetallicRoughness":{
				"baseColorFactor":[
					0.10798147320747375,
					0.11516287922859192,
					0.12370377033948898,
					1
				],
				"metallicFactor":0,
				"roughnessFactor":0.5
			}
		},
		{
			"doubleSided":true,
			"extensions":{
				"KHR_materials_sheen":{
					"sheenColorFactor":[
						1.0,
						1.0,
						1.0
					],
					"sheenRoughnessFactor":0.5
				}
			},
			"name":"BookShelf",
			"pbrMetallicRoughness":{
				"baseColorFactor":[
					0.7912676334381104,
					0.2455671727657318,
					0.3074313700199127,
					1
				],
				"metallicFactor":0.20000000298023224,
				"roughnessFactor":0.5
			}
		},
		{
			"doubleSided":true,
			"name":"BookBlue",
			"pbrMetallicRoughness":{
				"baseColorFactor":[
					0.011265191249549389,
					0.01952390931546688,
					0.19118618965148926,
					1
				],
				"metallicFactor":0,
				"roughnessFactor":0.5
			}
		},
		{
			"doubleSided":true,
			"name":"BookonShelfGreen",
			"pbrMetallicRoughness":{
				"baseColorFactor":[
					0.12444546818733215,
					0.19118593633174896,
					0.03686703369021416,
					1
				],
				"metallicFactor":0,
				"roughnessFactor":0.5
			}
		},
		{
			"doubleSided":true,
			"name":"DeskBookBrown",
			"pbrMetallicRoughness":{
				"baseColorFactor":[
					0.13286352157592773,
					0.027872269973158836,
					0.012924578972160816,
					1
				],
				"metallicFactor":0,
				"roughnessFactor":0.5
			}
		},
		{
			"doubleSided":true,
			"name":"Red",
			"pbrMetallicRoughness":{
				"baseColorFactor":[
					0.8713352084159851,
					0.010427752509713173,
					0.004495470318943262,
					1
				],
				"metallicFactor":0,
				"roughnessFactor":0.5
			}
		},
		{
			"doubleSided":true,
			"name":"Black",
			"pbrMetallicRoughness":{
				"baseColorFactor":[
					0,
					0,
					0,
					1
				],
				"metallicFactor":0,
				"roughnessFactor":0.5
			}
		},
		{
			"name":"TreeLeaves",
			"pbrMetallicRoughness":{
				"baseColorFactor":[
					0.06973974406719208,
					0.13562384247779846,
					0.020590540021657944,
					1
				],
				"metallicFactor":0
			}
		},
		{
			"name":"TreePot",
			"pbrMetallicRoughness":{
				"baseColorFactor":[
					1,
					0.899864912033081,
					0.7122612595558167,
					1
				],
				"metallicFactor":0
			}
		},
		{
			"name":"TreeGround",
			"pbrMetallicRoughness":{
				"baseColorFactor":[
					0.08649299293756485,
					0.04272773861885071,
					0.029133066534996033,
					1
				],
				"metallicFactor":0
			}
		},
		{
			"name":"mat9.001",
			"pbrMetallicRoughness":{
				"baseColorFactor":[
					0.06973974406719208,
					0.13562384247779846,
					0.020590540021657944,
					1
				],
				"metallicFactor":0
			}
		},
		{
			"doubleSided":true,
			"name":"Carpet",
			"pbrMetallicRoughness":{
				"baseColorFactor":[
					0.6519725918769836,
					0.9848827123641968,
					0.9848827123641968,
					1
				],
				"metallicFactor":0,
				"roughnessFactor":0.5
			}
		},
		{
			"doubleSided":true,
			"name":"Screen",
			"pbrMetallicRoughness":{
				"baseColorFactor":[
					0.800000011920929,
					0.800000011920929,
					0.800000011920929,
					1
				],
				"metallicFactor":0.12811388075351715,
				"roughnessFactor":0.5
			}
		},
		{
			"doubleSided":true,
			"name":"ScreenBlack",
			"pbrMetallicRoughness":{
				"baseColorFactor":[
					0.016683073714375496,
					0.016683073714375496,
					0.016683073714375496,
					1
				],
				"metallicFactor":0.15658363699913025,
				"roughnessFactor":0.5
			}
		},
		{
			"doubleSided":true,
			"name":"iMacBody",
			"pbrMetallicRoughness":{
				"baseColorFactor":[
					0.2994316816329956,
					0.2838878929615021,
					0.2925560772418976,
					1
				],
				"metallicFactor":0.4056939482688904,
				"roughnessFactor":0.5
			}
		},
		{
			"doubleSided":true,
			"name":"Walls",
			"pbrMetallicRoughness":{
				"baseColorFactor":[
					0.708367109298706,
					0.4853226840496063,
					0.37107428908348083,
					1
				],
				"metallicFactor":0,
				"roughnessFactor":0.5
			}
		},
		{
			"doubleSided":true,
			"name":"Floor",
			"pbrMetallicRoughness":{
				"baseColorFactor":[
					0.800000011920929,
					0.800000011920929,
					0.800000011920929,
					1
				],
				"metallicFactor":0
			}
		}
	],
	"meshes":[
		{
			"name":"Cube.002",
			"primitives":[
				{
					"attributes":{
						"POSITION":0,
						"NORMAL":1,
						"TEXCOORD_0":2,
						"TEXCOORD_1":3,
						"TEXCOORD_2":4,
						"TEXCOORD_3":5,
						"TEXCOORD_4":6,
						"TEXCOORD_5":7
					},
					"indices":8,
					"material":0
				},
				{
					"attributes":{
						"POSITION":9,
						"NORMAL":10,
						"TEXCOORD_0":11,
						"TEXCOORD_1":12,
						"TEXCOORD_2":13,
						"TEXCOORD_3":14,
						"TEXCOORD_4":15,
						"TEXCOORD_5":16
					},
					"indices":17,
					"material":1
				},
				{
					"attributes":{
						"POSITION":18,
						"NORMAL":19,
						"TEXCOORD_0":20,
						"TEXCOORD_1":21,
						"TEXCOORD_2":22,
						"TEXCOORD_3":23,
						"TEXCOORD_4":24,
						"TEXCOORD_5":25
					},
					"indices":26,
					"material":2
				}
			]
		},
		{
			"name":"Plane.015",
			"primitives":[
				{
					"attributes":{
						"POSITION":27,
						"NORMAL":28,
						"TEXCOORD_0":29,
						"TEXCOORD_1":30,
						"TEXCOORD_2":31,
						"TEXCOORD_3":32,
						"TEXCOORD_4":33
					},
					"indices":34,
					"material":3
				},
				{
					"attributes":{
						"POSITION":35,
						"NORMAL":36,
						"TEXCOORD_0":37,
						"TEXCOORD_1":38,
						"TEXCOORD_2":39,
						"TEXCOORD_3":40,
						"TEXCOORD_4":41
					},
					"indices":42,
					"material":4
				},
				{
					"attributes":{
						"POSITION":43,
						"NORMAL":44,
						"TEXCOORD_0":45,
						"TEXCOORD_1":46,
						"TEXCOORD_2":47,
						"TEXCOORD_3":48,
						"TEXCOORD_4":49
					},
					"indices":50,
					"material":5
				}
			]
		},
		{
			"name":"Plane.023",
			"primitives":[
				{
					"attributes":{
						"POSITION":51,
						"NORMAL":52,
						"TEXCOORD_0":53,
						"TEXCOORD_1":54,
						"TEXCOORD_2":55,
						"TEXCOORD_3":56,
						"TEXCOORD_4":57
					},
					"indices":58,
					"material":6
				}
			]
		},
		{
			"name":"SM_Shelf:SM_Shelf1_1",
			"primitives":[
				{
					"attributes":{
						"POSITION":59,
						"NORMAL":60,
						"TEXCOORD_0":61,
						"TEXCOORD_1":62,
						"TEXCOORD_2":63,
						"TEXCOORD_3":64,
						"TEXCOORD_4":65,
						"TEXCOORD_5":66
					},
					"indices":67,
					"material":7
				}
			]
		},
		{
			"name":"Sphere",
			"primitives":[
				{
					"attributes":{
						"POSITION":68,
						"NORMAL":69,
						"TEXCOORD_0":70,
						"TEXCOORD_1":71,
						"TEXCOORD_2":72,
						"TEXCOORD_3":73,
						"TEXCOORD_4":74,
						"TEXCOORD_5":75,
						"TEXCOORD_6":76
					},
					"indices":77,
					"material":8
				}
			]
		},
		{
			"name":"Node-Mesh",
			"primitives":[
				{
					"attributes":{
						"POSITION":78,
						"NORMAL":79,
						"TEXCOORD_0":80,
						"TEXCOORD_1":81,
						"TEXCOORD_2":82,
						"TEXCOORD_3":83,
						"TEXCOORD_4":84,
						"TEXCOORD_5":85
					},
					"indices":86,
					"material":9
				},
				{
					"attributes":{
						"POSITION":87,
						"NORMAL":88,
						"TEXCOORD_0":89,
						"TEXCOORD_1":90,
						"TEXCOORD_2":91,
						"TEXCOORD_3":92,
						"TEXCOORD_4":93,
						"TEXCOORD_5":94
					},
					"indices":95,
					"material":10
				}
			]
		},
		{
			"name":"Sphere.001",
			"primitives":[
				{
					"attributes":{
						"POSITION":96,
						"NORMAL":97,
						"TEXCOORD_0":98,
						"TEXCOORD_1":99,
						"TEXCOORD_2":100,
						"TEXCOORD_3":101,
						"TEXCOORD_4":102,
						"TEXCOORD_5":103,
						"TEXCOORD_6":104
					},
					"indices":105,
					"material":11
				}
			]
		},
		{
			"name":"Cube.012",
			"primitives":[
				{
					"attributes":{
						"POSITION":106,
						"NORMAL":107,
						"TEXCOORD_0":108,
						"TEXCOORD_1":109,
						"TEXCOORD_2":110,
						"TEXCOORD_3":111,
						"TEXCOORD_4":112,
						"TEXCOORD_5":113,
						"TEXCOORD_6":114
					},
					"indices":115,
					"material":12
				}
			]
		},
		{
			"name":"Cube.013",
			"primitives":[
				{
					"attributes":{
						"POSITION":116,
						"NORMAL":117,
						"TEXCOORD_0":118,
						"TEXCOORD_1":119,
						"TEXCOORD_2":120,
						"TEXCOORD_3":121,
						"TEXCOORD_4":122,
						"TEXCOORD_5":123
					},
					"indices":124,
					"material":13
				}
			]
		},
		{
			"name":"Plane.013",
			"primitives":[
				{
					"attributes":{
						"POSITION":125,
						"NORMAL":126,
						"TEXCOORD_0":127,
						"TEXCOORD_1":128,
						"TEXCOORD_2":129,
						"TEXCOORD_3":130,
						"TEXCOORD_4":131
					},
					"indices":132,
					"material":5
				},
				{
					"attributes":{
						"POSITION":133,
						"NORMAL":134,
						"TEXCOORD_0":135,
						"TEXCOORD_1":136,
						"TEXCOORD_2":137,
						"TEXCOORD_3":138,
						"TEXCOORD_4":139
					},
					"indices":140,
					"material":14
				}
			]
		},
		{
			"name":"Plane.017",
			"primitives":[
				{
					"attributes":{
						"POSITION":141,
						"NORMAL":142,
						"TEXCOORD_0":143,
						"TEXCOORD_1":144,
						"TEXCOORD_2":145,
						"TEXCOORD_3":146,
						"TEXCOORD_4":147
					},
					"indices":132,
					"material":5
				},
				{
					"attributes":{
						"POSITION":148,
						"NORMAL":149,
						"TEXCOORD_0":150,
						"TEXCOORD_1":151,
						"TEXCOORD_2":152,
						"TEXCOORD_3":153,
						"TEXCOORD_4":154
					},
					"indices":155,
					"material":15
				}
			]
		},
		{
			"name":"Plane.018",
			"primitives":[
				{
					"attributes":{
						"POSITION":156,
						"NORMAL":157,
						"TEXCOORD_0":158,
						"TEXCOORD_1":159,
						"TEXCOORD_2":160,
						"TEXCOORD_3":161,
						"TEXCOORD_4":162
					},
					"indices":163,
					"material":5
				},
				{
					"attributes":{
						"POSITION":164,
						"NORMAL":165,
						"TEXCOORD_0":166,
						"TEXCOORD_1":167,
						"TEXCOORD_2":168,
						"TEXCOORD_3":169,
						"TEXCOORD_4":170
					},
					"indices":171,
					"material":16
				}
			]
		},
		{
			"name":"Plane.019",
			"primitives":[
				{
					"attributes":{
						"POSITION":172,
						"NORMAL":173,
						"TEXCOORD_0":174,
						"TEXCOORD_1":175,
						"TEXCOORD_2":176,
						"TEXCOORD_3":177,
						"TEXCOORD_4":178
					},
					"indices":179,
					"material":5
				},
				{
					"attributes":{
						"POSITION":180,
						"NORMAL":181,
						"TEXCOORD_0":182,
						"TEXCOORD_1":183,
						"TEXCOORD_2":184,
						"TEXCOORD_3":185,
						"TEXCOORD_4":186
					},
					"indices":187,
					"material":14
				}
			]
		},
		{
			"name":"Plane.021",
			"primitives":[
				{
					"attributes":{
						"POSITION":188,
						"NORMAL":189,
						"TEXCOORD_0":190,
						"TEXCOORD_1":191,
						"TEXCOORD_2":192,
						"TEXCOORD_3":193,
						"TEXCOORD_4":194
					},
					"indices":179,
					"material":5
				},
				{
					"attributes":{
						"POSITION":195,
						"NORMAL":196,
						"TEXCOORD_0":197,
						"TEXCOORD_1":198,
						"TEXCOORD_2":199,
						"TEXCOORD_3":200,
						"TEXCOORD_4":201
					},
					"indices":202,
					"material":17
				}
			]
		},
		{
			"name":"Plane.022",
			"primitives":[
				{
					"attributes":{
						"POSITION":203,
						"NORMAL":204,
						"TEXCOORD_0":205,
						"TEXCOORD_1":206,
						"TEXCOORD_2":207,
						"TEXCOORD_3":208,
						"TEXCOORD_4":209
					},
					"indices":179,
					"material":5
				},
				{
					"attributes":{
						"POSITION":210,
						"NORMAL":211,
						"TEXCOORD_0":212,
						"TEXCOORD_1":213,
						"TEXCOORD_2":214,
						"TEXCOORD_3":215,
						"TEXCOORD_4":216
					},
					"indices":217,
					"material":15
				}
			]
		},
		{
			"name":"Plane.024",
			"primitives":[
				{
					"attributes":{
						"POSITION":218,
						"NORMAL":219,
						"TEXCOORD_0":220,
						"TEXCOORD_1":221,
						"TEXCOORD_2":222,
						"TEXCOORD_3":223,
						"TEXCOORD_4":224
					},
					"indices":179,
					"material":5
				},
				{
					"attributes":{
						"POSITION":225,
						"NORMAL":226,
						"TEXCOORD_0":227,
						"TEXCOORD_1":228,
						"TEXCOORD_2":229,
						"TEXCOORD_3":230,
						"TEXCOORD_4":231
					},
					"indices":187,
					"material":18
				}
			]
		},
		{
			"name":"Plane.027",
			"primitives":[
				{
					"attributes":{
						"POSITION":232,
						"NORMAL":233,
						"TEXCOORD_0":234,
						"TEXCOORD_1":235,
						"TEXCOORD_2":236,
						"TEXCOORD_3":237,
						"TEXCOORD_4":238
					},
					"indices":179,
					"material":5
				},
				{
					"attributes":{
						"POSITION":239,
						"NORMAL":240,
						"TEXCOORD_0":241,
						"TEXCOORD_1":242,
						"TEXCOORD_2":243,
						"TEXCOORD_3":244,
						"TEXCOORD_4":245
					},
					"indices":217,
					"material":18
				}
			]
		},
		{
			"name":"Plane.028",
			"primitives":[
				{
					"attributes":{
						"POSITION":246,
						"NORMAL":247,
						"TEXCOORD_0":248,
						"TEXCOORD_1":249,
						"TEXCOORD_2":250,
						"TEXCOORD_3":251,
						"TEXCOORD_4":252
					},
					"indices":179,
					"material":5
				},
				{
					"attributes":{
						"POSITION":253,
						"NORMAL":254,
						"TEXCOORD_0":255,
						"TEXCOORD_1":256,
						"TEXCOORD_2":257,
						"TEXCOORD_3":258,
						"TEXCOORD_4":259
					},
					"indices":260,
					"material":18
				}
			]
		},
		{
			"name":"mesh31856083.001",
			"primitives":[
				{
					"attributes":{
						"POSITION":261,
						"NORMAL":262,
						"TEXCOORD_0":263,
						"TEXCOORD_1":264,
						"TEXCOORD_2":265,
						"TEXCOORD_3":266,
						"TEXCOORD_4":267
					},
					"indices":268,
					"material":19
				},
				{
					"attributes":{
						"POSITION":269,
						"NORMAL":270,
						"TEXCOORD_0":271,
						"TEXCOORD_1":272,
						"TEXCOORD_2":273,
						"TEXCOORD_3":274,
						"TEXCOORD_4":275
					},
					"indices":276,
					"material":20
				},
				{
					"attributes":{
						"POSITION":277,
						"NORMAL":278,
						"TEXCOORD_0":279,
						"TEXCOORD_1":280,
						"TEXCOORD_2":281,
						"TEXCOORD_3":282,
						"TEXCOORD_4":283
					},
					"indices":284,
					"material":19
				}
			]
		},
		{
			"name":"mesh24448074",
			"primitives":[
				{
					"attributes":{
						"POSITION":285,
						"NORMAL":286,
						"TEXCOORD_0":287,
						"TEXCOORD_1":288,
						"TEXCOORD_2":289,
						"TEXCOORD_3":290,
						"TEXCOORD_4":291,
						"TEXCOORD_5":292
					},
					"indices":293,
					"material":19
				},
				{
					"attributes":{
						"POSITION":294,
						"NORMAL":295,
						"TEXCOORD_0":296,
						"TEXCOORD_1":297,
						"TEXCOORD_2":298,
						"TEXCOORD_3":299,
						"TEXCOORD_4":300,
						"TEXCOORD_5":301
					},
					"indices":302,
					"material":20
				},
				{
					"attributes":{
						"POSITION":303,
						"NORMAL":304,
						"TEXCOORD_0":305,
						"TEXCOORD_1":306,
						"TEXCOORD_2":307,
						"TEXCOORD_3":308,
						"TEXCOORD_4":309,
						"TEXCOORD_5":310
					},
					"indices":311,
					"material":21
				},
				{
					"attributes":{
						"POSITION":312,
						"NORMAL":313,
						"TEXCOORD_0":314,
						"TEXCOORD_1":315,
						"TEXCOORD_2":316,
						"TEXCOORD_3":317,
						"TEXCOORD_4":318,
						"TEXCOORD_5":319
					},
					"indices":320,
					"material":22
				}
			]
		},
		{
			"name":"Cube.001",
			"primitives":[
				{
					"attributes":{
						"POSITION":321,
						"NORMAL":322,
						"TEXCOORD_0":323,
						"TEXCOORD_1":324,
						"TEXCOORD_2":325,
						"TEXCOORD_3":326,
						"TEXCOORD_4":327,
						"TEXCOORD_5":328
					},
					"indices":329,
					"material":23
				}
			]
		},
		{
			"name":"iMac_1",
			"primitives":[
				{
					"attributes":{
						"POSITION":330,
						"NORMAL":331,
						"TEXCOORD_0":332
					},
					"indices":333,
					"material":24
				},
				{
					"attributes":{
						"POSITION":334,
						"NORMAL":335,
						"TEXCOORD_0":336
					},
					"indices":337,
					"material":25
				},
				{
					"attributes":{
						"POSITION":338,
						"NORMAL":339,
						"TEXCOORD_0":340
					},
					"indices":341,
					"material":26
				}
			]
		},
		{
			"name":"Plane",
			"primitives":[
				{
					"attributes":{
						"POSITION":342,
						"NORMAL":343,
						"TEXCOORD_0":344,
						"TEXCOORD_1":345,
						"TEXCOORD_2":346,
						"TEXCOORD_3":347,
						"TEXCOORD_4":348
					},
					"indices":349,
					"material":27
				},
				{
					"attributes":{
						"POSITION":350,
						"NORMAL":351,
						"TEXCOORD_0":352,
						"TEXCOORD_1":353,
						"TEXCOORD_2":354,
						"TEXCOORD_3":355,
						"TEXCOORD_4":356
					},
					"indices":357,
					"material":28
				}
			]
		}
	],
	"accessors":[
		{
			"bufferView":0,
			"componentType":5126,
			"count":400,
			"max":[
				1.5598201751708984,
				1.839463472366333,
				3.9901275634765625
			],
			"min":[
				-3.992417812347412,
				0.013313114643096924,
				-1.4731969833374023
			],
			"type":"VEC3"
		},
		{
			"bufferView":1,
			"componentType":5126,
			"count":400,
			"type":"VEC3"
		},
		{
			"bufferView":2,
			"componentType":5126,
			"count":400,
			"type":"VEC2"
		},
		{
			"bufferView":3,
			"componentType":5126,
			"count":400,
			"type":"VEC2"
		},
		{
			"bufferView":4,
			"componentType":5126,
			"count":400,
			"type":"VEC2"
		},
		{
			"bufferView":5,
			"componentType":5126,
			"count":400,
			"type":"VEC2"
		},
		{
			"bufferView":6,
			"componentType":5126,
			"count":400,
			"type":"VEC2"
		},
		{
			"bufferView":7,
			"componentType":5126,
			"count":400,
			"type":"VEC2"
		},
		{
			"bufferView":8,
			"componentType":5123,
			"count":600,
			"type":"SCALAR"
		},
		{
			"bufferView":9,
			"componentType":5126,
			"count":144,
			"max":[
				0.8930130004882812,
				1.572869896888733,
				3.29606556892395
			],
			"min":[
				-2.7370152473449707,
				0.27373194694519043,
				-0.21779441833496094
			],
			"type":"VEC3"
		},
		{
			"bufferView":10,
			"componentType":5126,
			"count":144,
			"type":"VEC3"
		},
		{
			"bufferView":11,
			"componentType":5126,
			"count":144,
			"type":"VEC2"
		},
		{
			"bufferView":12,
			"componentType":5126,
			"count":144,
			"type":"VEC2"
		},
		{
			"bufferView":13,
			"componentType":5126,
			"count":144,
			"type":"VEC2"
		},
		{
			"bufferView":14,
			"componentType":5126,
			"count":144,
			"type":"VEC2"
		},
		{
			"bufferView":15,
			"componentType":5126,
			"count":144,
			"type":"VEC2"
		},
		{
			"bufferView":16,
			"componentType":5126,
			"count":144,
			"type":"VEC2"
		},
		{
			"bufferView":17,
			"componentType":5123,
			"count":216,
			"type":"SCALAR"
		},
		{
			"bufferView":18,
			"componentType":5126,
			"count":48,
			"max":[
				1.8055298328399658,
				1.9471603631973267,
				4.308253288269043
			],
			"min":[
				-3.9547505378723145,
				1.8573707342147827,
				-1.8495081663131714
			],
			"type":"VEC3"
		},
		{
			"bufferView":19,
			"componentType":5126,
			"count":48,
			"type":"VEC3"
		},
		{
			"bufferView":20,
			"componentType":5126,
			"count":48,
			"type":"VEC2"
		},
		{
			"bufferView":21,
			"componentType":5126,
			"count":48,
			"type":"VEC2"
		},
		{
			"bufferView":22,
			"componentType":5126,
			"count":48,
			"type":"VEC2"
		},
		{
			"bufferView":23,
			"componentType":5126,
			"count":48,
			"type":"VEC2"
		},
		{
			"bufferView":24,
			"componentType":5126,
			"count":48,
			"type":"VEC2"
		},
		{
			"bufferView":25,
			"componentType":5126,
			"count":48,
			"type":"VEC2"
		},
		{
			"bufferView":26,
			"componentType":5123,
			"count":72,
			"type":"SCALAR"
		},
		{
			"bufferView":27,
			"componentType":5126,
			"count":96,
			"max":[
				1.3806670904159546,
				0.03181889280676842,
				0.34614595770835876
			],
			"min":[
				-1.3806670904159546,
				0,
				-0.3724728226661682
			],
			"type":"VEC3"
		},
		{
			"bufferView":28,
			"componentType":5126,
			"count":96,
			"type":"VEC3"
		},
		{
			"bufferView":29,
			"componentType":5126,
			"count":96,
			"type":"VEC2"
		},
		{
			"bufferView":30,
			"componentType":5126,
			"count":96,
			"type":"VEC2"
		},
		{
			"bufferView":31,
			"componentType":5126,
			"count":96,
			"type":"VEC2"
		},
		{
			"bufferView":32,
			"componentType":5126,
			"count":96,
			"type":"VEC2"
		},
		{
			"bufferView":33,
			"componentType":5126,
			"count":96,
			"type":"VEC2"
		},
		{
			"bufferView":34,
			"componentType":5123,
			"count":180,
			"type":"SCALAR"
		},
		{
			"bufferView":35,
			"componentType":5126,
			"count":7628,
			"max":[
				1.3348571062088013,
				0.04098859429359436,
				0.3089781403541565
			],
			"min":[
				-1.3364468812942505,
				0.025346120819449425,
				-0.3290153443813324
			],
			"type":"VEC3"
		},
		{
			"bufferView":36,
			"componentType":5126,
			"count":7628,
			"type":"VEC3"
		},
		{
			"bufferView":37,
			"componentType":5126,
			"count":7628,
			"type":"VEC2"
		},
		{
			"bufferView":38,
			"componentType":5126,
			"count":7628,
			"type":"VEC2"
		},
		{
			"bufferView":39,
			"componentType":5126,
			"count":7628,
			"type":"VEC2"
		},
		{
			"bufferView":40,
			"componentType":5126,
			"count":7628,
			"type":"VEC2"
		},
		{
			"bufferView":41,
			"componentType":5126,
			"count":7628,
			"type":"VEC2"
		},
		{
			"bufferView":42,
			"componentType":5123,
			"count":13980,
			"type":"SCALAR"
		},
		{
			"bufferView":43,
			"componentType":5126,
			"count":96,
			"max":[
				1.378981590270996,
				0.03181886300444603,
				-0.3786742389202118
			],
			"min":[
				-1.378981351852417,
				-0.03321481868624687,
				-0.5064167976379395
			],
			"type":"VEC3"
		},
		{
			"bufferView":44,
			"componentType":5126,
			"count":96,
			"type":"VEC3"
		},
		{
			"bufferView":45,
			"componentType":5126,
			"count":96,
			"type":"VEC2"
		},
		{
			"bufferView":46,
			"componentType":5126,
			"count":96,
			"type":"VEC2"
		},
		{
			"bufferView":47,
			"componentType":5126,
			"count":96,
			"type":"VEC2"
		},
		{
			"bufferView":48,
			"componentType":5126,
			"count":96,
			"type":"VEC2"
		},
		{
			"bufferView":49,
			"componentType":5126,
			"count":96,
			"type":"VEC2"
		},
		{
			"bufferView":50,
			"componentType":5123,
			"count":180,
			"type":"SCALAR"
		},
		{
			"bufferView":51,
			"componentType":5126,
			"count":24,
			"max":[
				0.5272471904754639,
				1.8674908876419067,
				0.5272471904754639
			],
			"min":[
				-0.5272471904754639,
				0,
				-0.5272471904754639
			],
			"type":"VEC3"
		},
		{
			"bufferView":52,
			"componentType":5126,
			"count":24,
			"type":"VEC3"
		},
		{
			"bufferView":53,
			"componentType":5126,
			"count":24,
			"type":"VEC2"
		},
		{
			"bufferView":54,
			"componentType":5126,
			"count":24,
			"type":"VEC2"
		},
		{
			"bufferView":55,
			"componentType":5126,
			"count":24,
			"type":"VEC2"
		},
		{
			"bufferView":56,
			"componentType":5126,
			"count":24,
			"type":"VEC2"
		},
		{
			"bufferView":57,
			"componentType":5126,
			"count":24,
			"type":"VEC2"
		},
		{
			"bufferView":58,
			"componentType":5123,
			"count":36,
			"type":"SCALAR"
		},
		{
			"bufferView":59,
			"componentType":5126,
			"count":288,
			"max":[
				1.034680962562561,
				0.334016352891922,
				0.234725683927536
			],
			"min":[
				-1.034682035446167,
				0,
				-0.23472453653812408
			],
			"type":"VEC3"
		},
		{
			"bufferView":60,
			"componentType":5126,
			"count":288,
			"type":"VEC3"
		},
		{
			"bufferView":61,
			"componentType":5126,
			"count":288,
			"type":"VEC2"
		},
		{
			"bufferView":62,
			"componentType":5126,
			"count":288,
			"type":"VEC2"
		},
		{
			"bufferView":63,
			"componentType":5126,
			"count":288,
			"type":"VEC2"
		},
		{
			"bufferView":64,
			"componentType":5126,
			"count":288,
			"type":"VEC2"
		},
		{
			"bufferView":65,
			"componentType":5126,
			"count":288,
			"type":"VEC2"
		},
		{
			"bufferView":66,
			"componentType":5126,
			"count":288,
			"type":"VEC2"
		},
		{
			"bufferView":67,
			"componentType":5123,
			"count":288,
			"type":"SCALAR"
		},
		{
			"bufferView":68,
			"componentType":5126,
			"count":1984,
			"max":[
				0.16203440725803375,
				0.32406890392303467,
				0.16203436255455017
			],
			"min":[
				-0.1620343029499054,
				0,
				-0.16203424334526062
			],
			"type":"VEC3"
		},
		{
			"bufferView":69,
			"componentType":5126,
			"count":1984,
			"type":"VEC3"
		},
		{
			"bufferView":70,
			"componentType":5126,
			"count":1984,
			"type":"VEC2"
		},
		{
			"bufferView":71,
			"componentType":5126,
			"count":1984,
			"type":"VEC2"
		},
		{
			"bufferView":72,
			"componentType":5126,
			"count":1984,
			"type":"VEC2"
		},
		{
			"bufferView":73,
			"componentType":5126,
			"count":1984,
			"type":"VEC2"
		},
		{
			"bufferView":74,
			"componentType":5126,
			"count":1984,
			"type":"VEC2"
		},
		{
			"bufferView":75,
			"componentType":5126,
			"count":1984,
			"type":"VEC2"
		},
		{
			"bufferView":76,
			"componentType":5126,
			"count":1984,
			"type":"VEC2"
		},
		{
			"bufferView":77,
			"componentType":5123,
			"count":2880,
			"type":"SCALAR"
		},
		{
			"bufferView":78,
			"componentType":5126,
			"count":255,
			"max":[
				0.812479555606842,
				2.915076732635498,
				0.8534947037696838
			],
			"min":[
				-0.7824053168296814,
				1.3910375833511353,
				-0.9212114810943604
			],
			"type":"VEC3"
		},
		{
			"bufferView":79,
			"componentType":5126,
			"count":255,
			"type":"VEC3"
		},
		{
			"bufferView":80,
			"componentType":5126,
			"count":255,
			"type":"VEC2"
		},
		{
			"bufferView":81,
			"componentType":5126,
			"count":255,
			"type":"VEC2"
		},
		{
			"bufferView":82,
			"componentType":5126,
			"count":255,
			"type":"VEC2"
		},
		{
			"bufferView":83,
			"componentType":5126,
			"count":255,
			"type":"VEC2"
		},
		{
			"bufferView":84,
			"componentType":5126,
			"count":255,
			"type":"VEC2"
		},
		{
			"bufferView":85,
			"componentType":5126,
			"count":255,
			"type":"VEC2"
		},
		{
			"bufferView":86,
			"componentType":5123,
			"count":255,
			"type":"SCALAR"
		},
		{
			"bufferView":87,
			"componentType":5126,
			"count":354,
			"max":[
				1.0861883163452148,
				1.51922607421875,
				1.046004056930542
			],
			"min":[
				-1.046342372894287,
				0.12057878077030182,
				-1.08652663230896
			],
			"type":"VEC3"
		},
		{
			"bufferView":88,
			"componentType":5126,
			"count":354,
			"type":"VEC3"
		},
		{
			"bufferView":89,
			"componentType":5126,
			"count":354,
			"type":"VEC2"
		},
		{
			"bufferView":90,
			"componentType":5126,
			"count":354,
			"type":"VEC2"
		},
		{
			"bufferView":91,
			"componentType":5126,
			"count":354,
			"type":"VEC2"
		},
		{
			"bufferView":92,
			"componentType":5126,
			"count":354,
			"type":"VEC2"
		},
		{
			"bufferView":93,
			"componentType":5126,
			"count":354,
			"type":"VEC2"
		},
		{
			"bufferView":94,
			"componentType":5126,
			"count":354,
			"type":"VEC2"
		},
		{
			"bufferView":95,
			"componentType":5123,
			"count":354,
			"type":"SCALAR"
		},
		{
			"bufferView":96,
			"componentType":5126,
			"count":1984,
			"max":[
				0.2838954031467438,
				0.5677909851074219,
				0.2838953137397766
			],
			"min":[
				-0.28389522433280945,
				0,
				-0.2838951349258423
			],
			"type":"VEC3"
		},
		{
			"bufferView":97,
			"componentType":5126,
			"count":1984,
			"type":"VEC3"
		},
		{
			"bufferView":98,
			"componentType":5126,
			"count":1984,
			"type":"VEC2"
		},
		{
			"bufferView":99,
			"componentType":5126,
			"count":1984,
			"type":"VEC2"
		},
		{
			"bufferView":100,
			"componentType":5126,
			"count":1984,
			"type":"VEC2"
		},
		{
			"bufferView":101,
			"componentType":5126,
			"count":1984,
			"type":"VEC2"
		},
		{
			"bufferView":102,
			"componentType":5126,
			"count":1984,
			"type":"VEC2"
		},
		{
			"bufferView":103,
			"componentType":5126,
			"count":1984,
			"type":"VEC2"
		},
		{
			"bufferView":104,
			"componentType":5126,
			"count":1984,
			"type":"VEC2"
		},
		{
			"bufferView":105,
			"componentType":5123,
			"count":2880,
			"type":"SCALAR"
		},
		{
			"bufferView":106,
			"componentType":5126,
			"count":120,
			"max":[
				0.13840556144714355,
				0.09446217864751816,
				0.23502616584300995
			],
			"min":[
				-0.13840556144714355,
				0.007144533097743988,
				-0.23502475023269653
			],
			"type":"VEC3"
		},
		{
			"bufferView":107,
			"componentType":5126,
			"count":120,
			"type":"VEC3"
		},
		{
			"bufferView":108,
			"componentType":5126,
			"count":120,
			"type":"VEC2"
		},
		{
			"bufferView":109,
			"componentType":5126,
			"count":120,
			"type":"VEC2"
		},
		{
			"bufferView":110,
			"componentType":5126,
			"count":120,
			"type":"VEC2"
		},
		{
			"bufferView":111,
			"componentType":5126,
			"count":120,
			"type":"VEC2"
		},
		{
			"bufferView":112,
			"componentType":5126,
			"count":120,
			"type":"VEC2"
		},
		{
			"bufferView":113,
			"componentType":5126,
			"count":120,
			"type":"VEC2"
		},
		{
			"bufferView":114,
			"componentType":5126,
			"count":120,
			"type":"VEC2"
		},
		{
			"bufferView":115,
			"componentType":5123,
			"count":180,
			"type":"SCALAR"
		},
		{
			"bufferView":116,
			"componentType":5126,
			"count":336,
			"max":[
				0.5355567336082458,
				4.15235710144043,
				0.9180972576141357
			],
			"min":[
				-0.5355567336082458,
				-0.3825404942035675,
				-0.9180972576141357
			],
			"type":"VEC3"
		},
		{
			"bufferView":117,
			"componentType":5126,
			"count":336,
			"type":"VEC3"
		},
		{
			"bufferView":118,
			"componentType":5126,
			"count":336,
			"type":"VEC2"
		},
		{
			"bufferView":119,
			"componentType":5126,
			"count":336,
			"type":"VEC2"
		},
		{
			"bufferView":120,
			"componentType":5126,
			"count":336,
			"type":"VEC2"
		},
		{
			"bufferView":121,
			"componentType":5126,
			"count":336,
			"type":"VEC2"
		},
		{
			"bufferView":122,
			"componentType":5126,
			"count":336,
			"type":"VEC2"
		},
		{
			"bufferView":123,
			"componentType":5126,
			"count":336,
			"type":"VEC2"
		},
		{
			"bufferView":124,
			"componentType":5123,
			"count":504,
			"type":"SCALAR"
		},
		{
			"bufferView":125,
			"componentType":5126,
			"count":44,
			"max":[
				0.22652260959148407,
				0.11888843029737473,
				0.34121403098106384
			],
			"min":[
				-0.24385853111743927,
				0.012540005147457123,
				-0.34121403098106384
			],
			"type":"VEC3"
		},
		{
			"bufferView":126,
			"componentType":5126,
			"count":44,
			"type":"VEC3"
		},
		{
			"bufferView":127,
			"componentType":5126,
			"count":44,
			"type":"VEC2"
		},
		{
			"bufferView":128,
			"componentType":5126,
			"count":44,
			"type":"VEC2"
		},
		{
			"bufferView":129,
			"componentType":5126,
			"count":44,
			"type":"VEC2"
		},
		{
			"bufferView":130,
			"componentType":5126,
			"count":44,
			"type":"VEC2"
		},
		{
			"bufferView":131,
			"componentType":5126,
			"count":44,
			"type":"VEC2"
		},
		{
			"bufferView":132,
			"componentType":5123,
			"count":66,
			"type":"SCALAR"
		},
		{
			"bufferView":133,
			"componentType":5126,
			"count":76,
			"max":[
				0.24136346578598022,
				0.1314941942691803,
				0.34121403098106384
			],
			"min":[
				-0.24385853111743927,
				-6.577018939424306e-05,
				-0.34121403098106384
			],
			"type":"VEC3"
		},
		{
			"bufferView":134,
			"componentType":5126,
			"count":76,
			"type":"VEC3"
		},
		{
			"bufferView":135,
			"componentType":5126,
			"count":76,
			"type":"VEC2"
		},
		{
			"bufferView":136,
			"componentType":5126,
			"count":76,
			"type":"VEC2"
		},
		{
			"bufferView":137,
			"componentType":5126,
			"count":76,
			"type":"VEC2"
		},
		{
			"bufferView":138,
			"componentType":5126,
			"count":76,
			"type":"VEC2"
		},
		{
			"bufferView":139,
			"componentType":5126,
			"count":76,
			"type":"VEC2"
		},
		{
			"bufferView":140,
			"componentType":5123,
			"count":114,
			"type":"SCALAR"
		},
		{
			"bufferView":141,
			"componentType":5126,
			"count":44,
			"max":[
				0.22652260959148407,
				0.11888843029737473,
				0.34121403098106384
			],
			"min":[
				-0.24385853111743927,
				0.012540005147457123,
				-0.34121403098106384
			],
			"type":"VEC3"
		},
		{
			"bufferView":142,
			"componentType":5126,
			"count":44,
			"type":"VEC3"
		},
		{
			"bufferView":143,
			"componentType":5126,
			"count":44,
			"type":"VEC2"
		},
		{
			"bufferView":144,
			"componentType":5126,
			"count":44,
			"type":"VEC2"
		},
		{
			"bufferView":145,
			"componentType":5126,
			"count":44,
			"type":"VEC2"
		},
		{
			"bufferView":146,
			"componentType":5126,
			"count":44,
			"type":"VEC2"
		},
		{
			"bufferView":147,
			"componentType":5126,
			"count":44,
			"type":"VEC2"
		},
		{
			"bufferView":148,
			"componentType":5126,
			"count":76,
			"max":[
				0.24136346578598022,
				0.1314941942691803,
				0.34121403098106384
			],
			"min":[
				-0.24385853111743927,
				-6.577018939424306e-05,
				-0.34121403098106384
			],
			"type":"VEC3"
		},
		{
			"bufferView":149,
			"componentType":5126,
			"count":76,
			"type":"VEC3"
		},
		{
			"bufferView":150,
			"componentType":5126,
			"count":76,
			"type":"VEC2"
		},
		{
			"bufferView":151,
			"componentType":5126,
			"count":76,
			"type":"VEC2"
		},
		{
			"bufferView":152,
			"componentType":5126,
			"count":76,
			"type":"VEC2"
		},
		{
			"bufferView":153,
			"componentType":5126,
			"count":76,
			"type":"VEC2"
		},
		{
			"bufferView":154,
			"componentType":5126,
			"count":76,
			"type":"VEC2"
		},
		{
			"bufferView":155,
			"componentType":5123,
			"count":114,
			"type":"SCALAR"
		},
		{
			"bufferView":156,
			"componentType":5126,
			"count":44,
			"max":[
				0.22652260959148407,
				0.11888843029737473,
				0.34121403098106384
			],
			"min":[
				-0.24385853111743927,
				0.012540005147457123,
				-0.34121403098106384
			],
			"type":"VEC3"
		},
		{
			"bufferView":157,
			"componentType":5126,
			"count":44,
			"type":"VEC3"
		},
		{
			"bufferView":158,
			"componentType":5126,
			"count":44,
			"type":"VEC2"
		},
		{
			"bufferView":159,
			"componentType":5126,
			"count":44,
			"type":"VEC2"
		},
		{
			"bufferView":160,
			"componentType":5126,
			"count":44,
			"type":"VEC2"
		},
		{
			"bufferView":161,
			"componentType":5126,
			"count":44,
			"type":"VEC2"
		},
		{
			"bufferView":162,
			"componentType":5126,
			"count":44,
			"type":"VEC2"
		},
		{
			"bufferView":163,
			"componentType":5123,
			"count":66,
			"type":"SCALAR"
		},
		{
			"bufferView":164,
			"componentType":5126,
			"count":76,
			"max":[
				0.24136346578598022,
				0.1314941942691803,
				0.34121403098106384
			],
			"min":[
				-0.24385853111743927,
				-6.577018939424306e-05,
				-0.34121403098106384
			],
			"type":"VEC3"
		},
		{
			"bufferView":165,
			"componentType":5126,
			"count":76,
			"type":"VEC3"
		},
		{
			"bufferView":166,
			"componentType":5126,
			"count":76,
			"type":"VEC2"
		},
		{
			"bufferView":167,
			"componentType":5126,
			"count":76,
			"type":"VEC2"
		},
		{
			"bufferView":168,
			"componentType":5126,
			"count":76,
			"type":"VEC2"
		},
		{
			"bufferView":169,
			"componentType":5126,
			"count":76,
			"type":"VEC2"
		},
		{
			"bufferView":170,
			"componentType":5126,
			"count":76,
			"type":"VEC2"
		},
		{
			"bufferView":171,
			"componentType":5123,
			"count":114,
			"type":"SCALAR"
		},
		{
			"bufferView":172,
			"componentType":5126,
			"count":44,
			"max":[
				0.19652613997459412,
				0.10314501821994781,
				0.2960299551486969
			],
			"min":[
				-0.21156640350818634,
				0.010879436507821083,
				-0.2960299551486969
			],
			"type":"VEC3"
		},
		{
			"bufferView":173,
			"componentType":5126,
			"count":44,
			"type":"VEC3"
		},
		{
			"bufferView":174,
			"componentType":5126,
			"count":44,
			"type":"VEC2"
		},
		{
			"bufferView":175,
			"componentType":5126,
			"count":44,
			"type":"VEC2"
		},
		{
			"bufferView":176,
			"componentType":5126,
			"count":44,
			"type":"VEC2"
		},
		{
			"bufferView":177,
			"componentType":5126,
			"count":44,
			"type":"VEC2"
		},
		{
			"bufferView":178,
			"componentType":5126,
			"count":44,
			"type":"VEC2"
		},
		{
			"bufferView":179,
			"componentType":5123,
			"count":66,
			"type":"SCALAR"
		},
		{
			"bufferView":180,
			"componentType":5126,
			"count":76,
			"max":[
				0.20940174162387848,
				0.11408151686191559,
				0.2960299551486969
			],
			"min":[
				-0.21156640350818634,
				-5.7060788094531745e-05,
				-0.2960299551486969
			],
			"type":"VEC3"
		},
		{
			"bufferView":181,
			"componentType":5126,
			"count":76,
			"type":"VEC3"
		},
		{
			"bufferView":182,
			"componentType":5126,
			"count":76,
			"type":"VEC2"
		},
		{
			"bufferView":183,
			"componentType":5126,
			"count":76,
			"type":"VEC2"
		},
		{
			"bufferView":184,
			"componentType":5126,
			"count":76,
			"type":"VEC2"
		},
		{
			"bufferView":185,
			"componentType":5126,
			"count":76,
			"type":"VEC2"
		},
		{
			"bufferView":186,
			"componentType":5126,
			"count":76,
			"type":"VEC2"
		},
		{
			"bufferView":187,
			"componentType":5123,
			"count":114,
			"type":"SCALAR"
		},
		{
			"bufferView":188,
			"componentType":5126,
			"count":44,
			"max":[
				0.19652613997459412,
				0.10314501821994781,
				0.2960299551486969
			],
			"min":[
				-0.21156640350818634,
				0.010879436507821083,
				-0.2960299551486969
			],
			"type":"VEC3"
		},
		{
			"bufferView":189,
			"componentType":5126,
			"count":44,
			"type":"VEC3"
		},
		{
			"bufferView":190,
			"componentType":5126,
			"count":44,
			"type":"VEC2"
		},
		{
			"bufferView":191,
			"componentType":5126,
			"count":44,
			"type":"VEC2"
		},
		{
			"bufferView":192,
			"componentType":5126,
			"count":44,
			"type":"VEC2"
		},
		{
			"bufferView":193,
			"componentType":5126,
			"count":44,
			"type":"VEC2"
		},
		{
			"bufferView":194,
			"componentType":5126,
			"count":44,
			"type":"VEC2"
		},
		{
			"bufferView":195,
			"componentType":5126,
			"count":76,
			"max":[
				0.20940174162387848,
				0.11408151686191559,
				0.2960299551486969
			],
			"min":[
				-0.21156640350818634,
				-5.7060788094531745e-05,
				-0.2960299551486969
			],
			"type":"VEC3"
		},
		{
			"bufferView":196,
			"componentType":5126,
			"count":76,
			"type":"VEC3"
		},
		{
			"bufferView":197,
			"componentType":5126,
			"count":76,
			"type":"VEC2"
		},
		{
			"bufferView":198,
			"componentType":5126,
			"count":76,
			"type":"VEC2"
		},
		{
			"bufferView":199,
			"componentType":5126,
			"count":76,
			"type":"VEC2"
		},
		{
			"bufferView":200,
			"componentType":5126,
			"count":76,
			"type":"VEC2"
		},
		{
			"bufferView":201,
			"componentType":5126,
			"count":76,
			"type":"VEC2"
		},
		{
			"bufferView":202,
			"componentType":5123,
			"count":114,
			"type":"SCALAR"
		},
		{
			"bufferView":203,
			"componentType":5126,
			"count":44,
			"max":[
				0.19652613997459412,
				0.10314501821994781,
				0.2960299551486969
			],
			"min":[
				-0.21156640350818634,
				0.010879436507821083,
				-0.2960299551486969
			],
			"type":"VEC3"
		},
		{
			"bufferView":204,
			"componentType":5126,
			"count":44,
			"type":"VEC3"
		},
		{
			"bufferView":205,
			"componentType":5126,
			"count":44,
			"type":"VEC2"
		},
		{
			"bufferView":206,
			"componentType":5126,
			"count":44,
			"type":"VEC2"
		},
		{
			"bufferView":207,
			"componentType":5126,
			"count":44,
			"type":"VEC2"
		},
		{
			"bufferView":208,
			"componentType":5126,
			"count":44,
			"type":"VEC2"
		},
		{
			"bufferView":209,
			"componentType":5126,
			"count":44,
			"type":"VEC2"
		},
		{
			"bufferView":210,
			"componentType":5126,
			"count":76,
			"max":[
				0.20940174162387848,
				0.11408151686191559,
				0.2960299551486969
			],
			"min":[
				-0.21156640350818634,
				-5.7060788094531745e-05,
				-0.2960299551486969
			],
			"type":"VEC3"
		},
		{
			"bufferView":211,
			"componentType":5126,
			"count":76,
			"type":"VEC3"
		},
		{
			"bufferView":212,
			"componentType":5126,
			"count":76,
			"type":"VEC2"
		},
		{
			"bufferView":213,
			"componentType":5126,
			"count":76,
			"type":"VEC2"
		},
		{
			"bufferView":214,
			"componentType":5126,
			"count":76,
			"type":"VEC2"
		},
		{
			"bufferView":215,
			"componentType":5126,
			"count":76,
			"type":"VEC2"
		},
		{
			"bufferView":216,
			"componentType":5126,
			"count":76,
			"type":"VEC2"
		},
		{
			"bufferView":217,
			"componentType":5123,
			"count":114,
			"type":"SCALAR"
		},
		{
			"bufferView":218,
			"componentType":5126,
			"count":44,
			"max":[
				0.19652613997459412,
				0.10314501821994781,
				0.2960299551486969
			],
			"min":[
				-0.21156640350818634,
				0.010879436507821083,
				-0.2960299551486969
			],
			"type":"VEC3"
		},
		{
			"bufferView":219,
			"componentType":5126,
			"count":44,
			"type":"VEC3"
		},
		{
			"bufferView":220,
			"componentType":5126,
			"count":44,
			"type":"VEC2"
		},
		{
			"bufferView":221,
			"componentType":5126,
			"count":44,
			"type":"VEC2"
		},
		{
			"bufferView":222,
			"componentType":5126,
			"count":44,
			"type":"VEC2"
		},
		{
			"bufferView":223,
			"componentType":5126,
			"count":44,
			"type":"VEC2"
		},
		{
			"bufferView":224,
			"componentType":5126,
			"count":44,
			"type":"VEC2"
		},
		{
			"bufferView":225,
			"componentType":5126,
			"count":76,
			"max":[
				0.20940174162387848,
				0.11408151686191559,
				0.2960299551486969
			],
			"min":[
				-0.21156640350818634,
				-5.7060788094531745e-05,
				-0.2960299551486969
			],
			"type":"VEC3"
		},
		{
			"bufferView":226,
			"componentType":5126,
			"count":76,
			"type":"VEC3"
		},
		{
			"bufferView":227,
			"componentType":5126,
			"count":76,
			"type":"VEC2"
		},
		{
			"bufferView":228,
			"componentType":5126,
			"count":76,
			"type":"VEC2"
		},
		{
			"bufferView":229,
			"componentType":5126,
			"count":76,
			"type":"VEC2"
		},
		{
			"bufferView":230,
			"componentType":5126,
			"count":76,
			"type":"VEC2"
		},
		{
			"bufferView":231,
			"componentType":5126,
			"count":76,
			"type":"VEC2"
		},
		{
			"bufferView":232,
			"componentType":5126,
			"count":44,
			"max":[
				0.19652613997459412,
				0.10314501821994781,
				0.2960299551486969
			],
			"min":[
				-0.21156640350818634,
				0.010879436507821083,
				-0.2960299551486969
			],
			"type":"VEC3"
		},
		{
			"bufferView":233,
			"componentType":5126,
			"count":44,
			"type":"VEC3"
		},
		{
			"bufferView":234,
			"componentType":5126,
			"count":44,
			"type":"VEC2"
		},
		{
			"bufferView":235,
			"componentType":5126,
			"count":44,
			"type":"VEC2"
		},
		{
			"bufferView":236,
			"componentType":5126,
			"count":44,
			"type":"VEC2"
		},
		{
			"bufferView":237,
			"componentType":5126,
			"count":44,
			"type":"VEC2"
		},
		{
			"bufferView":238,
			"componentType":5126,
			"count":44,
			"type":"VEC2"
		},
		{
			"bufferView":239,
			"componentType":5126,
			"count":76,
			"max":[
				0.20940174162387848,
				0.11408151686191559,
				0.2960299551486969
			],
			"min":[
				-0.21156640350818634,
				-5.7060788094531745e-05,
				-0.2960299551486969
			],
			"type":"VEC3"
		},
		{
			"bufferView":240,
			"componentType":5126,
			"count":76,
			"type":"VEC3"
		},
		{
			"bufferView":241,
			"componentType":5126,
			"count":76,
			"type":"VEC2"
		},
		{
			"bufferView":242,
			"componentType":5126,
			"count":76,
			"type":"VEC2"
		},
		{
			"bufferView":243,
			"componentType":5126,
			"count":76,
			"type":"VEC2"
		},
		{
			"bufferView":244,
			"componentType":5126,
			"count":76,
			"type":"VEC2"
		},
		{
			"bufferView":245,
			"componentType":5126,
			"count":76,
			"type":"VEC2"
		},
		{
			"bufferView":246,
			"componentType":5126,
			"count":44,
			"max":[
				0.19652613997459412,
				0.10314501821994781,
				0.2960299551486969
			],
			"min":[
				-0.21156640350818634,
				0.010879436507821083,
				-0.2960299551486969
			],
			"type":"VEC3"
		},
		{
			"bufferView":247,
			"componentType":5126,
			"count":44,
			"type":"VEC3"
		},
		{
			"bufferView":248,
			"componentType":5126,
			"count":44,
			"type":"VEC2"
		},
		{
			"bufferView":249,
			"componentType":5126,
			"count":44,
			"type":"VEC2"
		},
		{
			"bufferView":250,
			"componentType":5126,
			"count":44,
			"type":"VEC2"
		},
		{
			"bufferView":251,
			"componentType":5126,
			"count":44,
			"type":"VEC2"
		},
		{
			"bufferView":252,
			"componentType":5126,
			"count":44,
			"type":"VEC2"
		},
		{
			"bufferView":253,
			"componentType":5126,
			"count":76,
			"max":[
				0.20940174162387848,
				0.11408151686191559,
				0.2960299551486969
			],
			"min":[
				-0.21156640350818634,
				-5.7060788094531745e-05,
				-0.2960299551486969
			],
			"type":"VEC3"
		},
		{
			"bufferView":254,
			"componentType":5126,
			"count":76,
			"type":"VEC3"
		},
		{
			"bufferView":255,
			"componentType":5126,
			"count":76,
			"type":"VEC2"
		},
		{
			"bufferView":256,
			"componentType":5126,
			"count":76,
			"type":"VEC2"
		},
		{
			"bufferView":257,
			"componentType":5126,
			"count":76,
			"type":"VEC2"
		},
		{
			"bufferView":258,
			"componentType":5126,
			"count":76,
			"type":"VEC2"
		},
		{
			"bufferView":259,
			"componentType":5126,
			"count":76,
			"type":"VEC2"
		},
		{
			"bufferView":260,
			"componentType":5123,
			"count":114,
			"type":"SCALAR"
		},
		{
			"bufferView":261,
			"componentType":5126,
			"count":4032,
			"max":[
				0.1505681723356247,
				0.38516706228256226,
				0.08742605894804001
			],
			"min":[
				-0.1337244063615799,
				-0.07848834246397018,
				-0.11000939458608627
			],
			"type":"VEC3"
		},
		{
			"bufferView":262,
			"componentType":5126,
			"count":4032,
			"type":"VEC3"
		},
		{
			"bufferView":263,
			"componentType":5126,
			"count":4032,
			"type":"VEC2"
		},
		{
			"bufferView":264,
			"componentType":5126,
			"count":4032,
			"type":"VEC2"
		},
		{
			"bufferView":265,
			"componentType":5126,
			"count":4032,
			"type":"VEC2"
		},
		{
			"bufferView":266,
			"componentType":5126,
			"count":4032,
			"type":"VEC2"
		},
		{
			"bufferView":267,
			"componentType":5126,
			"count":4032,
			"type":"VEC2"
		},
		{
			"bufferView":268,
			"componentType":5123,
			"count":4032,
			"type":"SCALAR"
		},
		{
			"bufferView":269,
			"componentType":5126,
			"count":78,
			"max":[
				0.08905120193958282,
				0.04220928996801376,
				0.08843407779932022
			],
			"min":[
				-0.09563900530338287,
				-0.18584299087524414,
				-0.09625615924596786
			],
			"type":"VEC3"
		},
		{
			"bufferView":270,
			"componentType":5126,
			"count":78,
			"type":"VEC3"
		},
		{
			"bufferView":271,
			"componentType":5126,
			"count":78,
			"type":"VEC2"
		},
		{
			"bufferView":272,
			"componentType":5126,
			"count":78,
			"type":"VEC2"
		},
		{
			"bufferView":273,
			"componentType":5126,
			"count":78,
			"type":"VEC2"
		},
		{
			"bufferView":274,
			"componentType":5126,
			"count":78,
			"type":"VEC2"
		},
		{
			"bufferView":275,
			"componentType":5126,
			"count":78,
			"type":"VEC2"
		},
		{
			"bufferView":276,
			"componentType":5123,
			"count":78,
			"type":"SCALAR"
		},
		{
			"bufferView":277,
			"componentType":5126,
			"count":66,
			"max":[
				0.07898558676242828,
				0.023697663098573685,
				0.07836847007274628
			],
			"min":[
				-0.08557339012622833,
				0.009056711569428444,
				-0.08619049191474915
			],
			"type":"VEC3"
		},
		{
			"bufferView":278,
			"componentType":5126,
			"count":66,
			"type":"VEC3"
		},
		{
			"bufferView":279,
			"componentType":5126,
			"count":66,
			"type":"VEC2"
		},
		{
			"bufferView":280,
			"componentType":5126,
			"count":66,
			"type":"VEC2"
		},
		{
			"bufferView":281,
			"componentType":5126,
			"count":66,
			"type":"VEC2"
		},
		{
			"bufferView":282,
			"componentType":5126,
			"count":66,
			"type":"VEC2"
		},
		{
			"bufferView":283,
			"componentType":5126,
			"count":66,
			"type":"VEC2"
		},
		{
			"bufferView":284,
			"componentType":5123,
			"count":66,
			"type":"SCALAR"
		},
		{
			"bufferView":285,
			"componentType":5126,
			"count":4584,
			"max":[
				0.9375342726707458,
				2.3982980251312256,
				0.8178123235702515
			],
			"min":[
				-0.8326522707939148,
				-0.4887188971042633,
				-0.6849892735481262
			],
			"type":"VEC3"
		},
		{
			"bufferView":286,
			"componentType":5126,
			"count":4584,
			"type":"VEC3"
		},
		{
			"bufferView":287,
			"componentType":5126,
			"count":4584,
			"type":"VEC2"
		},
		{
			"bufferView":288,
			"componentType":5126,
			"count":4584,
			"type":"VEC2"
		},
		{
			"bufferView":289,
			"componentType":5126,
			"count":4584,
			"type":"VEC2"
		},
		{
			"bufferView":290,
			"componentType":5126,
			"count":4584,
			"type":"VEC2"
		},
		{
			"bufferView":291,
			"componentType":5126,
			"count":4584,
			"type":"VEC2"
		},
		{
			"bufferView":292,
			"componentType":5126,
			"count":4584,
			"type":"VEC2"
		},
		{
			"bufferView":293,
			"componentType":5123,
			"count":4584,
			"type":"SCALAR"
		},
		{
			"bufferView":294,
			"componentType":5126,
			"count":78,
			"max":[
				0.5544919967651367,
				0.2628222107887268,
				0.550647497177124
			],
			"min":[
				-0.5955080986022949,
				-1.1571780443191528,
				-0.5993527770042419
			],
			"type":"VEC3"
		},
		{
			"bufferView":295,
			"componentType":5126,
			"count":78,
			"type":"VEC3"
		},
		{
			"bufferView":296,
			"componentType":5126,
			"count":78,
			"type":"VEC2"
		},
		{
			"bufferView":297,
			"componentType":5126,
			"count":78,
			"type":"VEC2"
		},
		{
			"bufferView":298,
			"componentType":5126,
			"count":78,
			"type":"VEC2"
		},
		{
			"bufferView":299,
			"componentType":5126,
			"count":78,
			"type":"VEC2"
		},
		{
			"bufferView":300,
			"componentType":5126,
			"count":78,
			"type":"VEC2"
		},
		{
			"bufferView":301,
			"componentType":5126,
			"count":78,
			"type":"VEC2"
		},
		{
			"bufferView":302,
			"componentType":5123,
			"count":78,
			"type":"SCALAR"
		},
		{
			"bufferView":303,
			"componentType":5126,
			"count":606,
			"max":[
				0.49181699752807617,
				0.1835256963968277,
				0.4879724979400635
			],
			"min":[
				-0.5328330993652344,
				0.010145659558475018,
				-0.5366774797439575
			],
			"type":"VEC3"
		},
		{
			"bufferView":304,
			"componentType":5126,
			"count":606,
			"type":"VEC3"
		},
		{
			"bufferView":305,
			"componentType":5126,
			"count":606,
			"type":"VEC2"
		},
		{
			"bufferView":306,
			"componentType":5126,
			"count":606,
			"type":"VEC2"
		},
		{
			"bufferView":307,
			"componentType":5126,
			"count":606,
			"type":"VEC2"
		},
		{
			"bufferView":308,
			"componentType":5126,
			"count":606,
			"type":"VEC2"
		},
		{
			"bufferView":309,
			"componentType":5126,
			"count":606,
			"type":"VEC2"
		},
		{
			"bufferView":310,
			"componentType":5126,
			"count":606,
			"type":"VEC2"
		},
		{
			"bufferView":311,
			"componentType":5123,
			"count":606,
			"type":"SCALAR"
		},
		{
			"bufferView":312,
			"componentType":5126,
			"count":276,
			"max":[
				0.8342198729515076,
				1.8951020240783691,
				0.16429950296878815
			],
			"min":[
				0.08215618133544922,
				-0.059513211250305176,
				-0.2020885944366455
			],
			"type":"VEC3"
		},
		{
			"bufferView":313,
			"componentType":5126,
			"count":276,
			"type":"VEC3"
		},
		{
			"bufferView":314,
			"componentType":5126,
			"count":276,
			"type":"VEC2"
		},
		{
			"bufferView":315,
			"componentType":5126,
			"count":276,
			"type":"VEC2"
		},
		{
			"bufferView":316,
			"componentType":5126,
			"count":276,
			"type":"VEC2"
		},
		{
			"bufferView":317,
			"componentType":5126,
			"count":276,
			"type":"VEC2"
		},
		{
			"bufferView":318,
			"componentType":5126,
			"count":276,
			"type":"VEC2"
		},
		{
			"bufferView":319,
			"componentType":5126,
			"count":276,
			"type":"VEC2"
		},
		{
			"bufferView":320,
			"componentType":5123,
			"count":276,
			"type":"SCALAR"
		},
		{
			"bufferView":321,
			"componentType":5126,
			"count":384,
			"max":[
				2.1784746646881104,
				0.10142586380243301,
				1.3274848461151123
			],
			"min":[
				-2.1784746646881104,
				-0.10142586380243301,
				-1.3274848461151123
			],
			"type":"VEC3"
		},
		{
			"bufferView":322,
			"componentType":5126,
			"count":384,
			"type":"VEC3"
		},
		{
			"bufferView":323,
			"componentType":5126,
			"count":384,
			"type":"VEC2"
		},
		{
			"bufferView":324,
			"componentType":5126,
			"count":384,
			"type":"VEC2"
		},
		{
			"bufferView":325,
			"componentType":5126,
			"count":384,
			"type":"VEC2"
		},
		{
			"bufferView":326,
			"componentType":5126,
			"count":384,
			"type":"VEC2"
		},
		{
			"bufferView":327,
			"componentType":5126,
			"count":384,
			"type":"VEC2"
		},
		{
			"bufferView":328,
			"componentType":5126,
			"count":384,
			"type":"VEC2"
		},
		{
			"bufferView":329,
			"componentType":5123,
			"count":564,
			"type":"SCALAR"
		},
		{
			"bufferView":330,
			"componentType":5126,
			"count":6,
			"max":[
				0.08742553740739822,
				0.5847203135490417,
				0.3089582622051239
			],
			"min":[
				0.024868952110409737,
				0.2410517781972885,
				-0.3089582622051239
			],
			"type":"VEC3"
		},
		{
			"bufferView":331,
			"componentType":5126,
			"count":6,
			"type":"VEC3"
		},
		{
			"bufferView":332,
			"componentType":5126,
			"count":6,
			"type":"VEC2"
		},
		{
			"bufferView":333,
			"componentType":5123,
			"count":12,
			"type":"SCALAR"
		},
		{
			"bufferView":334,
			"componentType":5126,
			"count":22,
			"max":[
				0.09344960749149323,
				0.6139926314353943,
				0.33926790952682495
			],
			"min":[
				0.019540630280971527,
				0.20795725286006927,
				-0.33926790952682495
			],
			"type":"VEC3"
		},
		{
			"bufferView":335,
			"componentType":5126,
			"count":22,
			"type":"VEC3"
		},
		{
			"bufferView":336,
			"componentType":5126,
			"count":22,
			"type":"VEC2"
		},
		{
			"bufferView":337,
			"componentType":5123,
			"count":66,
			"type":"SCALAR"
		},
		{
			"bufferView":338,
			"componentType":5126,
			"count":492,
			"max":[
				0.11601308733224869,
				0.6139926314353943,
				0.33926790952682495
			],
			"min":[
				-0.11601308733224869,
				-1.955030484168674e-06,
				-0.33926790952682495
			],
			"type":"VEC3"
		},
		{
			"bufferView":339,
			"componentType":5126,
			"count":492,
			"type":"VEC3"
		},
		{
			"bufferView":340,
			"componentType":5126,
			"count":492,
			"type":"VEC2"
		},
		{
			"bufferView":341,
			"componentType":5123,
			"count":798,
			"type":"SCALAR"
		},
		{
			"bufferView":342,
			"componentType":5126,
			"count":78,
			"max":[
				4,
				5,
				4
			],
			"min":[
				-4.466132164001465,
				-0.4661320447921753,
				-4.466132164001465
			],
			"type":"VEC3"
		},
		{
			"bufferView":343,
			"componentType":5126,
			"count":78,
			"type":"VEC3"
		},
		{
			"bufferView":344,
			"componentType":5126,
			"count":78,
			"type":"VEC2"
		},
		{
			"bufferView":345,
			"componentType":5126,
			"count":78,
			"type":"VEC2"
		},
		{
			"bufferView":346,
			"componentType":5126,
			"count":78,
			"type":"VEC2"
		},
		{
			"bufferView":347,
			"componentType":5126,
			"count":78,
			"type":"VEC2"
		},
		{
			"bufferView":348,
			"componentType":5126,
			"count":78,
			"type":"VEC2"
		},
		{
			"bufferView":349,
			"componentType":5123,
			"count":132,
			"type":"SCALAR"
		},
		{
			"bufferView":350,
			"componentType":5126,
			"count":4,
			"max":[
				4,
				0,
				4
			],
			"min":[
				-4,
				0,
				-4
			],
			"type":"VEC3"
		},
		{
			"bufferView":351,
			"componentType":5126,
			"count":4,
			"type":"VEC3"
		},
		{
			"bufferView":352,
			"componentType":5126,
			"count":4,
			"type":"VEC2"
		},
		{
			"bufferView":353,
			"componentType":5126,
			"count":4,
			"type":"VEC2"
		},
		{
			"bufferView":354,
			"componentType":5126,
			"count":4,
			"type":"VEC2"
		},
		{
			"bufferView":355,
			"componentType":5126,
			"count":4,
			"type":"VEC2"
		},
		{
			"bufferView":356,
			"componentType":5126,
			"count":4,
			"type":"VEC2"
		},
		{
			"bufferView":357,
			"componentType":5123,
			"count":6,
			"type":"SCALAR"
		}
	],
	"bufferViews":[
		{
			"buffer":0,
			"byteLength":4800,
			"byteOffset":0,
			"target":34962
		},
		{
			"buffer":0,
			"byteLength":4800,
			"byteOffset":4800,
			"target":34962
		},
		{
			"buffer":0,
			"byteLength":3200,
			"byteOffset":9600,
			"target":34962
		},
		{
			"buffer":0,
			"byteLength":3200,
			"byteOffset":12800,
			"target":34962
		},
		{
			"buffer":0,
			"byteLength":3200,
			"byteOffset":16000,
			"target":34962
		},
		{
			"buffer":0,
			"byteLength":3200,
			"byteOffset":19200,
			"target":34962
		},
		{
			"buffer":0,
			"byteLength":3200,
			"byteOffset":22400,
			"target":34962
		},
		{
			"buffer":0,
			"byteLength":3200,
			"byteOffset":25600,
			"target":34962
		},
		{
			"buffer":0,
			"byteLength":1200,
			"byteOffset":28800,
			"target":34963
		},
		{
			"buffer":0,
			"byteLength":1728,
			"byteOffset":30000,
			"target":34962
		},
		{
			"buffer":0,
			"byteLength":1728,
			"byteOffset":31728,
			"target":34962
		},
		{
			"buffer":0,
			"byteLength":1152,
			"byteOffset":33456,
			"target":34962
		},
		{
			"buffer":0,
			"byteLength":1152,
			"byteOffset":34608,
			"target":34962
		},
		{
			"buffer":0,
			"byteLength":1152,
			"byteOffset":35760,
			"target":34962
		},
		{
			"buffer":0,
			"byteLength":1152,
			"byteOffset":36912,
			"target":34962
		},
		{
			"buffer":0,
			"byteLength":1152,
			"byteOffset":38064,
			"target":34962
		},
		{
			"buffer":0,
			"byteLength":1152,
			"byteOffset":39216,
			"target":34962
		},
		{
			"buffer":0,
			"byteLength":432,
			"byteOffset":40368,
			"target":34963
		},
		{
			"buffer":0,
			"byteLength":576,
			"byteOffset":40800,
			"target":34962
		},
		{
			"buffer":0,
			"byteLength":576,
			"byteOffset":41376,
			"target":34962
		},
		{
			"buffer":0,
			"byteLength":384,
			"byteOffset":41952,
			"target":34962
		},
		{
			"buffer":0,
			"byteLength":384,
			"byteOffset":42336,
			"target":34962
		},
		{
			"buffer":0,
			"byteLength":384,
			"byteOffset":42720,
			"target":34962
		},
		{
			"buffer":0,
			"byteLength":384,
			"byteOffset":43104,
			"target":34962
		},
		{
			"buffer":0,
			"byteLength":384,
			"byteOffset":43488,
			"target":34962
		},
		{
			"buffer":0,
			"byteLength":384,
			"byteOffset":43872,
			"target":34962
		},
		{
			"buffer":0,
			"byteLength":144,
			"byteOffset":44256,
			"target":34963
		},
		{
			"buffer":0,
			"byteLength":1152,
			"byteOffset":44400,
			"target":34962
		},
		{
			"buffer":0,
			"byteLength":1152,
			"byteOffset":45552,
			"target":34962
		},
		{
			"buffer":0,
			"byteLength":768,
			"byteOffset":46704,
			"target":34962
		},
		{
			"buffer":0,
			"byteLength":768,
			"byteOffset":47472,
			"target":34962
		},
		{
			"buffer":0,
			"byteLength":768,
			"byteOffset":48240,
			"target":34962
		},
		{
			"buffer":0,
			"byteLength":768,
			"byteOffset":49008,
			"target":34962
		},
		{
			"buffer":0,
			"byteLength":768,
			"byteOffset":49776,
			"target":34962
		},
		{
			"buffer":0,
			"byteLength":360,
			"byteOffset":50544,
			"target":34963
		},
		{
			"buffer":0,
			"byteLength":91536,
			"byteOffset":50904,
			"target":34962
		},
		{
			"buffer":0,
			"byteLength":91536,
			"byteOffset":142440,
			"target":34962
		},
		{
			"buffer":0,
			"byteLength":61024,
			"byteOffset":233976,
			"target":34962
		},
		{
			"buffer":0,
			"byteLength":61024,
			"byteOffset":295000,
			"target":34962
		},
		{
			"buffer":0,
			"byteLength":61024,
			"byteOffset":356024,
			"target":34962
		},
		{
			"buffer":0,
			"byteLength":61024,
			"byteOffset":417048,
			"target":34962
		},
		{
			"buffer":0,
			"byteLength":61024,
			"byteOffset":478072,
			"target":34962
		},
		{
			"buffer":0,
			"byteLength":27960,
			"byteOffset":539096,
			"target":34963
		},
		{
			"buffer":0,
			"byteLength":1152,
			"byteOffset":567056,
			"target":34962
		},
		{
			"buffer":0,
			"byteLength":1152,
			"byteOffset":568208,
			"target":34962
		},
		{
			"buffer":0,
			"byteLength":768,
			"byteOffset":569360,
			"target":34962
		},
		{
			"buffer":0,
			"byteLength":768,
			"byteOffset":570128,
			"target":34962
		},
		{
			"buffer":0,
			"byteLength":768,
			"byteOffset":570896,
			"target":34962
		},
		{
			"buffer":0,
			"byteLength":768,
			"byteOffset":571664,
			"target":34962
		},
		{
			"buffer":0,
			"byteLength":768,
			"byteOffset":572432,
			"target":34962
		},
		{
			"buffer":0,
			"byteLength":360,
			"byteOffset":573200,
			"target":34963
		},
		{
			"buffer":0,
			"byteLength":288,
			"byteOffset":573560,
			"target":34962
		},
		{
			"buffer":0,
			"byteLength":288,
			"byteOffset":573848,
			"target":34962
		},
		{
			"buffer":0,
			"byteLength":192,
			"byteOffset":574136,
			"target":34962
		},
		{
			"buffer":0,
			"byteLength":192,
			"byteOffset":574328,
			"target":34962
		},
		{
			"buffer":0,
			"byteLength":192,
			"byteOffset":574520,
			"target":34962
		},
		{
			"buffer":0,
			"byteLength":192,
			"byteOffset":574712,
			"target":34962
		},
		{
			"buffer":0,
			"byteLength":192,
			"byteOffset":574904,
			"target":34962
		},
		{
			"buffer":0,
			"byteLength":72,
			"byteOffset":575096,
			"target":34963
		},
		{
			"buffer":0,
			"byteLength":3456,
			"byteOffset":575168,
			"target":34962
		},
		{
			"buffer":0,
			"byteLength":3456,
			"byteOffset":578624,
			"target":34962
		},
		{
			"buffer":0,
			"byteLength":2304,
			"byteOffset":582080,
			"target":34962
		},
		{
			"buffer":0,
			"byteLength":2304,
			"byteOffset":584384,
			"target":34962
		},
		{
			"buffer":0,
			"byteLength":2304,
			"byteOffset":586688,
			"target":34962
		},
		{
			"buffer":0,
			"byteLength":2304,
			"byteOffset":588992,
			"target":34962
		},
		{
			"buffer":0,
			"byteLength":2304,
			"byteOffset":591296,
			"target":34962
		},
		{
			"buffer":0,
			"byteLength":2304,
			"byteOffset":593600,
			"target":34962
		},
		{
			"buffer":0,
			"byteLength":576,
			"byteOffset":595904,
			"target":34963
		},
		{
			"buffer":0,
			"byteLength":23808,
			"byteOffset":596480,
			"target":34962
		},
		{
			"buffer":0,
			"byteLength":23808,
			"byteOffset":620288,
			"target":34962
		},
		{
			"buffer":0,
			"byteLength":15872,
			"byteOffset":644096,
			"target":34962
		},
		{
			"buffer":0,
			"byteLength":15872,
			"byteOffset":659968,
			"target":34962
		},
		{
			"buffer":0,
			"byteLength":15872,
			"byteOffset":675840,
			"target":34962
		},
		{
			"buffer":0,
			"byteLength":15872,
			"byteOffset":691712,
			"target":34962
		},
		{
			"buffer":0,
			"byteLength":15872,
			"byteOffset":707584,
			"target":34962
		},
		{
			"buffer":0,
			"byteLength":15872,
			"byteOffset":723456,
			"target":34962
		},
		{
			"buffer":0,
			"byteLength":15872,
			"byteOffset":739328,
			"target":34962
		},
		{
			"buffer":0,
			"byteLength":5760,
			"byteOffset":755200,
			"target":34963
		},
		{
			"buffer":0,
			"byteLength":3060,
			"byteOffset":760960,
			"target":34962
		},
		{
			"buffer":0,
			"byteLength":3060,
			"byteOffset":764020,
			"target":34962
		},
		{
			"buffer":0,
			"byteLength":2040,
			"byteOffset":767080,
			"target":34962
		},
		{
			"buffer":0,
			"byteLength":2040,
			"byteOffset":769120,
			"target":34962
		},
		{
			"buffer":0,
			"byteLength":2040,
			"byteOffset":771160,
			"target":34962
		},
		{
			"buffer":0,
			"byteLength":2040,
			"byteOffset":773200,
			"target":34962
		},
		{
			"buffer":0,
			"byteLength":2040,
			"byteOffset":775240,
			"target":34962
		},
		{
			"buffer":0,
			"byteLength":2040,
			"byteOffset":777280,
			"target":34962
		},
		{
			"buffer":0,
			"byteLength":510,
			"byteOffset":779320,
			"target":34963
		},
		{
			"buffer":0,
			"byteLength":4248,
			"byteOffset":779832,
			"target":34962
		},
		{
			"buffer":0,
			"byteLength":4248,
			"byteOffset":784080,
			"target":34962
		},
		{
			"buffer":0,
			"byteLength":2832,
			"byteOffset":788328,
			"target":34962
		},
		{
			"buffer":0,
			"byteLength":2832,
			"byteOffset":791160,
			"target":34962
		},
		{
			"buffer":0,
			"byteLength":2832,
			"byteOffset":793992,
			"target":34962
		},
		{
			"buffer":0,
			"byteLength":2832,
			"byteOffset":796824,
			"target":34962
		},
		{
			"buffer":0,
			"byteLength":2832,
			"byteOffset":799656,
			"target":34962
		},
		{
			"buffer":0,
			"byteLength":2832,
			"byteOffset":802488,
			"target":34962
		},
		{
			"buffer":0,
			"byteLength":708,
			"byteOffset":805320,
			"target":34963
		},
		{
			"buffer":0,
			"byteLength":23808,
			"byteOffset":806028,
			"target":34962
		},
		{
			"buffer":0,
			"byteLength":23808,
			"byteOffset":829836,
			"target":34962
		},
		{
			"buffer":0,
			"byteLength":15872,
			"byteOffset":853644,
			"target":34962
		},
		{
			"buffer":0,
			"byteLength":15872,
			"byteOffset":869516,
			"target":34962
		},
		{
			"buffer":0,
			"byteLength":15872,
			"byteOffset":885388,
			"target":34962
		},
		{
			"buffer":0,
			"byteLength":15872,
			"byteOffset":901260,
			"target":34962
		},
		{
			"buffer":0,
			"byteLength":15872,
			"byteOffset":917132,
			"target":34962
		},
		{
			"buffer":0,
			"byteLength":15872,
			"byteOffset":933004,
			"target":34962
		},
		{
			"buffer":0,
			"byteLength":15872,
			"byteOffset":948876,
			"target":34962
		},
		{
			"buffer":0,
			"byteLength":5760,
			"byteOffset":964748,
			"target":34963
		},
		{
			"buffer":0,
			"byteLength":1440,
			"byteOffset":970508,
			"target":34962
		},
		{
			"buffer":0,
			"byteLength":1440,
			"byteOffset":971948,
			"target":34962
		},
		{
			"buffer":0,
			"byteLength":960,
			"byteOffset":973388,
			"target":34962
		},
		{
			"buffer":0,
			"byteLength":960,
			"byteOffset":974348,
			"target":34962
		},
		{
			"buffer":0,
			"byteLength":960,
			"byteOffset":975308,
			"target":34962
		},
		{
			"buffer":0,
			"byteLength":960,
			"byteOffset":976268,
			"target":34962
		},
		{
			"buffer":0,
			"byteLength":960,
			"byteOffset":977228,
			"target":34962
		},
		{
			"buffer":0,
			"byteLength":960,
			"byteOffset":978188,
			"target":34962
		},
		{
			"buffer":0,
			"byteLength":960,
			"byteOffset":979148,
			"target":34962
		},
		{
			"buffer":0,
			"byteLength":360,
			"byteOffset":980108,
			"target":34963
		},
		{
			"buffer":0,
			"byteLength":4032,
			"byteOffset":980468,
			"target":34962
		},
		{
			"buffer":0,
			"byteLength":4032,
			"byteOffset":984500,
			"target":34962
		},
		{
			"buffer":0,
			"byteLength":2688,
			"byteOffset":988532,
			"target":34962
		},
		{
			"buffer":0,
			"byteLength":2688,
			"byteOffset":991220,
			"target":34962
		},
		{
			"buffer":0,
			"byteLength":2688,
			"byteOffset":993908,
			"target":34962
		},
		{
			"buffer":0,
			"byteLength":2688,
			"byteOffset":996596,
			"target":34962
		},
		{
			"buffer":0,
			"byteLength":2688,
			"byteOffset":999284,
			"target":34962
		},
		{
			"buffer":0,
			"byteLength":2688,
			"byteOffset":1001972,
			"target":34962
		},
		{
			"buffer":0,
			"byteLength":1008,
			"byteOffset":1004660,
			"target":34963
		},
		{
			"buffer":0,
			"byteLength":528,
			"byteOffset":1005668,
			"target":34962
		},
		{
			"buffer":0,
			"byteLength":528,
			"byteOffset":1006196,
			"target":34962
		},
		{
			"buffer":0,
			"byteLength":352,
			"byteOffset":1006724,
			"target":34962
		},
		{
			"buffer":0,
			"byteLength":352,
			"byteOffset":1007076,
			"target":34962
		},
		{
			"buffer":0,
			"byteLength":352,
			"byteOffset":1007428,
			"target":34962
		},
		{
			"buffer":0,
			"byteLength":352,
			"byteOffset":1007780,
			"target":34962
		},
		{
			"buffer":0,
			"byteLength":352,
			"byteOffset":1008132,
			"target":34962
		},
		{
			"buffer":0,
			"byteLength":132,
			"byteOffset":1008484,
			"target":34963
		},
		{
			"buffer":0,
			"byteLength":912,
			"byteOffset":1008616,
			"target":34962
		},
		{
			"buffer":0,
			"byteLength":912,
			"byteOffset":1009528,
			"target":34962
		},
		{
			"buffer":0,
			"byteLength":608,
			"byteOffset":1010440,
			"target":34962
		},
		{
			"buffer":0,
			"byteLength":608,
			"byteOffset":1011048,
			"target":34962
		},
		{
			"buffer":0,
			"byteLength":608,
			"byteOffset":1011656,
			"target":34962
		},
		{
			"buffer":0,
			"byteLength":608,
			"byteOffset":1012264,
			"target":34962
		},
		{
			"buffer":0,
			"byteLength":608,
			"byteOffset":1012872,
			"target":34962
		},
		{
			"buffer":0,
			"byteLength":228,
			"byteOffset":1013480,
			"target":34963
		},
		{
			"buffer":0,
			"byteLength":528,
			"byteOffset":1013708,
			"target":34962
		},
		{
			"buffer":0,
			"byteLength":528,
			"byteOffset":1014236,
			"target":34962
		},
		{
			"buffer":0,
			"byteLength":352,
			"byteOffset":1014764,
			"target":34962
		},
		{
			"buffer":0,
			"byteLength":352,
			"byteOffset":1015116,
			"target":34962
		},
		{
			"buffer":0,
			"byteLength":352,
			"byteOffset":1015468,
			"target":34962
		},
		{
			"buffer":0,
			"byteLength":352,
			"byteOffset":1015820,
			"target":34962
		},
		{
			"buffer":0,
			"byteLength":352,
			"byteOffset":1016172,
			"target":34962
		},
		{
			"buffer":0,
			"byteLength":912,
			"byteOffset":1016524,
			"target":34962
		},
		{
			"buffer":0,
			"byteLength":912,
			"byteOffset":1017436,
			"target":34962
		},
		{
			"buffer":0,
			"byteLength":608,
			"byteOffset":1018348,
			"target":34962
		},
		{
			"buffer":0,
			"byteLength":608,
			"byteOffset":1018956,
			"target":34962
		},
		{
			"buffer":0,
			"byteLength":608,
			"byteOffset":1019564,
			"target":34962
		},
		{
			"buffer":0,
			"byteLength":608,
			"byteOffset":1020172,
			"target":34962
		},
		{
			"buffer":0,
			"byteLength":608,
			"byteOffset":1020780,
			"target":34962
		},
		{
			"buffer":0,
			"byteLength":228,
			"byteOffset":1021388,
			"target":34963
		},
		{
			"buffer":0,
			"byteLength":528,
			"byteOffset":1021616,
			"target":34962
		},
		{
			"buffer":0,
			"byteLength":528,
			"byteOffset":1022144,
			"target":34962
		},
		{
			"buffer":0,
			"byteLength":352,
			"byteOffset":1022672,
			"target":34962
		},
		{
			"buffer":0,
			"byteLength":352,
			"byteOffset":1023024,
			"target":34962
		},
		{
			"buffer":0,
			"byteLength":352,
			"byteOffset":1023376,
			"target":34962
		},
		{
			"buffer":0,
			"byteLength":352,
			"byteOffset":1023728,
			"target":34962
		},
		{
			"buffer":0,
			"byteLength":352,
			"byteOffset":1024080,
			"target":34962
		},
		{
			"buffer":0,
			"byteLength":132,
			"byteOffset":1024432,
			"target":34963
		},
		{
			"buffer":0,
			"byteLength":912,
			"byteOffset":1024564,
			"target":34962
		},
		{
			"buffer":0,
			"byteLength":912,
			"byteOffset":1025476,
			"target":34962
		},
		{
			"buffer":0,
			"byteLength":608,
			"byteOffset":1026388,
			"target":34962
		},
		{
			"buffer":0,
			"byteLength":608,
			"byteOffset":1026996,
			"target":34962
		},
		{
			"buffer":0,
			"byteLength":608,
			"byteOffset":1027604,
			"target":34962
		},
		{
			"buffer":0,
			"byteLength":608,
			"byteOffset":1028212,
			"target":34962
		},
		{
			"buffer":0,
			"byteLength":608,
			"byteOffset":1028820,
			"target":34962
		},
		{
			"buffer":0,
			"byteLength":228,
			"byteOffset":1029428,
			"target":34963
		},
		{
			"buffer":0,
			"byteLength":528,
			"byteOffset":1029656,
			"target":34962
		},
		{
			"buffer":0,
			"byteLength":528,
			"byteOffset":1030184,
			"target":34962
		},
		{
			"buffer":0,
			"byteLength":352,
			"byteOffset":1030712,
			"target":34962
		},
		{
			"buffer":0,
			"byteLength":352,
			"byteOffset":1031064,
			"target":34962
		},
		{
			"buffer":0,
			"byteLength":352,
			"byteOffset":1031416,
			"target":34962
		},
		{
			"buffer":0,
			"byteLength":352,
			"byteOffset":1031768,
			"target":34962
		},
		{
			"buffer":0,
			"byteLength":352,
			"byteOffset":1032120,
			"target":34962
		},
		{
			"buffer":0,
			"byteLength":132,
			"byteOffset":1032472,
			"target":34963
		},
		{
			"buffer":0,
			"byteLength":912,
			"byteOffset":1032604,
			"target":34962
		},
		{
			"buffer":0,
			"byteLength":912,
			"byteOffset":1033516,
			"target":34962
		},
		{
			"buffer":0,
			"byteLength":608,
			"byteOffset":1034428,
			"target":34962
		},
		{
			"buffer":0,
			"byteLength":608,
			"byteOffset":1035036,
			"target":34962
		},
		{
			"buffer":0,
			"byteLength":608,
			"byteOffset":1035644,
			"target":34962
		},
		{
			"buffer":0,
			"byteLength":608,
			"byteOffset":1036252,
			"target":34962
		},
		{
			"buffer":0,
			"byteLength":608,
			"byteOffset":1036860,
			"target":34962
		},
		{
			"buffer":0,
			"byteLength":228,
			"byteOffset":1037468,
			"target":34963
		},
		{
			"buffer":0,
			"byteLength":528,
			"byteOffset":1037696,
			"target":34962
		},
		{
			"buffer":0,
			"byteLength":528,
			"byteOffset":1038224,
			"target":34962
		},
		{
			"buffer":0,
			"byteLength":352,
			"byteOffset":1038752,
			"target":34962
		},
		{
			"buffer":0,
			"byteLength":352,
			"byteOffset":1039104,
			"target":34962
		},
		{
			"buffer":0,
			"byteLength":352,
			"byteOffset":1039456,
			"target":34962
		},
		{
			"buffer":0,
			"byteLength":352,
			"byteOffset":1039808,
			"target":34962
		},
		{
			"buffer":0,
			"byteLength":352,
			"byteOffset":1040160,
			"target":34962
		},
		{
			"buffer":0,
			"byteLength":912,
			"byteOffset":1040512,
			"target":34962
		},
		{
			"buffer":0,
			"byteLength":912,
			"byteOffset":1041424,
			"target":34962
		},
		{
			"buffer":0,
			"byteLength":608,
			"byteOffset":1042336,
			"target":34962
		},
		{
			"buffer":0,
			"byteLength":608,
			"byteOffset":1042944,
			"target":34962
		},
		{
			"buffer":0,
			"byteLength":608,
			"byteOffset":1043552,
			"target":34962
		},
		{
			"buffer":0,
			"byteLength":608,
			"byteOffset":1044160,
			"target":34962
		},
		{
			"buffer":0,
			"byteLength":608,
			"byteOffset":1044768,
			"target":34962
		},
		{
			"buffer":0,
			"byteLength":228,
			"byteOffset":1045376,
			"target":34963
		},
		{
			"buffer":0,
			"byteLength":528,
			"byteOffset":1045604,
			"target":34962
		},
		{
			"buffer":0,
			"byteLength":528,
			"byteOffset":1046132,
			"target":34962
		},
		{
			"buffer":0,
			"byteLength":352,
			"byteOffset":1046660,
			"target":34962
		},
		{
			"buffer":0,
			"byteLength":352,
			"byteOffset":1047012,
			"target":34962
		},
		{
			"buffer":0,
			"byteLength":352,
			"byteOffset":1047364,
			"target":34962
		},
		{
			"buffer":0,
			"byteLength":352,
			"byteOffset":1047716,
			"target":34962
		},
		{
			"buffer":0,
			"byteLength":352,
			"byteOffset":1048068,
			"target":34962
		},
		{
			"buffer":0,
			"byteLength":912,
			"byteOffset":1048420,
			"target":34962
		},
		{
			"buffer":0,
			"byteLength":912,
			"byteOffset":1049332,
			"target":34962
		},
		{
			"buffer":0,
			"byteLength":608,
			"byteOffset":1050244,
			"target":34962
		},
		{
			"buffer":0,
			"byteLength":608,
			"byteOffset":1050852,
			"target":34962
		},
		{
			"buffer":0,
			"byteLength":608,
			"byteOffset":1051460,
			"target":34962
		},
		{
			"buffer":0,
			"byteLength":608,
			"byteOffset":1052068,
			"target":34962
		},
		{
			"buffer":0,
			"byteLength":608,
			"byteOffset":1052676,
			"target":34962
		},
		{
			"buffer":0,
			"byteLength":228,
			"byteOffset":1053284,
			"target":34963
		},
		{
			"buffer":0,
			"byteLength":528,
			"byteOffset":1053512,
			"target":34962
		},
		{
			"buffer":0,
			"byteLength":528,
			"byteOffset":1054040,
			"target":34962
		},
		{
			"buffer":0,
			"byteLength":352,
			"byteOffset":1054568,
			"target":34962
		},
		{
			"buffer":0,
			"byteLength":352,
			"byteOffset":1054920,
			"target":34962
		},
		{
			"buffer":0,
			"byteLength":352,
			"byteOffset":1055272,
			"target":34962
		},
		{
			"buffer":0,
			"byteLength":352,
			"byteOffset":1055624,
			"target":34962
		},
		{
			"buffer":0,
			"byteLength":352,
			"byteOffset":1055976,
			"target":34962
		},
		{
			"buffer":0,
			"byteLength":912,
			"byteOffset":1056328,
			"target":34962
		},
		{
			"buffer":0,
			"byteLength":912,
			"byteOffset":1057240,
			"target":34962
		},
		{
			"buffer":0,
			"byteLength":608,
			"byteOffset":1058152,
			"target":34962
		},
		{
			"buffer":0,
			"byteLength":608,
			"byteOffset":1058760,
			"target":34962
		},
		{
			"buffer":0,
			"byteLength":608,
			"byteOffset":1059368,
			"target":34962
		},
		{
			"buffer":0,
			"byteLength":608,
			"byteOffset":1059976,
			"target":34962
		},
		{
			"buffer":0,
			"byteLength":608,
			"byteOffset":1060584,
			"target":34962
		},
		{
			"buffer":0,
			"byteLength":528,
			"byteOffset":1061192,
			"target":34962
		},
		{
			"buffer":0,
			"byteLength":528,
			"byteOffset":1061720,
			"target":34962
		},
		{
			"buffer":0,
			"byteLength":352,
			"byteOffset":1062248,
			"target":34962
		},
		{
			"buffer":0,
			"byteLength":352,
			"byteOffset":1062600,
			"target":34962
		},
		{
			"buffer":0,
			"byteLength":352,
			"byteOffset":1062952,
			"target":34962
		},
		{
			"buffer":0,
			"byteLength":352,
			"byteOffset":1063304,
			"target":34962
		},
		{
			"buffer":0,
			"byteLength":352,
			"byteOffset":1063656,
			"target":34962
		},
		{
			"buffer":0,
			"byteLength":912,
			"byteOffset":1064008,
			"target":34962
		},
		{
			"buffer":0,
			"byteLength":912,
			"byteOffset":1064920,
			"target":34962
		},
		{
			"buffer":0,
			"byteLength":608,
			"byteOffset":1065832,
			"target":34962
		},
		{
			"buffer":0,
			"byteLength":608,
			"byteOffset":1066440,
			"target":34962
		},
		{
			"buffer":0,
			"byteLength":608,
			"byteOffset":1067048,
			"target":34962
		},
		{
			"buffer":0,
			"byteLength":608,
			"byteOffset":1067656,
			"target":34962
		},
		{
			"buffer":0,
			"byteLength":608,
			"byteOffset":1068264,
			"target":34962
		},
		{
			"buffer":0,
			"byteLength":528,
			"byteOffset":1068872,
			"target":34962
		},
		{
			"buffer":0,
			"byteLength":528,
			"byteOffset":1069400,
			"target":34962
		},
		{
			"buffer":0,
			"byteLength":352,
			"byteOffset":1069928,
			"target":34962
		},
		{
			"buffer":0,
			"byteLength":352,
			"byteOffset":1070280,
			"target":34962
		},
		{
			"buffer":0,
			"byteLength":352,
			"byteOffset":1070632,
			"target":34962
		},
		{
			"buffer":0,
			"byteLength":352,
			"byteOffset":1070984,
			"target":34962
		},
		{
			"buffer":0,
			"byteLength":352,
			"byteOffset":1071336,
			"target":34962
		},
		{
			"buffer":0,
			"byteLength":912,
			"byteOffset":1071688,
			"target":34962
		},
		{
			"buffer":0,
			"byteLength":912,
			"byteOffset":1072600,
			"target":34962
		},
		{
			"buffer":0,
			"byteLength":608,
			"byteOffset":1073512,
			"target":34962
		},
		{
			"buffer":0,
			"byteLength":608,
			"byteOffset":1074120,
			"target":34962
		},
		{
			"buffer":0,
			"byteLength":608,
			"byteOffset":1074728,
			"target":34962
		},
		{
			"buffer":0,
			"byteLength":608,
			"byteOffset":1075336,
			"target":34962
		},
		{
			"buffer":0,
			"byteLength":608,
			"byteOffset":1075944,
			"target":34962
		},
		{
			"buffer":0,
			"byteLength":228,
			"byteOffset":1076552,
			"target":34963
		},
		{
			"buffer":0,
			"byteLength":48384,
			"byteOffset":1076780,
			"target":34962
		},
		{
			"buffer":0,
			"byteLength":48384,
			"byteOffset":1125164,
			"target":34962
		},
		{
			"buffer":0,
			"byteLength":32256,
			"byteOffset":1173548,
			"target":34962
		},
		{
			"buffer":0,
			"byteLength":32256,
			"byteOffset":1205804,
			"target":34962
		},
		{
			"buffer":0,
			"byteLength":32256,
			"byteOffset":1238060,
			"target":34962
		},
		{
			"buffer":0,
			"byteLength":32256,
			"byteOffset":1270316,
			"target":34962
		},
		{
			"buffer":0,
			"byteLength":32256,
			"byteOffset":1302572,
			"target":34962
		},
		{
			"buffer":0,
			"byteLength":8064,
			"byteOffset":1334828,
			"target":34963
		},
		{
			"buffer":0,
			"byteLength":936,
			"byteOffset":1342892,
			"target":34962
		},
		{
			"buffer":0,
			"byteLength":936,
			"byteOffset":1343828,
			"target":34962
		},
		{
			"buffer":0,
			"byteLength":624,
			"byteOffset":1344764,
			"target":34962
		},
		{
			"buffer":0,
			"byteLength":624,
			"byteOffset":1345388,
			"target":34962
		},
		{
			"buffer":0,
			"byteLength":624,
			"byteOffset":1346012,
			"target":34962
		},
		{
			"buffer":0,
			"byteLength":624,
			"byteOffset":1346636,
			"target":34962
		},
		{
			"buffer":0,
			"byteLength":624,
			"byteOffset":1347260,
			"target":34962
		},
		{
			"buffer":0,
			"byteLength":156,
			"byteOffset":1347884,
			"target":34963
		},
		{
			"buffer":0,
			"byteLength":792,
			"byteOffset":1348040,
			"target":34962
		},
		{
			"buffer":0,
			"byteLength":792,
			"byteOffset":1348832,
			"target":34962
		},
		{
			"buffer":0,
			"byteLength":528,
			"byteOffset":1349624,
			"target":34962
		},
		{
			"buffer":0,
			"byteLength":528,
			"byteOffset":1350152,
			"target":34962
		},
		{
			"buffer":0,
			"byteLength":528,
			"byteOffset":1350680,
			"target":34962
		},
		{
			"buffer":0,
			"byteLength":528,
			"byteOffset":1351208,
			"target":34962
		},
		{
			"buffer":0,
			"byteLength":528,
			"byteOffset":1351736,
			"target":34962
		},
		{
			"buffer":0,
			"byteLength":132,
			"byteOffset":1352264,
			"target":34963
		},
		{
			"buffer":0,
			"byteLength":55008,
			"byteOffset":1352396,
			"target":34962
		},
		{
			"buffer":0,
			"byteLength":55008,
			"byteOffset":1407404,
			"target":34962
		},
		{
			"buffer":0,
			"byteLength":36672,
			"byteOffset":1462412,
			"target":34962
		},
		{
			"buffer":0,
			"byteLength":36672,
			"byteOffset":1499084,
			"target":34962
		},
		{
			"buffer":0,
			"byteLength":36672,
			"byteOffset":1535756,
			"target":34962
		},
		{
			"buffer":0,
			"byteLength":36672,
			"byteOffset":1572428,
			"target":34962
		},
		{
			"buffer":0,
			"byteLength":36672,
			"byteOffset":1609100,
			"target":34962
		},
		{
			"buffer":0,
			"byteLength":36672,
			"byteOffset":1645772,
			"target":34962
		},
		{
			"buffer":0,
			"byteLength":9168,
			"byteOffset":1682444,
			"target":34963
		},
		{
			"buffer":0,
			"byteLength":936,
			"byteOffset":1691612,
			"target":34962
		},
		{
			"buffer":0,
			"byteLength":936,
			"byteOffset":1692548,
			"target":34962
		},
		{
			"buffer":0,
			"byteLength":624,
			"byteOffset":1693484,
			"target":34962
		},
		{
			"buffer":0,
			"byteLength":624,
			"byteOffset":1694108,
			"target":34962
		},
		{
			"buffer":0,
			"byteLength":624,
			"byteOffset":1694732,
			"target":34962
		},
		{
			"buffer":0,
			"byteLength":624,
			"byteOffset":1695356,
			"target":34962
		},
		{
			"buffer":0,
			"byteLength":624,
			"byteOffset":1695980,
			"target":34962
		},
		{
			"buffer":0,
			"byteLength":624,
			"byteOffset":1696604,
			"target":34962
		},
		{
			"buffer":0,
			"byteLength":156,
			"byteOffset":1697228,
			"target":34963
		},
		{
			"buffer":0,
			"byteLength":7272,
			"byteOffset":1697384,
			"target":34962
		},
		{
			"buffer":0,
			"byteLength":7272,
			"byteOffset":1704656,
			"target":34962
		},
		{
			"buffer":0,
			"byteLength":4848,
			"byteOffset":1711928,
			"target":34962
		},
		{
			"buffer":0,
			"byteLength":4848,
			"byteOffset":1716776,
			"target":34962
		},
		{
			"buffer":0,
			"byteLength":4848,
			"byteOffset":1721624,
			"target":34962
		},
		{
			"buffer":0,
			"byteLength":4848,
			"byteOffset":1726472,
			"target":34962
		},
		{
			"buffer":0,
			"byteLength":4848,
			"byteOffset":1731320,
			"target":34962
		},
		{
			"buffer":0,
			"byteLength":4848,
			"byteOffset":1736168,
			"target":34962
		},
		{
			"buffer":0,
			"byteLength":1212,
			"byteOffset":1741016,
			"target":34963
		},
		{
			"buffer":0,
			"byteLength":3312,
			"byteOffset":1742228,
			"target":34962
		},
		{
			"buffer":0,
			"byteLength":3312,
			"byteOffset":1745540,
			"target":34962
		},
		{
			"buffer":0,
			"byteLength":2208,
			"byteOffset":1748852,
			"target":34962
		},
		{
			"buffer":0,
			"byteLength":2208,
			"byteOffset":1751060,
			"target":34962
		},
		{
			"buffer":0,
			"byteLength":2208,
			"byteOffset":1753268,
			"target":34962
		},
		{
			"buffer":0,
			"byteLength":2208,
			"byteOffset":1755476,
			"target":34962
		},
		{
			"buffer":0,
			"byteLength":2208,
			"byteOffset":1757684,
			"target":34962
		},
		{
			"buffer":0,
			"byteLength":2208,
			"byteOffset":1759892,
			"target":34962
		},
		{
			"buffer":0,
			"byteLength":552,
			"byteOffset":1762100,
			"target":34963
		},
		{
			"buffer":0,
			"byteLength":4608,
			"byteOffset":1762652,
			"target":34962
		},
		{
			"buffer":0,
			"byteLength":4608,
			"byteOffset":1767260,
			"target":34962
		},
		{
			"buffer":0,
			"byteLength":3072,
			"byteOffset":1771868,
			"target":34962
		},
		{
			"buffer":0,
			"byteLength":3072,
			"byteOffset":1774940,
			"target":34962
		},
		{
			"buffer":0,
			"byteLength":3072,
			"byteOffset":1778012,
			"target":34962
		},
		{
			"buffer":0,
			"byteLength":3072,
			"byteOffset":1781084,
			"target":34962
		},
		{
			"buffer":0,
			"byteLength":3072,
			"byteOffset":1784156,
			"target":34962
		},
		{
			"buffer":0,
			"byteLength":3072,
			"byteOffset":1787228,
			"target":34962
		},
		{
			"buffer":0,
			"byteLength":1128,
			"byteOffset":1790300,
			"target":34963
		},
		{
			"buffer":0,
			"byteLength":72,
			"byteOffset":1791428,
			"target":34962
		},
		{
			"buffer":0,
			"byteLength":72,
			"byteOffset":1791500,
			"target":34962
		},
		{
			"buffer":0,
			"byteLength":48,
			"byteOffset":1791572,
			"target":34962
		},
		{
			"buffer":0,
			"byteLength":24,
			"byteOffset":1791620,
			"target":34963
		},
		{
			"buffer":0,
			"byteLength":264,
			"byteOffset":1791644,
			"target":34962
		},
		{
			"buffer":0,
			"byteLength":264,
			"byteOffset":1791908,
			"target":34962
		},
		{
			"buffer":0,
			"byteLength":176,
			"byteOffset":1792172,
			"target":34962
		},
		{
			"buffer":0,
			"byteLength":132,
			"byteOffset":1792348,
			"target":34963
		},
		{
			"buffer":0,
			"byteLength":5904,
			"byteOffset":1792480,
			"target":34962
		},
		{
			"buffer":0,
			"byteLength":5904,
			"byteOffset":1798384,
			"target":34962
		},
		{
			"buffer":0,
			"byteLength":3936,
			"byteOffset":1804288,
			"target":34962
		},
		{
			"buffer":0,
			"byteLength":1596,
			"byteOffset":1808224,
			"target":34963
		},
		{
			"buffer":0,
			"byteLength":936,
			"byteOffset":1809820,
			"target":34962
		},
		{
			"buffer":0,
			"byteLength":936,
			"byteOffset":1810756,
			"target":34962
		},
		{
			"buffer":0,
			"byteLength":624,
			"byteOffset":1811692,
			"target":34962
		},
		{
			"buffer":0,
			"byteLength":624,
			"byteOffset":1812316,
			"target":34962
		},
		{
			"buffer":0,
			"byteLength":624,
			"byteOffset":1812940,
			"target":34962
		},
		{
			"buffer":0,
			"byteLength":624,
			"byteOffset":1813564,
			"target":34962
		},
		{
			"buffer":0,
			"byteLength":624,
			"byteOffset":1814188,
			"target":34962
		},
		{
			"buffer":0,
			"byteLength":264,
			"byteOffset":1814812,
			"target":34963
		},
		{
			"buffer":0,
			"byteLength":48,
			"byteOffset":1815076,
			"target":34962
		},
		{
			"buffer":0,
			"byteLength":48,
			"byteOffset":1815124,
			"target":34962
		},
		{
			"buffer":0,
			"byteLength":32,
			"byteOffset":1815172,
			"target":34962
		},
		{
			"buffer":0,
			"byteLength":32,
			"byteOffset":1815204,
			"target":34962
		},
		{
			"buffer":0,
			"byteLength":32,
			"byteOffset":1815236,
			"target":34962
		},
		{
			"buffer":0,
			"byteLength":32,
			"byteOffset":1815268,
			"target":34962
		},
		{
			"buffer":0,
			"byteLength":32,
			"byteOffset":1815300,
			"target":34962
		},
		{
			"buffer":0,
			"byteLength":12,
			"byteOffset":1815332,
			"target":34963
		}
	],
	"buffers":[
		{
			"byteLength":1815344,
			"uri":"Office_Scene_Mac.bin"
		}
	]
}
