{
	"asset":{
		"generator":"Khronos glTF Blender I/O v4.2.60",
		"version":"2.0"
	},
	"extensionsUsed":[
		"KHR_materials_sheen"
	],
	"scene":0,
	"scenes":[
		{
			"name":"Scene",
			"nodes":[
				0,
				1,
				2,
				3,
				4,
				5,
				6,
				7,
				8,
				9,
				10,
				11,
				12,
				13,
				14,
				15,
				16,
				17,
				18,
				19,
				20,
				21,
				22,
				23
			]
		}
	],
	"nodes":[
		{
			"mesh":0,
			"name":"ComputerStand",
			"rotation":[
				0,
				-0.35115283727645874,
				0,
				0.9363181591033936
			],
			"translation":[
				-3.474959135055542,
				2.7707982063293457,
				-3.2381372451782227
			]
		},
		{
			"mesh":1,
			"name":"Desk",
			"translation":[
				-0.020636551082134247,
				0.7595847249031067,
				-2.2862839698791504
			]
		},
		{
			"mesh":2,
			"name":"Keyboard",
			"rotation":[
				0.01993156224489212,
				0.43374407291412354,
				-0.010150090791285038,
				0.9007585644721985
			],
			"translation":[
				-2.447108268737793,
				2.770824432373047,
				-2.4660494327545166
			]
		},
		{
			"mesh":3,
			"name":"PC",
			"rotation":[
				0,
				-0.698049008846283,
				0,
				0.7160500884056091
			],
			"translation":[
				-2.988823890686035,
				0.7631592154502869,
				-2.9846267700195312
			]
		},
		{
			"mesh":4,
			"name":"WallShelf",
			"translation":[
				0.4100192189216614,
				4.13316535949707,
				-3.7780680656433105
			]
		},
		{
			"mesh":5,
			"name":"Sphere",
			"translation":[
				0.9533842206001282,
				4.480178356170654,
				-3.609143018722534
			]
		},
		{
			"mesh":6,
			"name":"Chair",
			"rotation":[
				0,
				0.3935573101043701,
				0,
				0.9193000793457031
			],
			"translation":[
				-1.1754080057144165,
				0.6631267070770264,
				-1.1533265113830566
			]
		},
		{
			"mesh":7,
			"name":"Sphere.001",
			"translation":[
				0.36967965960502625,
				4.4759931564331055,
				-3.469832420349121
			]
		},
		{
			"mesh":8,
			"name":"Mouse",
			"rotation":[
				0,
				-0.901835560798645,
				0,
				0.4320794939994812
			],
			"translation":[
				-0.9235733151435852,
				2.728179693222046,
				-2.997545003890991
			]
		},
		{
			"mesh":9,
			"name":"BookShelf",
			"translation":[
				-3.3574161529541016,
				1.155207633972168,
				3.107055425643921
			]
		},
		{
			"mesh":10,
			"name":"MidBookonDesk",
			"rotation":[
				0,
				-0.7097225785255432,
				0,
				0.7044812440872192
			],
			"translation":[
				-2.965416431427002,
				2.845972776412964,
				0.6556118726730347
			]
		},
		{
			"mesh":11,
			"name":"TopBookonDesk",
			"rotation":[
				0,
				-0.7099059820175171,
				0,
				0.7042964696884155
			],
			"translation":[
				-3.0575826168060303,
				2.96742844581604,
				0.6345263719558716
			]
		},
		{
			"mesh":12,
			"name":"BottomBookonDesk",
			"rotation":[
				0,
				-0.7122486233711243,
				0,
				0.7019273042678833
			],
			"translation":[
				-2.907421588897705,
				2.7135121822357178,
				0.6577764749526978
			]
		},
		{
			"mesh":13,
			"name":"BlueBookShelf",
			"rotation":[
				0.7042669057846069,
				0.026767410337924957,
				0.02037714421749115,
				0.7091377973556519
			],
			"translation":[
				-3.1562654972076416,
				4.912469387054443,
				3.741175889968872
			]
		},
		{
			"mesh":14,
			"name":"RedBookShelf",
			"rotation":[
				0.7042669057846069,
				0.026767410337924957,
				0.02037714421749115,
				0.7091377973556519
			],
			"translation":[
				-3.1562654972076416,
				4.912469387054443,
				3.6105270385742188
			]
		},
		{
			"mesh":15,
			"name":"GreenBookShelf",
			"rotation":[
				0.7042669057846069,
				0.026767410337924957,
				0.02037714421749115,
				0.7091377973556519
			],
			"translation":[
				-3.1562654972076416,
				4.912469387054443,
				3.4798669815063477
			]
		},
		{
			"mesh":16,
			"name":"BlackBookShelf.001",
			"rotation":[
				0.7042669057846069,
				0.026767410337924957,
				0.02037714421749115,
				0.7091377973556519
			],
			"translation":[
				-3.1562654972076416,
				4.123103141784668,
				2.4431638717651367
			]
		},
		{
			"mesh":17,
			"name":"BlackBookShelf.004",
			"rotation":[
				0.7042669057846069,
				0.026767410337924957,
				0.02037714421749115,
				0.7091377973556519
			],
			"translation":[
				-3.1562654972076416,
				4.123103141784668,
				2.314553737640381
			]
		},
		{
			"mesh":18,
			"name":"BlackBookShelf",
			"rotation":[
				0.7042669057846069,
				0.026767410337924957,
				0.02037714421749115,
				0.7091377973556519
			],
			"translation":[
				-3.1562654972076416,
				4.123103141784668,
				2.1828622817993164
			]
		},
		{
			"mesh":19,
			"name":"SmallTree",
			"translation":[
				-3.1056180000305176,
				4.0401763916015625,
				3.604269027709961
			]
		},
		{
			"mesh":20,
			"name":"BigTree",
			"translation":[
				2.9141924381256104,
				1.8847708702087402,
				-3.3391597270965576
			]
		},
		{
			"mesh":21,
			"name":"Carpet",
			"rotation":[
				0,
				0.4389455318450928,
				0,
				0.898513674736023
			],
			"translation":[
				1.1331610679626465,
				0.8240403532981873,
				1.0768775939941406
			]
		},
		{
			"mesh":22,
			"name":"Screen",
			"rotation":[
				0,
				-0.32411709427833557,
				0,
				0.9460169672966003
			],
			"translation":[
				-3.0734994411468506,
				4.148756980895996,
				-2.858116388320923
			]
		},
		{
			"mesh":23,
			"name":"EntireRoom",
			"scale":[
				1.0507888793945312,
				1.0507888793945312,
				1.0507888793945312
			],
			"translation":[
				0,
				0.7742587327957153,
				0
			]
		}
	],
	"materials":[
		{
			"doubleSided":true,
			"name":"CompStand",
			"pbrMetallicRoughness":{
				"baseColorFactor":[
					0.800000011920929,
					0.800000011920929,
					0.800000011920929,
					1
				],
				"metallicFactor":0,
				"roughnessFactor":0.5
			}
		},
		{
			"doubleSided":true,
			"name":"DeskLightPink",
			"pbrMetallicRoughness":{
				"baseColorFactor":[
					0.8000000715255737,
					0.450446754693985,
					0.5387042760848999,
					1
				],
				"metallicFactor":0,
				"roughnessFactor":0.5
			}
		},
		{
			"doubleSided":true,
			"name":"DeskBlack",
			"pbrMetallicRoughness":{
				"baseColorFactor":[
					0,
					0,
					0,
					1
				],
				"metallicFactor":0,
				"roughnessFactor":0.5
			}
		},
		{
			"doubleSided":true,
			"emissiveFactor":[
				0.4451947808265686,
				0.18452394008636475,
				0.05849310755729675
			],
			"name":"DeskDarkPink",
			"pbrMetallicRoughness":{
				"baseColorFactor":[
					0.1746184080839157,
					0.034658294171094894,
					0.13428732752799988,
					1
				],
				"metallicFactor":0,
				"roughnessFactor":0.5
			}
		},
		{
			"doubleSided":true,
			"name":"KeyboardMetal",
			"pbrMetallicRoughness":{
				"baseColorFactor":[
					0,
					0,
					0,
					1
				],
				"roughnessFactor":0.5
			}
		},
		{
			"doubleSided":true,
			"name":"KeyboardGrey",
			"pbrMetallicRoughness":{
				"baseColorFactor":[
					0.9822370409965515,
					0.9822370409965515,
					0.9822370409965515,
					1
				],
				"metallicFactor":0,
				"roughnessFactor":0.5
			}
		},
		{
			"doubleSided":true,
			"name":"White.001",
			"pbrMetallicRoughness":{
				"baseColorFactor":[
					0.800000011920929,
					0.800000011920929,
					0.800000011920929,
					1
				],
				"metallicFactor":0,
				"roughnessFactor":0.5
			}
		},
		{
			"doubleSided":true,
			"name":"UnderneathDesk",
			"pbrMetallicRoughness":{
				"baseColorFactor":[
					0.00326354312710464,
					0.004265806637704372,
					0.015104466117918491,
					1
				],
				"metallicFactor":0
			}
		},
		{
			"name":"WallShelf",
			"pbrMetallicRoughness":{
				"baseColorFactor":[
					0.31396982073783875,
					0.12604543566703796,
					0.19625817239284515,
					1
				],
				"metallicFactor":0
			}
		},
		{
			"doubleSided":true,
			"name":"MetallicBall",
			"pbrMetallicRoughness":{
				"baseColorFactor":[
					0.7734200358390808,
					0.7085410356521606,
					0.8000000715255737,
					1
				],
				"metallicFactor":0.800000011920929,
				"roughnessFactor":0.5
			}
		},
		{
			"name":"Office_Cha",
			"pbrMetallicRoughness":{
				"baseColorFactor":[
					0.8878909945487976,
					0.8878909945487976,
					0.8878909945487976,
					1
				],
				"metallicFactor":0,
				"roughnessFactor":0.9735999703407288
			}
		},
		{
			"name":"Office_Cha_1",
			"pbrMetallicRoughness":{
				"baseColorFactor":[
					0.03999999910593033,
					0.03999999910593033,
					0.03999999910593033,
					1
				],
				"metallicFactor":0,
				"roughnessFactor":0.9228000044822693
			}
		},
		{
			"doubleSided":true,
			"name":"WhiteSphere",
			"pbrMetallicRoughness":{
				"baseColorFactor":[
					0.800000011920929,
					0.800000011920929,
					0.800000011920929,
					1
				],
				"metallicFactor":0,
				"roughnessFactor":0.5
			}
		},
		{
			"doubleSided":true,
			"name":"Mouse",
			"pbrMetallicRoughness":{
				"baseColorFactor":[
					0.10798147320747375,
					0.11516287922859192,
					0.12370377033948898,
					1
				],
				"metallicFactor":0,
				"roughnessFactor":0.5
			}
		},
		{
			"doubleSided":true,
			"extensions":{
				"KHR_materials_sheen":{
					"sheenColorFactor":[
						1.0,
						1.0,
						1.0
					],
					"sheenRoughnessFactor":0.5
				}
			},
			"name":"BookShelf",
			"pbrMetallicRoughness":{
				"baseColorFactor":[
					0.7912676334381104,
					0.2455671727657318,
					0.3074313700199127,
					1
				],
				"metallicFactor":0.20000000298023224,
				"roughnessFactor":0.5
			}
		},
		{
			"doubleSided":true,
			"name":"BookBlue",
			"pbrMetallicRoughness":{
				"baseColorFactor":[
					0.011265191249549389,
					0.01952390931546688,
					0.19118618965148926,
					1
				],
				"metallicFactor":0,
				"roughnessFactor":0.5
			}
		},
		{
			"doubleSided":true,
			"name":"BookonShelfGreen",
			"pbrMetallicRoughness":{
				"baseColorFactor":[
					0.12444546818733215,
					0.19118593633174896,
					0.03686703369021416,
					1
				],
				"metallicFactor":0,
				"roughnessFactor":0.5
			}
		},
		{
			"doubleSided":true,
			"name":"DeskBookBrown",
			"pbrMetallicRoughness":{
				"baseColorFactor":[
					0.13286352157592773,
					0.027872269973158836,
					0.012924578972160816,
					1
				],
				"metallicFactor":0,
				"roughnessFactor":0.5
			}
		},
		{
			"doubleSided":true,
			"name":"Red",
			"pbrMetallicRoughness":{
				"baseColorFactor":[
					0.8713352084159851,
					0.010427752509713173,
					0.004495470318943262,
					1
				],
				"metallicFactor":0,
				"roughnessFactor":0.5
			}
		},
		{
			"doubleSided":true,
			"name":"Black",
			"pbrMetallicRoughness":{
				"baseColorFactor":[
					0,
					0,
					0,
					1
				],
				"metallicFactor":0,
				"roughnessFactor":0.5
			}
		},
		{
			"name":"TreeLeaves",
			"pbrMetallicRoughness":{
				"baseColorFactor":[
					0.06973974406719208,
					0.13562384247779846,
					0.020590540021657944,
					1
				],
				"metallicFactor":0
			}
		},
		{
			"name":"TreePot",
			"pbrMetallicRoughness":{
				"baseColorFactor":[
					1,
					0.899864912033081,
					0.7122612595558167,
					1
				],
				"metallicFactor":0
			}
		},
		{
			"name":"TreeGround",
			"pbrMetallicRoughness":{
				"baseColorFactor":[
					0.08649299293756485,
					0.04272773861885071,
					0.029133066534996033,
					1
				],
				"metallicFactor":0
			}
		},
		{
			"name":"mat9.001",
			"pbrMetallicRoughness":{
				"baseColorFactor":[
					0.06973974406719208,
					0.13562384247779846,
					0.020590540021657944,
					1
				],
				"metallicFactor":0
			}
		},
		{
			"doubleSided":true,
			"name":"Carpet",
			"pbrMetallicRoughness":{
				"baseColorFactor":[
					0.6519725918769836,
					0.9848827123641968,
					0.9848827123641968,
					1
				],
				"metallicFactor":0,
				"roughnessFactor":0.5
			}
		},
		{
			"doubleSided":true,
			"name":"Screenmetal.001",
			"pbrMetallicRoughness":{
				"baseColorFactor":[
					0.800000011920929,
					0.800000011920929,
					0.800000011920929,
					1
				],
				"roughnessFactor":0.5
			}
		},
		{
			"doubleSided":true,
			"name":"screen.001",
			"pbrMetallicRoughness":{
				"baseColorFactor":[
					0,
					0,
					0,
					1
				],
				"metallicFactor":0
			}
		},
		{
			"doubleSided":true,
			"name":"Walls",
			"pbrMetallicRoughness":{
				"baseColorFactor":[
					0.708367109298706,
					0.4853226840496063,
					0.37107428908348083,
					1
				],
				"metallicFactor":0,
				"roughnessFactor":0.5
			}
		},
		{
			"doubleSided":true,
			"name":"Floor",
			"pbrMetallicRoughness":{
				"baseColorFactor":[
					0.800000011920929,
					0.800000011920929,
					0.800000011920929,
					1
				],
				"metallicFactor":0
			}
		}
	],
	"meshes":[
		{
			"name":"Plane.004",
			"primitives":[
				{
					"attributes":{
						"POSITION":0,
						"NORMAL":1,
						"TEXCOORD_0":2,
						"TEXCOORD_1":3,
						"TEXCOORD_2":4,
						"TEXCOORD_3":5,
						"TEXCOORD_4":6,
						"TEXCOORD_5":7,
						"TEXCOORD_6":8
					},
					"indices":9,
					"material":0
				}
			]
		},
		{
			"name":"Cube.002",
			"primitives":[
				{
					"attributes":{
						"POSITION":10,
						"NORMAL":11,
						"TEXCOORD_0":12,
						"TEXCOORD_1":13,
						"TEXCOORD_2":14,
						"TEXCOORD_3":15,
						"TEXCOORD_4":16,
						"TEXCOORD_5":17
					},
					"indices":18,
					"material":1
				},
				{
					"attributes":{
						"POSITION":19,
						"NORMAL":20,
						"TEXCOORD_0":21,
						"TEXCOORD_1":22,
						"TEXCOORD_2":23,
						"TEXCOORD_3":24,
						"TEXCOORD_4":25,
						"TEXCOORD_5":26
					},
					"indices":27,
					"material":2
				},
				{
					"attributes":{
						"POSITION":28,
						"NORMAL":29,
						"TEXCOORD_0":30,
						"TEXCOORD_1":31,
						"TEXCOORD_2":32,
						"TEXCOORD_3":33,
						"TEXCOORD_4":34,
						"TEXCOORD_5":35
					},
					"indices":36,
					"material":3
				}
			]
		},
		{
			"name":"Plane.015",
			"primitives":[
				{
					"attributes":{
						"POSITION":37,
						"NORMAL":38,
						"TEXCOORD_0":39,
						"TEXCOORD_1":40,
						"TEXCOORD_2":41,
						"TEXCOORD_3":42,
						"TEXCOORD_4":43
					},
					"indices":44,
					"material":4
				},
				{
					"attributes":{
						"POSITION":45,
						"NORMAL":46,
						"TEXCOORD_0":47,
						"TEXCOORD_1":48,
						"TEXCOORD_2":49,
						"TEXCOORD_3":50,
						"TEXCOORD_4":51
					},
					"indices":52,
					"material":5
				},
				{
					"attributes":{
						"POSITION":53,
						"NORMAL":54,
						"TEXCOORD_0":55,
						"TEXCOORD_1":56,
						"TEXCOORD_2":57,
						"TEXCOORD_3":58,
						"TEXCOORD_4":59
					},
					"indices":60,
					"material":6
				}
			]
		},
		{
			"name":"Plane.023",
			"primitives":[
				{
					"attributes":{
						"POSITION":61,
						"NORMAL":62,
						"TEXCOORD_0":63,
						"TEXCOORD_1":64,
						"TEXCOORD_2":65,
						"TEXCOORD_3":66,
						"TEXCOORD_4":67
					},
					"indices":68,
					"material":7
				}
			]
		},
		{
			"name":"SM_Shelf:SM_Shelf1_1",
			"primitives":[
				{
					"attributes":{
						"POSITION":69,
						"NORMAL":70,
						"TEXCOORD_0":71,
						"TEXCOORD_1":72,
						"TEXCOORD_2":73,
						"TEXCOORD_3":74,
						"TEXCOORD_4":75,
						"TEXCOORD_5":76
					},
					"indices":77,
					"material":8
				}
			]
		},
		{
			"name":"Sphere",
			"primitives":[
				{
					"attributes":{
						"POSITION":78,
						"NORMAL":79,
						"TEXCOORD_0":80,
						"TEXCOORD_1":81,
						"TEXCOORD_2":82,
						"TEXCOORD_3":83,
						"TEXCOORD_4":84,
						"TEXCOORD_5":85,
						"TEXCOORD_6":86
					},
					"indices":87,
					"material":9
				}
			]
		},
		{
			"name":"Node-Mesh",
			"primitives":[
				{
					"attributes":{
						"POSITION":88,
						"NORMAL":89,
						"TEXCOORD_0":90,
						"TEXCOORD_1":91,
						"TEXCOORD_2":92,
						"TEXCOORD_3":93,
						"TEXCOORD_4":94,
						"TEXCOORD_5":95
					},
					"indices":96,
					"material":10
				},
				{
					"attributes":{
						"POSITION":97,
						"NORMAL":98,
						"TEXCOORD_0":99,
						"TEXCOORD_1":100,
						"TEXCOORD_2":101,
						"TEXCOORD_3":102,
						"TEXCOORD_4":103,
						"TEXCOORD_5":104
					},
					"indices":105,
					"material":11
				}
			]
		},
		{
			"name":"Sphere.001",
			"primitives":[
				{
					"attributes":{
						"POSITION":106,
						"NORMAL":107,
						"TEXCOORD_0":108,
						"TEXCOORD_1":109,
						"TEXCOORD_2":110,
						"TEXCOORD_3":111,
						"TEXCOORD_4":112,
						"TEXCOORD_5":113,
						"TEXCOORD_6":114
					},
					"indices":115,
					"material":12
				}
			]
		},
		{
			"name":"Cube.012",
			"primitives":[
				{
					"attributes":{
						"POSITION":116,
						"NORMAL":117,
						"TEXCOORD_0":118,
						"TEXCOORD_1":119,
						"TEXCOORD_2":120,
						"TEXCOORD_3":121,
						"TEXCOORD_4":122,
						"TEXCOORD_5":123,
						"TEXCOORD_6":124
					},
					"indices":125,
					"material":13
				}
			]
		},
		{
			"name":"Cube.013",
			"primitives":[
				{
					"attributes":{
						"POSITION":126,
						"NORMAL":127,
						"TEXCOORD_0":128,
						"TEXCOORD_1":129,
						"TEXCOORD_2":130,
						"TEXCOORD_3":131,
						"TEXCOORD_4":132,
						"TEXCOORD_5":133
					},
					"indices":134,
					"material":14
				}
			]
		},
		{
			"name":"Plane.013",
			"primitives":[
				{
					"attributes":{
						"POSITION":135,
						"NORMAL":136,
						"TEXCOORD_0":137,
						"TEXCOORD_1":138,
						"TEXCOORD_2":139,
						"TEXCOORD_3":140,
						"TEXCOORD_4":141
					},
					"indices":142,
					"material":6
				},
				{
					"attributes":{
						"POSITION":143,
						"NORMAL":144,
						"TEXCOORD_0":145,
						"TEXCOORD_1":146,
						"TEXCOORD_2":147,
						"TEXCOORD_3":148,
						"TEXCOORD_4":149
					},
					"indices":150,
					"material":15
				}
			]
		},
		{
			"name":"Plane.017",
			"primitives":[
				{
					"attributes":{
						"POSITION":151,
						"NORMAL":152,
						"TEXCOORD_0":153,
						"TEXCOORD_1":154,
						"TEXCOORD_2":155,
						"TEXCOORD_3":156,
						"TEXCOORD_4":157
					},
					"indices":142,
					"material":6
				},
				{
					"attributes":{
						"POSITION":158,
						"NORMAL":159,
						"TEXCOORD_0":160,
						"TEXCOORD_1":161,
						"TEXCOORD_2":162,
						"TEXCOORD_3":163,
						"TEXCOORD_4":164
					},
					"indices":165,
					"material":16
				}
			]
		},
		{
			"name":"Plane.018",
			"primitives":[
				{
					"attributes":{
						"POSITION":166,
						"NORMAL":167,
						"TEXCOORD_0":168,
						"TEXCOORD_1":169,
						"TEXCOORD_2":170,
						"TEXCOORD_3":171,
						"TEXCOORD_4":172
					},
					"indices":173,
					"material":6
				},
				{
					"attributes":{
						"POSITION":174,
						"NORMAL":175,
						"TEXCOORD_0":176,
						"TEXCOORD_1":177,
						"TEXCOORD_2":178,
						"TEXCOORD_3":179,
						"TEXCOORD_4":180
					},
					"indices":181,
					"material":17
				}
			]
		},
		{
			"name":"Plane.019",
			"primitives":[
				{
					"attributes":{
						"POSITION":182,
						"NORMAL":183,
						"TEXCOORD_0":184,
						"TEXCOORD_1":185,
						"TEXCOORD_2":186,
						"TEXCOORD_3":187,
						"TEXCOORD_4":188
					},
					"indices":189,
					"material":6
				},
				{
					"attributes":{
						"POSITION":190,
						"NORMAL":191,
						"TEXCOORD_0":192,
						"TEXCOORD_1":193,
						"TEXCOORD_2":194,
						"TEXCOORD_3":195,
						"TEXCOORD_4":196
					},
					"indices":197,
					"material":15
				}
			]
		},
		{
			"name":"Plane.021",
			"primitives":[
				{
					"attributes":{
						"POSITION":198,
						"NORMAL":199,
						"TEXCOORD_0":200,
						"TEXCOORD_1":201,
						"TEXCOORD_2":202,
						"TEXCOORD_3":203,
						"TEXCOORD_4":204
					},
					"indices":189,
					"material":6
				},
				{
					"attributes":{
						"POSITION":205,
						"NORMAL":206,
						"TEXCOORD_0":207,
						"TEXCOORD_1":208,
						"TEXCOORD_2":209,
						"TEXCOORD_3":210,
						"TEXCOORD_4":211
					},
					"indices":212,
					"material":18
				}
			]
		},
		{
			"name":"Plane.022",
			"primitives":[
				{
					"attributes":{
						"POSITION":213,
						"NORMAL":214,
						"TEXCOORD_0":215,
						"TEXCOORD_1":216,
						"TEXCOORD_2":217,
						"TEXCOORD_3":218,
						"TEXCOORD_4":219
					},
					"indices":189,
					"material":6
				},
				{
					"attributes":{
						"POSITION":220,
						"NORMAL":221,
						"TEXCOORD_0":222,
						"TEXCOORD_1":223,
						"TEXCOORD_2":224,
						"TEXCOORD_3":225,
						"TEXCOORD_4":226
					},
					"indices":227,
					"material":16
				}
			]
		},
		{
			"name":"Plane.024",
			"primitives":[
				{
					"attributes":{
						"POSITION":228,
						"NORMAL":229,
						"TEXCOORD_0":230,
						"TEXCOORD_1":231,
						"TEXCOORD_2":232,
						"TEXCOORD_3":233,
						"TEXCOORD_4":234
					},
					"indices":189,
					"material":6
				},
				{
					"attributes":{
						"POSITION":235,
						"NORMAL":236,
						"TEXCOORD_0":237,
						"TEXCOORD_1":238,
						"TEXCOORD_2":239,
						"TEXCOORD_3":240,
						"TEXCOORD_4":241
					},
					"indices":197,
					"material":19
				}
			]
		},
		{
			"name":"Plane.027",
			"primitives":[
				{
					"attributes":{
						"POSITION":242,
						"NORMAL":243,
						"TEXCOORD_0":244,
						"TEXCOORD_1":245,
						"TEXCOORD_2":246,
						"TEXCOORD_3":247,
						"TEXCOORD_4":248
					},
					"indices":189,
					"material":6
				},
				{
					"attributes":{
						"POSITION":249,
						"NORMAL":250,
						"TEXCOORD_0":251,
						"TEXCOORD_1":252,
						"TEXCOORD_2":253,
						"TEXCOORD_3":254,
						"TEXCOORD_4":255
					},
					"indices":227,
					"material":19
				}
			]
		},
		{
			"name":"Plane.028",
			"primitives":[
				{
					"attributes":{
						"POSITION":256,
						"NORMAL":257,
						"TEXCOORD_0":258,
						"TEXCOORD_1":259,
						"TEXCOORD_2":260,
						"TEXCOORD_3":261,
						"TEXCOORD_4":262
					},
					"indices":189,
					"material":6
				},
				{
					"attributes":{
						"POSITION":263,
						"NORMAL":264,
						"TEXCOORD_0":265,
						"TEXCOORD_1":266,
						"TEXCOORD_2":267,
						"TEXCOORD_3":268,
						"TEXCOORD_4":269
					},
					"indices":270,
					"material":19
				}
			]
		},
		{
			"name":"mesh31856083.001",
			"primitives":[
				{
					"attributes":{
						"POSITION":271,
						"NORMAL":272,
						"TEXCOORD_0":273,
						"TEXCOORD_1":274,
						"TEXCOORD_2":275,
						"TEXCOORD_3":276,
						"TEXCOORD_4":277
					},
					"indices":278,
					"material":20
				},
				{
					"attributes":{
						"POSITION":279,
						"NORMAL":280,
						"TEXCOORD_0":281,
						"TEXCOORD_1":282,
						"TEXCOORD_2":283,
						"TEXCOORD_3":284,
						"TEXCOORD_4":285
					},
					"indices":286,
					"material":21
				},
				{
					"attributes":{
						"POSITION":287,
						"NORMAL":288,
						"TEXCOORD_0":289,
						"TEXCOORD_1":290,
						"TEXCOORD_2":291,
						"TEXCOORD_3":292,
						"TEXCOORD_4":293
					},
					"indices":294,
					"material":20
				}
			]
		},
		{
			"name":"mesh24448074",
			"primitives":[
				{
					"attributes":{
						"POSITION":295,
						"NORMAL":296,
						"TEXCOORD_0":297,
						"TEXCOORD_1":298,
						"TEXCOORD_2":299,
						"TEXCOORD_3":300,
						"TEXCOORD_4":301,
						"TEXCOORD_5":302
					},
					"indices":303,
					"material":20
				},
				{
					"attributes":{
						"POSITION":304,
						"NORMAL":305,
						"TEXCOORD_0":306,
						"TEXCOORD_1":307,
						"TEXCOORD_2":308,
						"TEXCOORD_3":309,
						"TEXCOORD_4":310,
						"TEXCOORD_5":311
					},
					"indices":312,
					"material":21
				},
				{
					"attributes":{
						"POSITION":313,
						"NORMAL":314,
						"TEXCOORD_0":315,
						"TEXCOORD_1":316,
						"TEXCOORD_2":317,
						"TEXCOORD_3":318,
						"TEXCOORD_4":319,
						"TEXCOORD_5":320
					},
					"indices":321,
					"material":22
				},
				{
					"attributes":{
						"POSITION":322,
						"NORMAL":323,
						"TEXCOORD_0":324,
						"TEXCOORD_1":325,
						"TEXCOORD_2":326,
						"TEXCOORD_3":327,
						"TEXCOORD_4":328,
						"TEXCOORD_5":329
					},
					"indices":330,
					"material":23
				}
			]
		},
		{
			"name":"Cube.001",
			"primitives":[
				{
					"attributes":{
						"POSITION":331,
						"NORMAL":332,
						"TEXCOORD_0":333,
						"TEXCOORD_1":334,
						"TEXCOORD_2":335,
						"TEXCOORD_3":336,
						"TEXCOORD_4":337,
						"TEXCOORD_5":338
					},
					"indices":339,
					"material":24
				}
			]
		},
		{
			"name":"Plane.003",
			"primitives":[
				{
					"attributes":{
						"POSITION":340,
						"NORMAL":341,
						"TEXCOORD_0":342,
						"TEXCOORD_1":343,
						"TEXCOORD_2":344,
						"TEXCOORD_3":345,
						"TEXCOORD_4":346,
						"TEXCOORD_5":347
					},
					"indices":348,
					"material":25
				},
				{
					"attributes":{
						"POSITION":349,
						"NORMAL":350,
						"TEXCOORD_0":351,
						"TEXCOORD_1":352,
						"TEXCOORD_2":353,
						"TEXCOORD_3":354,
						"TEXCOORD_4":355,
						"TEXCOORD_5":356
					},
					"indices":357,
					"material":26
				}
			]
		},
		{
			"name":"Plane",
			"primitives":[
				{
					"attributes":{
						"POSITION":358,
						"NORMAL":359,
						"TEXCOORD_0":360,
						"TEXCOORD_1":361,
						"TEXCOORD_2":362,
						"TEXCOORD_3":363,
						"TEXCOORD_4":364
					},
					"indices":365,
					"material":27
				},
				{
					"attributes":{
						"POSITION":366,
						"NORMAL":367,
						"TEXCOORD_0":368,
						"TEXCOORD_1":369,
						"TEXCOORD_2":370,
						"TEXCOORD_3":371,
						"TEXCOORD_4":372
					},
					"indices":373,
					"material":28
				}
			]
		}
	],
	"accessors":[
		{
			"bufferView":0,
			"componentType":5126,
			"count":56,
			"max":[
				0.7240789532661438,
				1.4174985885620117,
				0.5117039084434509
			],
			"min":[
				-0.185185968875885,
				0,
				-0.5117037892341614
			],
			"type":"VEC3"
		},
		{
			"bufferView":1,
			"componentType":5126,
			"count":56,
			"type":"VEC3"
		},
		{
			"bufferView":2,
			"componentType":5126,
			"count":56,
			"type":"VEC2"
		},
		{
			"bufferView":3,
			"componentType":5126,
			"count":56,
			"type":"VEC2"
		},
		{
			"bufferView":4,
			"componentType":5126,
			"count":56,
			"type":"VEC2"
		},
		{
			"bufferView":5,
			"componentType":5126,
			"count":56,
			"type":"VEC2"
		},
		{
			"bufferView":6,
			"componentType":5126,
			"count":56,
			"type":"VEC2"
		},
		{
			"bufferView":7,
			"componentType":5126,
			"count":56,
			"type":"VEC2"
		},
		{
			"bufferView":8,
			"componentType":5126,
			"count":56,
			"type":"VEC2"
		},
		{
			"bufferView":9,
			"componentType":5123,
			"count":126,
			"type":"SCALAR"
		},
		{
			"bufferView":10,
			"componentType":5126,
			"count":400,
			"max":[
				1.5598201751708984,
				1.839463472366333,
				3.9901275634765625
			],
			"min":[
				-3.992417812347412,
				0.013313114643096924,
				-1.4731969833374023
			],
			"type":"VEC3"
		},
		{
			"bufferView":11,
			"componentType":5126,
			"count":400,
			"type":"VEC3"
		},
		{
			"bufferView":12,
			"componentType":5126,
			"count":400,
			"type":"VEC2"
		},
		{
			"bufferView":13,
			"componentType":5126,
			"count":400,
			"type":"VEC2"
		},
		{
			"bufferView":14,
			"componentType":5126,
			"count":400,
			"type":"VEC2"
		},
		{
			"bufferView":15,
			"componentType":5126,
			"count":400,
			"type":"VEC2"
		},
		{
			"bufferView":16,
			"componentType":5126,
			"count":400,
			"type":"VEC2"
		},
		{
			"bufferView":17,
			"componentType":5126,
			"count":400,
			"type":"VEC2"
		},
		{
			"bufferView":18,
			"componentType":5123,
			"count":600,
			"type":"SCALAR"
		},
		{
			"bufferView":19,
			"componentType":5126,
			"count":144,
			"max":[
				0.8930130004882812,
				1.572869896888733,
				3.29606556892395
			],
			"min":[
				-2.7370152473449707,
				0.27373194694519043,
				-0.21779441833496094
			],
			"type":"VEC3"
		},
		{
			"bufferView":20,
			"componentType":5126,
			"count":144,
			"type":"VEC3"
		},
		{
			"bufferView":21,
			"componentType":5126,
			"count":144,
			"type":"VEC2"
		},
		{
			"bufferView":22,
			"componentType":5126,
			"count":144,
			"type":"VEC2"
		},
		{
			"bufferView":23,
			"componentType":5126,
			"count":144,
			"type":"VEC2"
		},
		{
			"bufferView":24,
			"componentType":5126,
			"count":144,
			"type":"VEC2"
		},
		{
			"bufferView":25,
			"componentType":5126,
			"count":144,
			"type":"VEC2"
		},
		{
			"bufferView":26,
			"componentType":5126,
			"count":144,
			"type":"VEC2"
		},
		{
			"bufferView":27,
			"componentType":5123,
			"count":216,
			"type":"SCALAR"
		},
		{
			"bufferView":28,
			"componentType":5126,
			"count":48,
			"max":[
				1.8055298328399658,
				1.9471603631973267,
				4.308253288269043
			],
			"min":[
				-3.9547505378723145,
				1.8573707342147827,
				-1.8495081663131714
			],
			"type":"VEC3"
		},
		{
			"bufferView":29,
			"componentType":5126,
			"count":48,
			"type":"VEC3"
		},
		{
			"bufferView":30,
			"componentType":5126,
			"count":48,
			"type":"VEC2"
		},
		{
			"bufferView":31,
			"componentType":5126,
			"count":48,
			"type":"VEC2"
		},
		{
			"bufferView":32,
			"componentType":5126,
			"count":48,
			"type":"VEC2"
		},
		{
			"bufferView":33,
			"componentType":5126,
			"count":48,
			"type":"VEC2"
		},
		{
			"bufferView":34,
			"componentType":5126,
			"count":48,
			"type":"VEC2"
		},
		{
			"bufferView":35,
			"componentType":5126,
			"count":48,
			"type":"VEC2"
		},
		{
			"bufferView":36,
			"componentType":5123,
			"count":72,
			"type":"SCALAR"
		},
		{
			"bufferView":37,
			"componentType":5126,
			"count":96,
			"max":[
				1.3806670904159546,
				0.03181889280676842,
				0.34614595770835876
			],
			"min":[
				-1.3806670904159546,
				0,
				-0.3724728226661682
			],
			"type":"VEC3"
		},
		{
			"bufferView":38,
			"componentType":5126,
			"count":96,
			"type":"VEC3"
		},
		{
			"bufferView":39,
			"componentType":5126,
			"count":96,
			"type":"VEC2"
		},
		{
			"bufferView":40,
			"componentType":5126,
			"count":96,
			"type":"VEC2"
		},
		{
			"bufferView":41,
			"componentType":5126,
			"count":96,
			"type":"VEC2"
		},
		{
			"bufferView":42,
			"componentType":5126,
			"count":96,
			"type":"VEC2"
		},
		{
			"bufferView":43,
			"componentType":5126,
			"count":96,
			"type":"VEC2"
		},
		{
			"bufferView":44,
			"componentType":5123,
			"count":180,
			"type":"SCALAR"
		},
		{
			"bufferView":45,
			"componentType":5126,
			"count":7628,
			"max":[
				1.3348571062088013,
				0.04098859429359436,
				0.3089781403541565
			],
			"min":[
				-1.3364468812942505,
				0.025346120819449425,
				-0.3290153443813324
			],
			"type":"VEC3"
		},
		{
			"bufferView":46,
			"componentType":5126,
			"count":7628,
			"type":"VEC3"
		},
		{
			"bufferView":47,
			"componentType":5126,
			"count":7628,
			"type":"VEC2"
		},
		{
			"bufferView":48,
			"componentType":5126,
			"count":7628,
			"type":"VEC2"
		},
		{
			"bufferView":49,
			"componentType":5126,
			"count":7628,
			"type":"VEC2"
		},
		{
			"bufferView":50,
			"componentType":5126,
			"count":7628,
			"type":"VEC2"
		},
		{
			"bufferView":51,
			"componentType":5126,
			"count":7628,
			"type":"VEC2"
		},
		{
			"bufferView":52,
			"componentType":5123,
			"count":13980,
			"type":"SCALAR"
		},
		{
			"bufferView":53,
			"componentType":5126,
			"count":96,
			"max":[
				1.378981590270996,
				0.03181886300444603,
				-0.3786742389202118
			],
			"min":[
				-1.378981351852417,
				-0.03321481868624687,
				-0.5064167976379395
			],
			"type":"VEC3"
		},
		{
			"bufferView":54,
			"componentType":5126,
			"count":96,
			"type":"VEC3"
		},
		{
			"bufferView":55,
			"componentType":5126,
			"count":96,
			"type":"VEC2"
		},
		{
			"bufferView":56,
			"componentType":5126,
			"count":96,
			"type":"VEC2"
		},
		{
			"bufferView":57,
			"componentType":5126,
			"count":96,
			"type":"VEC2"
		},
		{
			"bufferView":58,
			"componentType":5126,
			"count":96,
			"type":"VEC2"
		},
		{
			"bufferView":59,
			"componentType":5126,
			"count":96,
			"type":"VEC2"
		},
		{
			"bufferView":60,
			"componentType":5123,
			"count":180,
			"type":"SCALAR"
		},
		{
			"bufferView":61,
			"componentType":5126,
			"count":24,
			"max":[
				0.5272471904754639,
				1.8674908876419067,
				0.5272471904754639
			],
			"min":[
				-0.5272471904754639,
				0,
				-0.5272471904754639
			],
			"type":"VEC3"
		},
		{
			"bufferView":62,
			"componentType":5126,
			"count":24,
			"type":"VEC3"
		},
		{
			"bufferView":63,
			"componentType":5126,
			"count":24,
			"type":"VEC2"
		},
		{
			"bufferView":64,
			"componentType":5126,
			"count":24,
			"type":"VEC2"
		},
		{
			"bufferView":65,
			"componentType":5126,
			"count":24,
			"type":"VEC2"
		},
		{
			"bufferView":66,
			"componentType":5126,
			"count":24,
			"type":"VEC2"
		},
		{
			"bufferView":67,
			"componentType":5126,
			"count":24,
			"type":"VEC2"
		},
		{
			"bufferView":68,
			"componentType":5123,
			"count":36,
			"type":"SCALAR"
		},
		{
			"bufferView":69,
			"componentType":5126,
			"count":288,
			"max":[
				1.034680962562561,
				0.334016352891922,
				0.234725683927536
			],
			"min":[
				-1.034682035446167,
				0,
				-0.23472453653812408
			],
			"type":"VEC3"
		},
		{
			"bufferView":70,
			"componentType":5126,
			"count":288,
			"type":"VEC3"
		},
		{
			"bufferView":71,
			"componentType":5126,
			"count":288,
			"type":"VEC2"
		},
		{
			"bufferView":72,
			"componentType":5126,
			"count":288,
			"type":"VEC2"
		},
		{
			"bufferView":73,
			"componentType":5126,
			"count":288,
			"type":"VEC2"
		},
		{
			"bufferView":74,
			"componentType":5126,
			"count":288,
			"type":"VEC2"
		},
		{
			"bufferView":75,
			"componentType":5126,
			"count":288,
			"type":"VEC2"
		},
		{
			"bufferView":76,
			"componentType":5126,
			"count":288,
			"type":"VEC2"
		},
		{
			"bufferView":77,
			"componentType":5123,
			"count":288,
			"type":"SCALAR"
		},
		{
			"bufferView":78,
			"componentType":5126,
			"count":1984,
			"max":[
				0.16203440725803375,
				0.32406890392303467,
				0.16203436255455017
			],
			"min":[
				-0.1620343029499054,
				0,
				-0.16203424334526062
			],
			"type":"VEC3"
		},
		{
			"bufferView":79,
			"componentType":5126,
			"count":1984,
			"type":"VEC3"
		},
		{
			"bufferView":80,
			"componentType":5126,
			"count":1984,
			"type":"VEC2"
		},
		{
			"bufferView":81,
			"componentType":5126,
			"count":1984,
			"type":"VEC2"
		},
		{
			"bufferView":82,
			"componentType":5126,
			"count":1984,
			"type":"VEC2"
		},
		{
			"bufferView":83,
			"componentType":5126,
			"count":1984,
			"type":"VEC2"
		},
		{
			"bufferView":84,
			"componentType":5126,
			"count":1984,
			"type":"VEC2"
		},
		{
			"bufferView":85,
			"componentType":5126,
			"count":1984,
			"type":"VEC2"
		},
		{
			"bufferView":86,
			"componentType":5126,
			"count":1984,
			"type":"VEC2"
		},
		{
			"bufferView":87,
			"componentType":5123,
			"count":2880,
			"type":"SCALAR"
		},
		{
			"bufferView":88,
			"componentType":5126,
			"count":255,
			"max":[
				0.812479555606842,
				2.915076732635498,
				0.8534947037696838
			],
			"min":[
				-0.7824053168296814,
				1.3910375833511353,
				-0.9212114810943604
			],
			"type":"VEC3"
		},
		{
			"bufferView":89,
			"componentType":5126,
			"count":255,
			"type":"VEC3"
		},
		{
			"bufferView":90,
			"componentType":5126,
			"count":255,
			"type":"VEC2"
		},
		{
			"bufferView":91,
			"componentType":5126,
			"count":255,
			"type":"VEC2"
		},
		{
			"bufferView":92,
			"componentType":5126,
			"count":255,
			"type":"VEC2"
		},
		{
			"bufferView":93,
			"componentType":5126,
			"count":255,
			"type":"VEC2"
		},
		{
			"bufferView":94,
			"componentType":5126,
			"count":255,
			"type":"VEC2"
		},
		{
			"bufferView":95,
			"componentType":5126,
			"count":255,
			"type":"VEC2"
		},
		{
			"bufferView":96,
			"componentType":5123,
			"count":255,
			"type":"SCALAR"
		},
		{
			"bufferView":97,
			"componentType":5126,
			"count":354,
			"max":[
				1.0861883163452148,
				1.51922607421875,
				1.046004056930542
			],
			"min":[
				-1.046342372894287,
				0.12057878077030182,
				-1.08652663230896
			],
			"type":"VEC3"
		},
		{
			"bufferView":98,
			"componentType":5126,
			"count":354,
			"type":"VEC3"
		},
		{
			"bufferView":99,
			"componentType":5126,
			"count":354,
			"type":"VEC2"
		},
		{
			"bufferView":100,
			"componentType":5126,
			"count":354,
			"type":"VEC2"
		},
		{
			"bufferView":101,
			"componentType":5126,
			"count":354,
			"type":"VEC2"
		},
		{
			"bufferView":102,
			"componentType":5126,
			"count":354,
			"type":"VEC2"
		},
		{
			"bufferView":103,
			"componentType":5126,
			"count":354,
			"type":"VEC2"
		},
		{
			"bufferView":104,
			"componentType":5126,
			"count":354,
			"type":"VEC2"
		},
		{
			"bufferView":105,
			"componentType":5123,
			"count":354,
			"type":"SCALAR"
		},
		{
			"bufferView":106,
			"componentType":5126,
			"count":1984,
			"max":[
				0.2838954031467438,
				0.5677909851074219,
				0.2838953137397766
			],
			"min":[
				-0.28389522433280945,
				0,
				-0.2838951349258423
			],
			"type":"VEC3"
		},
		{
			"bufferView":107,
			"componentType":5126,
			"count":1984,
			"type":"VEC3"
		},
		{
			"bufferView":108,
			"componentType":5126,
			"count":1984,
			"type":"VEC2"
		},
		{
			"bufferView":109,
			"componentType":5126,
			"count":1984,
			"type":"VEC2"
		},
		{
			"bufferView":110,
			"componentType":5126,
			"count":1984,
			"type":"VEC2"
		},
		{
			"bufferView":111,
			"componentType":5126,
			"count":1984,
			"type":"VEC2"
		},
		{
			"bufferView":112,
			"componentType":5126,
			"count":1984,
			"type":"VEC2"
		},
		{
			"bufferView":113,
			"componentType":5126,
			"count":1984,
			"type":"VEC2"
		},
		{
			"bufferView":114,
			"componentType":5126,
			"count":1984,
			"type":"VEC2"
		},
		{
			"bufferView":115,
			"componentType":5123,
			"count":2880,
			"type":"SCALAR"
		},
		{
			"bufferView":116,
			"componentType":5126,
			"count":120,
			"max":[
				0.13840556144714355,
				0.09446217864751816,
				0.23502616584300995
			],
			"min":[
				-0.13840556144714355,
				0.007144533097743988,
				-0.23502475023269653
			],
			"type":"VEC3"
		},
		{
			"bufferView":117,
			"componentType":5126,
			"count":120,
			"type":"VEC3"
		},
		{
			"bufferView":118,
			"componentType":5126,
			"count":120,
			"type":"VEC2"
		},
		{
			"bufferView":119,
			"componentType":5126,
			"count":120,
			"type":"VEC2"
		},
		{
			"bufferView":120,
			"componentType":5126,
			"count":120,
			"type":"VEC2"
		},
		{
			"bufferView":121,
			"componentType":5126,
			"count":120,
			"type":"VEC2"
		},
		{
			"bufferView":122,
			"componentType":5126,
			"count":120,
			"type":"VEC2"
		},
		{
			"bufferView":123,
			"componentType":5126,
			"count":120,
			"type":"VEC2"
		},
		{
			"bufferView":124,
			"componentType":5126,
			"count":120,
			"type":"VEC2"
		},
		{
			"bufferView":125,
			"componentType":5123,
			"count":180,
			"type":"SCALAR"
		},
		{
			"bufferView":126,
			"componentType":5126,
			"count":336,
			"max":[
				0.5355567336082458,
				4.15235710144043,
				0.9180972576141357
			],
			"min":[
				-0.5355567336082458,
				-0.3825404942035675,
				-0.9180972576141357
			],
			"type":"VEC3"
		},
		{
			"bufferView":127,
			"componentType":5126,
			"count":336,
			"type":"VEC3"
		},
		{
			"bufferView":128,
			"componentType":5126,
			"count":336,
			"type":"VEC2"
		},
		{
			"bufferView":129,
			"componentType":5126,
			"count":336,
			"type":"VEC2"
		},
		{
			"bufferView":130,
			"componentType":5126,
			"count":336,
			"type":"VEC2"
		},
		{
			"bufferView":131,
			"componentType":5126,
			"count":336,
			"type":"VEC2"
		},
		{
			"bufferView":132,
			"componentType":5126,
			"count":336,
			"type":"VEC2"
		},
		{
			"bufferView":133,
			"componentType":5126,
			"count":336,
			"type":"VEC2"
		},
		{
			"bufferView":134,
			"componentType":5123,
			"count":504,
			"type":"SCALAR"
		},
		{
			"bufferView":135,
			"componentType":5126,
			"count":44,
			"max":[
				0.22652260959148407,
				0.11888843029737473,
				0.34121403098106384
			],
			"min":[
				-0.24385853111743927,
				0.012540005147457123,
				-0.34121403098106384
			],
			"type":"VEC3"
		},
		{
			"bufferView":136,
			"componentType":5126,
			"count":44,
			"type":"VEC3"
		},
		{
			"bufferView":137,
			"componentType":5126,
			"count":44,
			"type":"VEC2"
		},
		{
			"bufferView":138,
			"componentType":5126,
			"count":44,
			"type":"VEC2"
		},
		{
			"bufferView":139,
			"componentType":5126,
			"count":44,
			"type":"VEC2"
		},
		{
			"bufferView":140,
			"componentType":5126,
			"count":44,
			"type":"VEC2"
		},
		{
			"bufferView":141,
			"componentType":5126,
			"count":44,
			"type":"VEC2"
		},
		{
			"bufferView":142,
			"componentType":5123,
			"count":66,
			"type":"SCALAR"
		},
		{
			"bufferView":143,
			"componentType":5126,
			"count":76,
			"max":[
				0.24136346578598022,
				0.1314941942691803,
				0.34121403098106384
			],
			"min":[
				-0.24385853111743927,
				-6.577018939424306e-05,
				-0.34121403098106384
			],
			"type":"VEC3"
		},
		{
			"bufferView":144,
			"componentType":5126,
			"count":76,
			"type":"VEC3"
		},
		{
			"bufferView":145,
			"componentType":5126,
			"count":76,
			"type":"VEC2"
		},
		{
			"bufferView":146,
			"componentType":5126,
			"count":76,
			"type":"VEC2"
		},
		{
			"bufferView":147,
			"componentType":5126,
			"count":76,
			"type":"VEC2"
		},
		{
			"bufferView":148,
			"componentType":5126,
			"count":76,
			"type":"VEC2"
		},
		{
			"bufferView":149,
			"componentType":5126,
			"count":76,
			"type":"VEC2"
		},
		{
			"bufferView":150,
			"componentType":5123,
			"count":114,
			"type":"SCALAR"
		},
		{
			"bufferView":151,
			"componentType":5126,
			"count":44,
			"max":[
				0.22652260959148407,
				0.11888843029737473,
				0.34121403098106384
			],
			"min":[
				-0.24385853111743927,
				0.012540005147457123,
				-0.34121403098106384
			],
			"type":"VEC3"
		},
		{
			"bufferView":152,
			"componentType":5126,
			"count":44,
			"type":"VEC3"
		},
		{
			"bufferView":153,
			"componentType":5126,
			"count":44,
			"type":"VEC2"
		},
		{
			"bufferView":154,
			"componentType":5126,
			"count":44,
			"type":"VEC2"
		},
		{
			"bufferView":155,
			"componentType":5126,
			"count":44,
			"type":"VEC2"
		},
		{
			"bufferView":156,
			"componentType":5126,
			"count":44,
			"type":"VEC2"
		},
		{
			"bufferView":157,
			"componentType":5126,
			"count":44,
			"type":"VEC2"
		},
		{
			"bufferView":158,
			"componentType":5126,
			"count":76,
			"max":[
				0.24136346578598022,
				0.1314941942691803,
				0.34121403098106384
			],
			"min":[
				-0.24385853111743927,
				-6.577018939424306e-05,
				-0.34121403098106384
			],
			"type":"VEC3"
		},
		{
			"bufferView":159,
			"componentType":5126,
			"count":76,
			"type":"VEC3"
		},
		{
			"bufferView":160,
			"componentType":5126,
			"count":76,
			"type":"VEC2"
		},
		{
			"bufferView":161,
			"componentType":5126,
			"count":76,
			"type":"VEC2"
		},
		{
			"bufferView":162,
			"componentType":5126,
			"count":76,
			"type":"VEC2"
		},
		{
			"bufferView":163,
			"componentType":5126,
			"count":76,
			"type":"VEC2"
		},
		{
			"bufferView":164,
			"componentType":5126,
			"count":76,
			"type":"VEC2"
		},
		{
			"bufferView":165,
			"componentType":5123,
			"count":114,
			"type":"SCALAR"
		},
		{
			"bufferView":166,
			"componentType":5126,
			"count":44,
			"max":[
				0.22652260959148407,
				0.11888843029737473,
				0.34121403098106384
			],
			"min":[
				-0.24385853111743927,
				0.012540005147457123,
				-0.34121403098106384
			],
			"type":"VEC3"
		},
		{
			"bufferView":167,
			"componentType":5126,
			"count":44,
			"type":"VEC3"
		},
		{
			"bufferView":168,
			"componentType":5126,
			"count":44,
			"type":"VEC2"
		},
		{
			"bufferView":169,
			"componentType":5126,
			"count":44,
			"type":"VEC2"
		},
		{
			"bufferView":170,
			"componentType":5126,
			"count":44,
			"type":"VEC2"
		},
		{
			"bufferView":171,
			"componentType":5126,
			"count":44,
			"type":"VEC2"
		},
		{
			"bufferView":172,
			"componentType":5126,
			"count":44,
			"type":"VEC2"
		},
		{
			"bufferView":173,
			"componentType":5123,
			"count":66,
			"type":"SCALAR"
		},
		{
			"bufferView":174,
			"componentType":5126,
			"count":76,
			"max":[
				0.24136346578598022,
				0.1314941942691803,
				0.34121403098106384
			],
			"min":[
				-0.24385853111743927,
				-6.577018939424306e-05,
				-0.34121403098106384
			],
			"type":"VEC3"
		},
		{
			"bufferView":175,
			"componentType":5126,
			"count":76,
			"type":"VEC3"
		},
		{
			"bufferView":176,
			"componentType":5126,
			"count":76,
			"type":"VEC2"
		},
		{
			"bufferView":177,
			"componentType":5126,
			"count":76,
			"type":"VEC2"
		},
		{
			"bufferView":178,
			"componentType":5126,
			"count":76,
			"type":"VEC2"
		},
		{
			"bufferView":179,
			"componentType":5126,
			"count":76,
			"type":"VEC2"
		},
		{
			"bufferView":180,
			"componentType":5126,
			"count":76,
			"type":"VEC2"
		},
		{
			"bufferView":181,
			"componentType":5123,
			"count":114,
			"type":"SCALAR"
		},
		{
			"bufferView":182,
			"componentType":5126,
			"count":44,
			"max":[
				0.19652613997459412,
				0.10314501821994781,
				0.2960299551486969
			],
			"min":[
				-0.21156640350818634,
				0.010879436507821083,
				-0.2960299551486969
			],
			"type":"VEC3"
		},
		{
			"bufferView":183,
			"componentType":5126,
			"count":44,
			"type":"VEC3"
		},
		{
			"bufferView":184,
			"componentType":5126,
			"count":44,
			"type":"VEC2"
		},
		{
			"bufferView":185,
			"componentType":5126,
			"count":44,
			"type":"VEC2"
		},
		{
			"bufferView":186,
			"componentType":5126,
			"count":44,
			"type":"VEC2"
		},
		{
			"bufferView":187,
			"componentType":5126,
			"count":44,
			"type":"VEC2"
		},
		{
			"bufferView":188,
			"componentType":5126,
			"count":44,
			"type":"VEC2"
		},
		{
			"bufferView":189,
			"componentType":5123,
			"count":66,
			"type":"SCALAR"
		},
		{
			"bufferView":190,
			"componentType":5126,
			"count":76,
			"max":[
				0.20940174162387848,
				0.11408151686191559,
				0.2960299551486969
			],
			"min":[
				-0.21156640350818634,
				-5.7060788094531745e-05,
				-0.2960299551486969
			],
			"type":"VEC3"
		},
		{
			"bufferView":191,
			"componentType":5126,
			"count":76,
			"type":"VEC3"
		},
		{
			"bufferView":192,
			"componentType":5126,
			"count":76,
			"type":"VEC2"
		},
		{
			"bufferView":193,
			"componentType":5126,
			"count":76,
			"type":"VEC2"
		},
		{
			"bufferView":194,
			"componentType":5126,
			"count":76,
			"type":"VEC2"
		},
		{
			"bufferView":195,
			"componentType":5126,
			"count":76,
			"type":"VEC2"
		},
		{
			"bufferView":196,
			"componentType":5126,
			"count":76,
			"type":"VEC2"
		},
		{
			"bufferView":197,
			"componentType":5123,
			"count":114,
			"type":"SCALAR"
		},
		{
			"bufferView":198,
			"componentType":5126,
			"count":44,
			"max":[
				0.19652613997459412,
				0.10314501821994781,
				0.2960299551486969
			],
			"min":[
				-0.21156640350818634,
				0.010879436507821083,
				-0.2960299551486969
			],
			"type":"VEC3"
		},
		{
			"bufferView":199,
			"componentType":5126,
			"count":44,
			"type":"VEC3"
		},
		{
			"bufferView":200,
			"componentType":5126,
			"count":44,
			"type":"VEC2"
		},
		{
			"bufferView":201,
			"componentType":5126,
			"count":44,
			"type":"VEC2"
		},
		{
			"bufferView":202,
			"componentType":5126,
			"count":44,
			"type":"VEC2"
		},
		{
			"bufferView":203,
			"componentType":5126,
			"count":44,
			"type":"VEC2"
		},
		{
			"bufferView":204,
			"componentType":5126,
			"count":44,
			"type":"VEC2"
		},
		{
			"bufferView":205,
			"componentType":5126,
			"count":76,
			"max":[
				0.20940174162387848,
				0.11408151686191559,
				0.2960299551486969
			],
			"min":[
				-0.21156640350818634,
				-5.7060788094531745e-05,
				-0.2960299551486969
			],
			"type":"VEC3"
		},
		{
			"bufferView":206,
			"componentType":5126,
			"count":76,
			"type":"VEC3"
		},
		{
			"bufferView":207,
			"componentType":5126,
			"count":76,
			"type":"VEC2"
		},
		{
			"bufferView":208,
			"componentType":5126,
			"count":76,
			"type":"VEC2"
		},
		{
			"bufferView":209,
			"componentType":5126,
			"count":76,
			"type":"VEC2"
		},
		{
			"bufferView":210,
			"componentType":5126,
			"count":76,
			"type":"VEC2"
		},
		{
			"bufferView":211,
			"componentType":5126,
			"count":76,
			"type":"VEC2"
		},
		{
			"bufferView":212,
			"componentType":5123,
			"count":114,
			"type":"SCALAR"
		},
		{
			"bufferView":213,
			"componentType":5126,
			"count":44,
			"max":[
				0.19652613997459412,
				0.10314501821994781,
				0.2960299551486969
			],
			"min":[
				-0.21156640350818634,
				0.010879436507821083,
				-0.2960299551486969
			],
			"type":"VEC3"
		},
		{
			"bufferView":214,
			"componentType":5126,
			"count":44,
			"type":"VEC3"
		},
		{
			"bufferView":215,
			"componentType":5126,
			"count":44,
			"type":"VEC2"
		},
		{
			"bufferView":216,
			"componentType":5126,
			"count":44,
			"type":"VEC2"
		},
		{
			"bufferView":217,
			"componentType":5126,
			"count":44,
			"type":"VEC2"
		},
		{
			"bufferView":218,
			"componentType":5126,
			"count":44,
			"type":"VEC2"
		},
		{
			"bufferView":219,
			"componentType":5126,
			"count":44,
			"type":"VEC2"
		},
		{
			"bufferView":220,
			"componentType":5126,
			"count":76,
			"max":[
				0.20940174162387848,
				0.11408151686191559,
				0.2960299551486969
			],
			"min":[
				-0.21156640350818634,
				-5.7060788094531745e-05,
				-0.2960299551486969
			],
			"type":"VEC3"
		},
		{
			"bufferView":221,
			"componentType":5126,
			"count":76,
			"type":"VEC3"
		},
		{
			"bufferView":222,
			"componentType":5126,
			"count":76,
			"type":"VEC2"
		},
		{
			"bufferView":223,
			"componentType":5126,
			"count":76,
			"type":"VEC2"
		},
		{
			"bufferView":224,
			"componentType":5126,
			"count":76,
			"type":"VEC2"
		},
		{
			"bufferView":225,
			"componentType":5126,
			"count":76,
			"type":"VEC2"
		},
		{
			"bufferView":226,
			"componentType":5126,
			"count":76,
			"type":"VEC2"
		},
		{
			"bufferView":227,
			"componentType":5123,
			"count":114,
			"type":"SCALAR"
		},
		{
			"bufferView":228,
			"componentType":5126,
			"count":44,
			"max":[
				0.19652613997459412,
				0.10314501821994781,
				0.2960299551486969
			],
			"min":[
				-0.21156640350818634,
				0.010879436507821083,
				-0.2960299551486969
			],
			"type":"VEC3"
		},
		{
			"bufferView":229,
			"componentType":5126,
			"count":44,
			"type":"VEC3"
		},
		{
			"bufferView":230,
			"componentType":5126,
			"count":44,
			"type":"VEC2"
		},
		{
			"bufferView":231,
			"componentType":5126,
			"count":44,
			"type":"VEC2"
		},
		{
			"bufferView":232,
			"componentType":5126,
			"count":44,
			"type":"VEC2"
		},
		{
			"bufferView":233,
			"componentType":5126,
			"count":44,
			"type":"VEC2"
		},
		{
			"bufferView":234,
			"componentType":5126,
			"count":44,
			"type":"VEC2"
		},
		{
			"bufferView":235,
			"componentType":5126,
			"count":76,
			"max":[
				0.20940174162387848,
				0.11408151686191559,
				0.2960299551486969
			],
			"min":[
				-0.21156640350818634,
				-5.7060788094531745e-05,
				-0.2960299551486969
			],
			"type":"VEC3"
		},
		{
			"bufferView":236,
			"componentType":5126,
			"count":76,
			"type":"VEC3"
		},
		{
			"bufferView":237,
			"componentType":5126,
			"count":76,
			"type":"VEC2"
		},
		{
			"bufferView":238,
			"componentType":5126,
			"count":76,
			"type":"VEC2"
		},
		{
			"bufferView":239,
			"componentType":5126,
			"count":76,
			"type":"VEC2"
		},
		{
			"bufferView":240,
			"componentType":5126,
			"count":76,
			"type":"VEC2"
		},
		{
			"bufferView":241,
			"componentType":5126,
			"count":76,
			"type":"VEC2"
		},
		{
			"bufferView":242,
			"componentType":5126,
			"count":44,
			"max":[
				0.19652613997459412,
				0.10314501821994781,
				0.2960299551486969
			],
			"min":[
				-0.21156640350818634,
				0.010879436507821083,
				-0.2960299551486969
			],
			"type":"VEC3"
		},
		{
			"bufferView":243,
			"componentType":5126,
			"count":44,
			"type":"VEC3"
		},
		{
			"bufferView":244,
			"componentType":5126,
			"count":44,
			"type":"VEC2"
		},
		{
			"bufferView":245,
			"componentType":5126,
			"count":44,
			"type":"VEC2"
		},
		{
			"bufferView":246,
			"componentType":5126,
			"count":44,
			"type":"VEC2"
		},
		{
			"bufferView":247,
			"componentType":5126,
			"count":44,
			"type":"VEC2"
		},
		{
			"bufferView":248,
			"componentType":5126,
			"count":44,
			"type":"VEC2"
		},
		{
			"bufferView":249,
			"componentType":5126,
			"count":76,
			"max":[
				0.20940174162387848,
				0.11408151686191559,
				0.2960299551486969
			],
			"min":[
				-0.21156640350818634,
				-5.7060788094531745e-05,
				-0.2960299551486969
			],
			"type":"VEC3"
		},
		{
			"bufferView":250,
			"componentType":5126,
			"count":76,
			"type":"VEC3"
		},
		{
			"bufferView":251,
			"componentType":5126,
			"count":76,
			"type":"VEC2"
		},
		{
			"bufferView":252,
			"componentType":5126,
			"count":76,
			"type":"VEC2"
		},
		{
			"bufferView":253,
			"componentType":5126,
			"count":76,
			"type":"VEC2"
		},
		{
			"bufferView":254,
			"componentType":5126,
			"count":76,
			"type":"VEC2"
		},
		{
			"bufferView":255,
			"componentType":5126,
			"count":76,
			"type":"VEC2"
		},
		{
			"bufferView":256,
			"componentType":5126,
			"count":44,
			"max":[
				0.19652613997459412,
				0.10314501821994781,
				0.2960299551486969
			],
			"min":[
				-0.21156640350818634,
				0.010879436507821083,
				-0.2960299551486969
			],
			"type":"VEC3"
		},
		{
			"bufferView":257,
			"componentType":5126,
			"count":44,
			"type":"VEC3"
		},
		{
			"bufferView":258,
			"componentType":5126,
			"count":44,
			"type":"VEC2"
		},
		{
			"bufferView":259,
			"componentType":5126,
			"count":44,
			"type":"VEC2"
		},
		{
			"bufferView":260,
			"componentType":5126,
			"count":44,
			"type":"VEC2"
		},
		{
			"bufferView":261,
			"componentType":5126,
			"count":44,
			"type":"VEC2"
		},
		{
			"bufferView":262,
			"componentType":5126,
			"count":44,
			"type":"VEC2"
		},
		{
			"bufferView":263,
			"componentType":5126,
			"count":76,
			"max":[
				0.20940174162387848,
				0.11408151686191559,
				0.2960299551486969
			],
			"min":[
				-0.21156640350818634,
				-5.7060788094531745e-05,
				-0.2960299551486969
			],
			"type":"VEC3"
		},
		{
			"bufferView":264,
			"componentType":5126,
			"count":76,
			"type":"VEC3"
		},
		{
			"bufferView":265,
			"componentType":5126,
			"count":76,
			"type":"VEC2"
		},
		{
			"bufferView":266,
			"componentType":5126,
			"count":76,
			"type":"VEC2"
		},
		{
			"bufferView":267,
			"componentType":5126,
			"count":76,
			"type":"VEC2"
		},
		{
			"bufferView":268,
			"componentType":5126,
			"count":76,
			"type":"VEC2"
		},
		{
			"bufferView":269,
			"componentType":5126,
			"count":76,
			"type":"VEC2"
		},
		{
			"bufferView":270,
			"componentType":5123,
			"count":114,
			"type":"SCALAR"
		},
		{
			"bufferView":271,
			"componentType":5126,
			"count":4032,
			"max":[
				0.1505681723356247,
				0.38516706228256226,
				0.08742605894804001
			],
			"min":[
				-0.1337244063615799,
				-0.07848834246397018,
				-0.11000939458608627
			],
			"type":"VEC3"
		},
		{
			"bufferView":272,
			"componentType":5126,
			"count":4032,
			"type":"VEC3"
		},
		{
			"bufferView":273,
			"componentType":5126,
			"count":4032,
			"type":"VEC2"
		},
		{
			"bufferView":274,
			"componentType":5126,
			"count":4032,
			"type":"VEC2"
		},
		{
			"bufferView":275,
			"componentType":5126,
			"count":4032,
			"type":"VEC2"
		},
		{
			"bufferView":276,
			"componentType":5126,
			"count":4032,
			"type":"VEC2"
		},
		{
			"bufferView":277,
			"componentType":5126,
			"count":4032,
			"type":"VEC2"
		},
		{
			"bufferView":278,
			"componentType":5123,
			"count":4032,
			"type":"SCALAR"
		},
		{
			"bufferView":279,
			"componentType":5126,
			"count":78,
			"max":[
				0.08905120193958282,
				0.04220928996801376,
				0.08843407779932022
			],
			"min":[
				-0.09563900530338287,
				-0.18584299087524414,
				-0.09625615924596786
			],
			"type":"VEC3"
		},
		{
			"bufferView":280,
			"componentType":5126,
			"count":78,
			"type":"VEC3"
		},
		{
			"bufferView":281,
			"componentType":5126,
			"count":78,
			"type":"VEC2"
		},
		{
			"bufferView":282,
			"componentType":5126,
			"count":78,
			"type":"VEC2"
		},
		{
			"bufferView":283,
			"componentType":5126,
			"count":78,
			"type":"VEC2"
		},
		{
			"bufferView":284,
			"componentType":5126,
			"count":78,
			"type":"VEC2"
		},
		{
			"bufferView":285,
			"componentType":5126,
			"count":78,
			"type":"VEC2"
		},
		{
			"bufferView":286,
			"componentType":5123,
			"count":78,
			"type":"SCALAR"
		},
		{
			"bufferView":287,
			"componentType":5126,
			"count":66,
			"max":[
				0.07898558676242828,
				0.023697663098573685,
				0.07836847007274628
			],
			"min":[
				-0.08557339012622833,
				0.009056711569428444,
				-0.08619049191474915
			],
			"type":"VEC3"
		},
		{
			"bufferView":288,
			"componentType":5126,
			"count":66,
			"type":"VEC3"
		},
		{
			"bufferView":289,
			"componentType":5126,
			"count":66,
			"type":"VEC2"
		},
		{
			"bufferView":290,
			"componentType":5126,
			"count":66,
			"type":"VEC2"
		},
		{
			"bufferView":291,
			"componentType":5126,
			"count":66,
			"type":"VEC2"
		},
		{
			"bufferView":292,
			"componentType":5126,
			"count":66,
			"type":"VEC2"
		},
		{
			"bufferView":293,
			"componentType":5126,
			"count":66,
			"type":"VEC2"
		},
		{
			"bufferView":294,
			"componentType":5123,
			"count":66,
			"type":"SCALAR"
		},
		{
			"bufferView":295,
			"componentType":5126,
			"count":4584,
			"max":[
				0.9375342726707458,
				2.3982980251312256,
				0.8178123235702515
			],
			"min":[
				-0.8326522707939148,
				-0.4887188971042633,
				-0.6849892735481262
			],
			"type":"VEC3"
		},
		{
			"bufferView":296,
			"componentType":5126,
			"count":4584,
			"type":"VEC3"
		},
		{
			"bufferView":297,
			"componentType":5126,
			"count":4584,
			"type":"VEC2"
		},
		{
			"bufferView":298,
			"componentType":5126,
			"count":4584,
			"type":"VEC2"
		},
		{
			"bufferView":299,
			"componentType":5126,
			"count":4584,
			"type":"VEC2"
		},
		{
			"bufferView":300,
			"componentType":5126,
			"count":4584,
			"type":"VEC2"
		},
		{
			"bufferView":301,
			"componentType":5126,
			"count":4584,
			"type":"VEC2"
		},
		{
			"bufferView":302,
			"componentType":5126,
			"count":4584,
			"type":"VEC2"
		},
		{
			"bufferView":303,
			"componentType":5123,
			"count":4584,
			"type":"SCALAR"
		},
		{
			"bufferView":304,
			"componentType":5126,
			"count":78,
			"max":[
				0.5544919967651367,
				0.2628222107887268,
				0.550647497177124
			],
			"min":[
				-0.5955080986022949,
				-1.1571780443191528,
				-0.5993527770042419
			],
			"type":"VEC3"
		},
		{
			"bufferView":305,
			"componentType":5126,
			"count":78,
			"type":"VEC3"
		},
		{
			"bufferView":306,
			"componentType":5126,
			"count":78,
			"type":"VEC2"
		},
		{
			"bufferView":307,
			"componentType":5126,
			"count":78,
			"type":"VEC2"
		},
		{
			"bufferView":308,
			"componentType":5126,
			"count":78,
			"type":"VEC2"
		},
		{
			"bufferView":309,
			"componentType":5126,
			"count":78,
			"type":"VEC2"
		},
		{
			"bufferView":310,
			"componentType":5126,
			"count":78,
			"type":"VEC2"
		},
		{
			"bufferView":311,
			"componentType":5126,
			"count":78,
			"type":"VEC2"
		},
		{
			"bufferView":312,
			"componentType":5123,
			"count":78,
			"type":"SCALAR"
		},
		{
			"bufferView":313,
			"componentType":5126,
			"count":606,
			"max":[
				0.49181699752807617,
				0.1835256963968277,
				0.4879724979400635
			],
			"min":[
				-0.5328330993652344,
				0.010145659558475018,
				-0.5366774797439575
			],
			"type":"VEC3"
		},
		{
			"bufferView":314,
			"componentType":5126,
			"count":606,
			"type":"VEC3"
		},
		{
			"bufferView":315,
			"componentType":5126,
			"count":606,
			"type":"VEC2"
		},
		{
			"bufferView":316,
			"componentType":5126,
			"count":606,
			"type":"VEC2"
		},
		{
			"bufferView":317,
			"componentType":5126,
			"count":606,
			"type":"VEC2"
		},
		{
			"bufferView":318,
			"componentType":5126,
			"count":606,
			"type":"VEC2"
		},
		{
			"bufferView":319,
			"componentType":5126,
			"count":606,
			"type":"VEC2"
		},
		{
			"bufferView":320,
			"componentType":5126,
			"count":606,
			"type":"VEC2"
		},
		{
			"bufferView":321,
			"componentType":5123,
			"count":606,
			"type":"SCALAR"
		},
		{
			"bufferView":322,
			"componentType":5126,
			"count":276,
			"max":[
				0.8342198729515076,
				1.8951020240783691,
				0.16429950296878815
			],
			"min":[
				0.08215618133544922,
				-0.059513211250305176,
				-0.2020885944366455
			],
			"type":"VEC3"
		},
		{
			"bufferView":323,
			"componentType":5126,
			"count":276,
			"type":"VEC3"
		},
		{
			"bufferView":324,
			"componentType":5126,
			"count":276,
			"type":"VEC2"
		},
		{
			"bufferView":325,
			"componentType":5126,
			"count":276,
			"type":"VEC2"
		},
		{
			"bufferView":326,
			"componentType":5126,
			"count":276,
			"type":"VEC2"
		},
		{
			"bufferView":327,
			"componentType":5126,
			"count":276,
			"type":"VEC2"
		},
		{
			"bufferView":328,
			"componentType":5126,
			"count":276,
			"type":"VEC2"
		},
		{
			"bufferView":329,
			"componentType":5126,
			"count":276,
			"type":"VEC2"
		},
		{
			"bufferView":330,
			"componentType":5123,
			"count":276,
			"type":"SCALAR"
		},
		{
			"bufferView":331,
			"componentType":5126,
			"count":384,
			"max":[
				2.1784746646881104,
				0.10142586380243301,
				1.3274848461151123
			],
			"min":[
				-2.1784746646881104,
				-0.10142586380243301,
				-1.3274848461151123
			],
			"type":"VEC3"
		},
		{
			"bufferView":332,
			"componentType":5126,
			"count":384,
			"type":"VEC3"
		},
		{
			"bufferView":333,
			"componentType":5126,
			"count":384,
			"type":"VEC2"
		},
		{
			"bufferView":334,
			"componentType":5126,
			"count":384,
			"type":"VEC2"
		},
		{
			"bufferView":335,
			"componentType":5126,
			"count":384,
			"type":"VEC2"
		},
		{
			"bufferView":336,
			"componentType":5126,
			"count":384,
			"type":"VEC2"
		},
		{
			"bufferView":337,
			"componentType":5126,
			"count":384,
			"type":"VEC2"
		},
		{
			"bufferView":338,
			"componentType":5126,
			"count":384,
			"type":"VEC2"
		},
		{
			"bufferView":339,
			"componentType":5123,
			"count":564,
			"type":"SCALAR"
		},
		{
			"bufferView":340,
			"componentType":5126,
			"count":328,
			"max":[
				0.308773398399353,
				0.8368346095085144,
				1.6063002347946167
			],
			"min":[
				-5.480112363898115e-08,
				-0.8368346095085144,
				-1.6063003540039062
			],
			"type":"VEC3"
		},
		{
			"bufferView":341,
			"componentType":5126,
			"count":328,
			"type":"VEC3"
		},
		{
			"bufferView":342,
			"componentType":5126,
			"count":328,
			"type":"VEC2"
		},
		{
			"bufferView":343,
			"componentType":5126,
			"count":328,
			"type":"VEC2"
		},
		{
			"bufferView":344,
			"componentType":5126,
			"count":328,
			"type":"VEC2"
		},
		{
			"bufferView":345,
			"componentType":5126,
			"count":328,
			"type":"VEC2"
		},
		{
			"bufferView":346,
			"componentType":5126,
			"count":328,
			"type":"VEC2"
		},
		{
			"bufferView":347,
			"componentType":5126,
			"count":328,
			"type":"VEC2"
		},
		{
			"bufferView":348,
			"componentType":5123,
			"count":504,
			"type":"SCALAR"
		},
		{
			"bufferView":349,
			"componentType":5126,
			"count":168,
			"max":[
				0.29922372102737427,
				0.8066959381103516,
				1.5549776554107666
			],
			"min":[
				0.06439513713121414,
				-0.8066959381103516,
				-1.5549778938293457
			],
			"type":"VEC3"
		},
		{
			"bufferView":350,
			"componentType":5126,
			"count":168,
			"type":"VEC3"
		},
		{
			"bufferView":351,
			"componentType":5126,
			"count":168,
			"type":"VEC2"
		},
		{
			"bufferView":352,
			"componentType":5126,
			"count":168,
			"type":"VEC2"
		},
		{
			"bufferView":353,
			"componentType":5126,
			"count":168,
			"type":"VEC2"
		},
		{
			"bufferView":354,
			"componentType":5126,
			"count":168,
			"type":"VEC2"
		},
		{
			"bufferView":355,
			"componentType":5126,
			"count":168,
			"type":"VEC2"
		},
		{
			"bufferView":356,
			"componentType":5126,
			"count":168,
			"type":"VEC2"
		},
		{
			"bufferView":357,
			"componentType":5123,
			"count":252,
			"type":"SCALAR"
		},
		{
			"bufferView":358,
			"componentType":5126,
			"count":78,
			"max":[
				4,
				5,
				4
			],
			"min":[
				-4.466132164001465,
				-0.4661320447921753,
				-4.466132164001465
			],
			"type":"VEC3"
		},
		{
			"bufferView":359,
			"componentType":5126,
			"count":78,
			"type":"VEC3"
		},
		{
			"bufferView":360,
			"componentType":5126,
			"count":78,
			"type":"VEC2"
		},
		{
			"bufferView":361,
			"componentType":5126,
			"count":78,
			"type":"VEC2"
		},
		{
			"bufferView":362,
			"componentType":5126,
			"count":78,
			"type":"VEC2"
		},
		{
			"bufferView":363,
			"componentType":5126,
			"count":78,
			"type":"VEC2"
		},
		{
			"bufferView":364,
			"componentType":5126,
			"count":78,
			"type":"VEC2"
		},
		{
			"bufferView":365,
			"componentType":5123,
			"count":132,
			"type":"SCALAR"
		},
		{
			"bufferView":366,
			"componentType":5126,
			"count":4,
			"max":[
				4,
				0,
				4
			],
			"min":[
				-4,
				0,
				-4
			],
			"type":"VEC3"
		},
		{
			"bufferView":367,
			"componentType":5126,
			"count":4,
			"type":"VEC3"
		},
		{
			"bufferView":368,
			"componentType":5126,
			"count":4,
			"type":"VEC2"
		},
		{
			"bufferView":369,
			"componentType":5126,
			"count":4,
			"type":"VEC2"
		},
		{
			"bufferView":370,
			"componentType":5126,
			"count":4,
			"type":"VEC2"
		},
		{
			"bufferView":371,
			"componentType":5126,
			"count":4,
			"type":"VEC2"
		},
		{
			"bufferView":372,
			"componentType":5126,
			"count":4,
			"type":"VEC2"
		},
		{
			"bufferView":373,
			"componentType":5123,
			"count":6,
			"type":"SCALAR"
		}
	],
	"bufferViews":[
		{
			"buffer":0,
			"byteLength":672,
			"byteOffset":0,
			"target":34962
		},
		{
			"buffer":0,
			"byteLength":672,
			"byteOffset":672,
			"target":34962
		},
		{
			"buffer":0,
			"byteLength":448,
			"byteOffset":1344,
			"target":34962
		},
		{
			"buffer":0,
			"byteLength":448,
			"byteOffset":1792,
			"target":34962
		},
		{
			"buffer":0,
			"byteLength":448,
			"byteOffset":2240,
			"target":34962
		},
		{
			"buffer":0,
			"byteLength":448,
			"byteOffset":2688,
			"target":34962
		},
		{
			"buffer":0,
			"byteLength":448,
			"byteOffset":3136,
			"target":34962
		},
		{
			"buffer":0,
			"byteLength":448,
			"byteOffset":3584,
			"target":34962
		},
		{
			"buffer":0,
			"byteLength":448,
			"byteOffset":4032,
			"target":34962
		},
		{
			"buffer":0,
			"byteLength":252,
			"byteOffset":4480,
			"target":34963
		},
		{
			"buffer":0,
			"byteLength":4800,
			"byteOffset":4732,
			"target":34962
		},
		{
			"buffer":0,
			"byteLength":4800,
			"byteOffset":9532,
			"target":34962
		},
		{
			"buffer":0,
			"byteLength":3200,
			"byteOffset":14332,
			"target":34962
		},
		{
			"buffer":0,
			"byteLength":3200,
			"byteOffset":17532,
			"target":34962
		},
		{
			"buffer":0,
			"byteLength":3200,
			"byteOffset":20732,
			"target":34962
		},
		{
			"buffer":0,
			"byteLength":3200,
			"byteOffset":23932,
			"target":34962
		},
		{
			"buffer":0,
			"byteLength":3200,
			"byteOffset":27132,
			"target":34962
		},
		{
			"buffer":0,
			"byteLength":3200,
			"byteOffset":30332,
			"target":34962
		},
		{
			"buffer":0,
			"byteLength":1200,
			"byteOffset":33532,
			"target":34963
		},
		{
			"buffer":0,
			"byteLength":1728,
			"byteOffset":34732,
			"target":34962
		},
		{
			"buffer":0,
			"byteLength":1728,
			"byteOffset":36460,
			"target":34962
		},
		{
			"buffer":0,
			"byteLength":1152,
			"byteOffset":38188,
			"target":34962
		},
		{
			"buffer":0,
			"byteLength":1152,
			"byteOffset":39340,
			"target":34962
		},
		{
			"buffer":0,
			"byteLength":1152,
			"byteOffset":40492,
			"target":34962
		},
		{
			"buffer":0,
			"byteLength":1152,
			"byteOffset":41644,
			"target":34962
		},
		{
			"buffer":0,
			"byteLength":1152,
			"byteOffset":42796,
			"target":34962
		},
		{
			"buffer":0,
			"byteLength":1152,
			"byteOffset":43948,
			"target":34962
		},
		{
			"buffer":0,
			"byteLength":432,
			"byteOffset":45100,
			"target":34963
		},
		{
			"buffer":0,
			"byteLength":576,
			"byteOffset":45532,
			"target":34962
		},
		{
			"buffer":0,
			"byteLength":576,
			"byteOffset":46108,
			"target":34962
		},
		{
			"buffer":0,
			"byteLength":384,
			"byteOffset":46684,
			"target":34962
		},
		{
			"buffer":0,
			"byteLength":384,
			"byteOffset":47068,
			"target":34962
		},
		{
			"buffer":0,
			"byteLength":384,
			"byteOffset":47452,
			"target":34962
		},
		{
			"buffer":0,
			"byteLength":384,
			"byteOffset":47836,
			"target":34962
		},
		{
			"buffer":0,
			"byteLength":384,
			"byteOffset":48220,
			"target":34962
		},
		{
			"buffer":0,
			"byteLength":384,
			"byteOffset":48604,
			"target":34962
		},
		{
			"buffer":0,
			"byteLength":144,
			"byteOffset":48988,
			"target":34963
		},
		{
			"buffer":0,
			"byteLength":1152,
			"byteOffset":49132,
			"target":34962
		},
		{
			"buffer":0,
			"byteLength":1152,
			"byteOffset":50284,
			"target":34962
		},
		{
			"buffer":0,
			"byteLength":768,
			"byteOffset":51436,
			"target":34962
		},
		{
			"buffer":0,
			"byteLength":768,
			"byteOffset":52204,
			"target":34962
		},
		{
			"buffer":0,
			"byteLength":768,
			"byteOffset":52972,
			"target":34962
		},
		{
			"buffer":0,
			"byteLength":768,
			"byteOffset":53740,
			"target":34962
		},
		{
			"buffer":0,
			"byteLength":768,
			"byteOffset":54508,
			"target":34962
		},
		{
			"buffer":0,
			"byteLength":360,
			"byteOffset":55276,
			"target":34963
		},
		{
			"buffer":0,
			"byteLength":91536,
			"byteOffset":55636,
			"target":34962
		},
		{
			"buffer":0,
			"byteLength":91536,
			"byteOffset":147172,
			"target":34962
		},
		{
			"buffer":0,
			"byteLength":61024,
			"byteOffset":238708,
			"target":34962
		},
		{
			"buffer":0,
			"byteLength":61024,
			"byteOffset":299732,
			"target":34962
		},
		{
			"buffer":0,
			"byteLength":61024,
			"byteOffset":360756,
			"target":34962
		},
		{
			"buffer":0,
			"byteLength":61024,
			"byteOffset":421780,
			"target":34962
		},
		{
			"buffer":0,
			"byteLength":61024,
			"byteOffset":482804,
			"target":34962
		},
		{
			"buffer":0,
			"byteLength":27960,
			"byteOffset":543828,
			"target":34963
		},
		{
			"buffer":0,
			"byteLength":1152,
			"byteOffset":571788,
			"target":34962
		},
		{
			"buffer":0,
			"byteLength":1152,
			"byteOffset":572940,
			"target":34962
		},
		{
			"buffer":0,
			"byteLength":768,
			"byteOffset":574092,
			"target":34962
		},
		{
			"buffer":0,
			"byteLength":768,
			"byteOffset":574860,
			"target":34962
		},
		{
			"buffer":0,
			"byteLength":768,
			"byteOffset":575628,
			"target":34962
		},
		{
			"buffer":0,
			"byteLength":768,
			"byteOffset":576396,
			"target":34962
		},
		{
			"buffer":0,
			"byteLength":768,
			"byteOffset":577164,
			"target":34962
		},
		{
			"buffer":0,
			"byteLength":360,
			"byteOffset":577932,
			"target":34963
		},
		{
			"buffer":0,
			"byteLength":288,
			"byteOffset":578292,
			"target":34962
		},
		{
			"buffer":0,
			"byteLength":288,
			"byteOffset":578580,
			"target":34962
		},
		{
			"buffer":0,
			"byteLength":192,
			"byteOffset":578868,
			"target":34962
		},
		{
			"buffer":0,
			"byteLength":192,
			"byteOffset":579060,
			"target":34962
		},
		{
			"buffer":0,
			"byteLength":192,
			"byteOffset":579252,
			"target":34962
		},
		{
			"buffer":0,
			"byteLength":192,
			"byteOffset":579444,
			"target":34962
		},
		{
			"buffer":0,
			"byteLength":192,
			"byteOffset":579636,
			"target":34962
		},
		{
			"buffer":0,
			"byteLength":72,
			"byteOffset":579828,
			"target":34963
		},
		{
			"buffer":0,
			"byteLength":3456,
			"byteOffset":579900,
			"target":34962
		},
		{
			"buffer":0,
			"byteLength":3456,
			"byteOffset":583356,
			"target":34962
		},
		{
			"buffer":0,
			"byteLength":2304,
			"byteOffset":586812,
			"target":34962
		},
		{
			"buffer":0,
			"byteLength":2304,
			"byteOffset":589116,
			"target":34962
		},
		{
			"buffer":0,
			"byteLength":2304,
			"byteOffset":591420,
			"target":34962
		},
		{
			"buffer":0,
			"byteLength":2304,
			"byteOffset":593724,
			"target":34962
		},
		{
			"buffer":0,
			"byteLength":2304,
			"byteOffset":596028,
			"target":34962
		},
		{
			"buffer":0,
			"byteLength":2304,
			"byteOffset":598332,
			"target":34962
		},
		{
			"buffer":0,
			"byteLength":576,
			"byteOffset":600636,
			"target":34963
		},
		{
			"buffer":0,
			"byteLength":23808,
			"byteOffset":601212,
			"target":34962
		},
		{
			"buffer":0,
			"byteLength":23808,
			"byteOffset":625020,
			"target":34962
		},
		{
			"buffer":0,
			"byteLength":15872,
			"byteOffset":648828,
			"target":34962
		},
		{
			"buffer":0,
			"byteLength":15872,
			"byteOffset":664700,
			"target":34962
		},
		{
			"buffer":0,
			"byteLength":15872,
			"byteOffset":680572,
			"target":34962
		},
		{
			"buffer":0,
			"byteLength":15872,
			"byteOffset":696444,
			"target":34962
		},
		{
			"buffer":0,
			"byteLength":15872,
			"byteOffset":712316,
			"target":34962
		},
		{
			"buffer":0,
			"byteLength":15872,
			"byteOffset":728188,
			"target":34962
		},
		{
			"buffer":0,
			"byteLength":15872,
			"byteOffset":744060,
			"target":34962
		},
		{
			"buffer":0,
			"byteLength":5760,
			"byteOffset":759932,
			"target":34963
		},
		{
			"buffer":0,
			"byteLength":3060,
			"byteOffset":765692,
			"target":34962
		},
		{
			"buffer":0,
			"byteLength":3060,
			"byteOffset":768752,
			"target":34962
		},
		{
			"buffer":0,
			"byteLength":2040,
			"byteOffset":771812,
			"target":34962
		},
		{
			"buffer":0,
			"byteLength":2040,
			"byteOffset":773852,
			"target":34962
		},
		{
			"buffer":0,
			"byteLength":2040,
			"byteOffset":775892,
			"target":34962
		},
		{
			"buffer":0,
			"byteLength":2040,
			"byteOffset":777932,
			"target":34962
		},
		{
			"buffer":0,
			"byteLength":2040,
			"byteOffset":779972,
			"target":34962
		},
		{
			"buffer":0,
			"byteLength":2040,
			"byteOffset":782012,
			"target":34962
		},
		{
			"buffer":0,
			"byteLength":510,
			"byteOffset":784052,
			"target":34963
		},
		{
			"buffer":0,
			"byteLength":4248,
			"byteOffset":784564,
			"target":34962
		},
		{
			"buffer":0,
			"byteLength":4248,
			"byteOffset":788812,
			"target":34962
		},
		{
			"buffer":0,
			"byteLength":2832,
			"byteOffset":793060,
			"target":34962
		},
		{
			"buffer":0,
			"byteLength":2832,
			"byteOffset":795892,
			"target":34962
		},
		{
			"buffer":0,
			"byteLength":2832,
			"byteOffset":798724,
			"target":34962
		},
		{
			"buffer":0,
			"byteLength":2832,
			"byteOffset":801556,
			"target":34962
		},
		{
			"buffer":0,
			"byteLength":2832,
			"byteOffset":804388,
			"target":34962
		},
		{
			"buffer":0,
			"byteLength":2832,
			"byteOffset":807220,
			"target":34962
		},
		{
			"buffer":0,
			"byteLength":708,
			"byteOffset":810052,
			"target":34963
		},
		{
			"buffer":0,
			"byteLength":23808,
			"byteOffset":810760,
			"target":34962
		},
		{
			"buffer":0,
			"byteLength":23808,
			"byteOffset":834568,
			"target":34962
		},
		{
			"buffer":0,
			"byteLength":15872,
			"byteOffset":858376,
			"target":34962
		},
		{
			"buffer":0,
			"byteLength":15872,
			"byteOffset":874248,
			"target":34962
		},
		{
			"buffer":0,
			"byteLength":15872,
			"byteOffset":890120,
			"target":34962
		},
		{
			"buffer":0,
			"byteLength":15872,
			"byteOffset":905992,
			"target":34962
		},
		{
			"buffer":0,
			"byteLength":15872,
			"byteOffset":921864,
			"target":34962
		},
		{
			"buffer":0,
			"byteLength":15872,
			"byteOffset":937736,
			"target":34962
		},
		{
			"buffer":0,
			"byteLength":15872,
			"byteOffset":953608,
			"target":34962
		},
		{
			"buffer":0,
			"byteLength":5760,
			"byteOffset":969480,
			"target":34963
		},
		{
			"buffer":0,
			"byteLength":1440,
			"byteOffset":975240,
			"target":34962
		},
		{
			"buffer":0,
			"byteLength":1440,
			"byteOffset":976680,
			"target":34962
		},
		{
			"buffer":0,
			"byteLength":960,
			"byteOffset":978120,
			"target":34962
		},
		{
			"buffer":0,
			"byteLength":960,
			"byteOffset":979080,
			"target":34962
		},
		{
			"buffer":0,
			"byteLength":960,
			"byteOffset":980040,
			"target":34962
		},
		{
			"buffer":0,
			"byteLength":960,
			"byteOffset":981000,
			"target":34962
		},
		{
			"buffer":0,
			"byteLength":960,
			"byteOffset":981960,
			"target":34962
		},
		{
			"buffer":0,
			"byteLength":960,
			"byteOffset":982920,
			"target":34962
		},
		{
			"buffer":0,
			"byteLength":960,
			"byteOffset":983880,
			"target":34962
		},
		{
			"buffer":0,
			"byteLength":360,
			"byteOffset":984840,
			"target":34963
		},
		{
			"buffer":0,
			"byteLength":4032,
			"byteOffset":985200,
			"target":34962
		},
		{
			"buffer":0,
			"byteLength":4032,
			"byteOffset":989232,
			"target":34962
		},
		{
			"buffer":0,
			"byteLength":2688,
			"byteOffset":993264,
			"target":34962
		},
		{
			"buffer":0,
			"byteLength":2688,
			"byteOffset":995952,
			"target":34962
		},
		{
			"buffer":0,
			"byteLength":2688,
			"byteOffset":998640,
			"target":34962
		},
		{
			"buffer":0,
			"byteLength":2688,
			"byteOffset":1001328,
			"target":34962
		},
		{
			"buffer":0,
			"byteLength":2688,
			"byteOffset":1004016,
			"target":34962
		},
		{
			"buffer":0,
			"byteLength":2688,
			"byteOffset":1006704,
			"target":34962
		},
		{
			"buffer":0,
			"byteLength":1008,
			"byteOffset":1009392,
			"target":34963
		},
		{
			"buffer":0,
			"byteLength":528,
			"byteOffset":1010400,
			"target":34962
		},
		{
			"buffer":0,
			"byteLength":528,
			"byteOffset":1010928,
			"target":34962
		},
		{
			"buffer":0,
			"byteLength":352,
			"byteOffset":1011456,
			"target":34962
		},
		{
			"buffer":0,
			"byteLength":352,
			"byteOffset":1011808,
			"target":34962
		},
		{
			"buffer":0,
			"byteLength":352,
			"byteOffset":1012160,
			"target":34962
		},
		{
			"buffer":0,
			"byteLength":352,
			"byteOffset":1012512,
			"target":34962
		},
		{
			"buffer":0,
			"byteLength":352,
			"byteOffset":1012864,
			"target":34962
		},
		{
			"buffer":0,
			"byteLength":132,
			"byteOffset":1013216,
			"target":34963
		},
		{
			"buffer":0,
			"byteLength":912,
			"byteOffset":1013348,
			"target":34962
		},
		{
			"buffer":0,
			"byteLength":912,
			"byteOffset":1014260,
			"target":34962
		},
		{
			"buffer":0,
			"byteLength":608,
			"byteOffset":1015172,
			"target":34962
		},
		{
			"buffer":0,
			"byteLength":608,
			"byteOffset":1015780,
			"target":34962
		},
		{
			"buffer":0,
			"byteLength":608,
			"byteOffset":1016388,
			"target":34962
		},
		{
			"buffer":0,
			"byteLength":608,
			"byteOffset":1016996,
			"target":34962
		},
		{
			"buffer":0,
			"byteLength":608,
			"byteOffset":1017604,
			"target":34962
		},
		{
			"buffer":0,
			"byteLength":228,
			"byteOffset":1018212,
			"target":34963
		},
		{
			"buffer":0,
			"byteLength":528,
			"byteOffset":1018440,
			"target":34962
		},
		{
			"buffer":0,
			"byteLength":528,
			"byteOffset":1018968,
			"target":34962
		},
		{
			"buffer":0,
			"byteLength":352,
			"byteOffset":1019496,
			"target":34962
		},
		{
			"buffer":0,
			"byteLength":352,
			"byteOffset":1019848,
			"target":34962
		},
		{
			"buffer":0,
			"byteLength":352,
			"byteOffset":1020200,
			"target":34962
		},
		{
			"buffer":0,
			"byteLength":352,
			"byteOffset":1020552,
			"target":34962
		},
		{
			"buffer":0,
			"byteLength":352,
			"byteOffset":1020904,
			"target":34962
		},
		{
			"buffer":0,
			"byteLength":912,
			"byteOffset":1021256,
			"target":34962
		},
		{
			"buffer":0,
			"byteLength":912,
			"byteOffset":1022168,
			"target":34962
		},
		{
			"buffer":0,
			"byteLength":608,
			"byteOffset":1023080,
			"target":34962
		},
		{
			"buffer":0,
			"byteLength":608,
			"byteOffset":1023688,
			"target":34962
		},
		{
			"buffer":0,
			"byteLength":608,
			"byteOffset":1024296,
			"target":34962
		},
		{
			"buffer":0,
			"byteLength":608,
			"byteOffset":1024904,
			"target":34962
		},
		{
			"buffer":0,
			"byteLength":608,
			"byteOffset":1025512,
			"target":34962
		},
		{
			"buffer":0,
			"byteLength":228,
			"byteOffset":1026120,
			"target":34963
		},
		{
			"buffer":0,
			"byteLength":528,
			"byteOffset":1026348,
			"target":34962
		},
		{
			"buffer":0,
			"byteLength":528,
			"byteOffset":1026876,
			"target":34962
		},
		{
			"buffer":0,
			"byteLength":352,
			"byteOffset":1027404,
			"target":34962
		},
		{
			"buffer":0,
			"byteLength":352,
			"byteOffset":1027756,
			"target":34962
		},
		{
			"buffer":0,
			"byteLength":352,
			"byteOffset":1028108,
			"target":34962
		},
		{
			"buffer":0,
			"byteLength":352,
			"byteOffset":1028460,
			"target":34962
		},
		{
			"buffer":0,
			"byteLength":352,
			"byteOffset":1028812,
			"target":34962
		},
		{
			"buffer":0,
			"byteLength":132,
			"byteOffset":1029164,
			"target":34963
		},
		{
			"buffer":0,
			"byteLength":912,
			"byteOffset":1029296,
			"target":34962
		},
		{
			"buffer":0,
			"byteLength":912,
			"byteOffset":1030208,
			"target":34962
		},
		{
			"buffer":0,
			"byteLength":608,
			"byteOffset":1031120,
			"target":34962
		},
		{
			"buffer":0,
			"byteLength":608,
			"byteOffset":1031728,
			"target":34962
		},
		{
			"buffer":0,
			"byteLength":608,
			"byteOffset":1032336,
			"target":34962
		},
		{
			"buffer":0,
			"byteLength":608,
			"byteOffset":1032944,
			"target":34962
		},
		{
			"buffer":0,
			"byteLength":608,
			"byteOffset":1033552,
			"target":34962
		},
		{
			"buffer":0,
			"byteLength":228,
			"byteOffset":1034160,
			"target":34963
		},
		{
			"buffer":0,
			"byteLength":528,
			"byteOffset":1034388,
			"target":34962
		},
		{
			"buffer":0,
			"byteLength":528,
			"byteOffset":1034916,
			"target":34962
		},
		{
			"buffer":0,
			"byteLength":352,
			"byteOffset":1035444,
			"target":34962
		},
		{
			"buffer":0,
			"byteLength":352,
			"byteOffset":1035796,
			"target":34962
		},
		{
			"buffer":0,
			"byteLength":352,
			"byteOffset":1036148,
			"target":34962
		},
		{
			"buffer":0,
			"byteLength":352,
			"byteOffset":1036500,
			"target":34962
		},
		{
			"buffer":0,
			"byteLength":352,
			"byteOffset":1036852,
			"target":34962
		},
		{
			"buffer":0,
			"byteLength":132,
			"byteOffset":1037204,
			"target":34963
		},
		{
			"buffer":0,
			"byteLength":912,
			"byteOffset":1037336,
			"target":34962
		},
		{
			"buffer":0,
			"byteLength":912,
			"byteOffset":1038248,
			"target":34962
		},
		{
			"buffer":0,
			"byteLength":608,
			"byteOffset":1039160,
			"target":34962
		},
		{
			"buffer":0,
			"byteLength":608,
			"byteOffset":1039768,
			"target":34962
		},
		{
			"buffer":0,
			"byteLength":608,
			"byteOffset":1040376,
			"target":34962
		},
		{
			"buffer":0,
			"byteLength":608,
			"byteOffset":1040984,
			"target":34962
		},
		{
			"buffer":0,
			"byteLength":608,
			"byteOffset":1041592,
			"target":34962
		},
		{
			"buffer":0,
			"byteLength":228,
			"byteOffset":1042200,
			"target":34963
		},
		{
			"buffer":0,
			"byteLength":528,
			"byteOffset":1042428,
			"target":34962
		},
		{
			"buffer":0,
			"byteLength":528,
			"byteOffset":1042956,
			"target":34962
		},
		{
			"buffer":0,
			"byteLength":352,
			"byteOffset":1043484,
			"target":34962
		},
		{
			"buffer":0,
			"byteLength":352,
			"byteOffset":1043836,
			"target":34962
		},
		{
			"buffer":0,
			"byteLength":352,
			"byteOffset":1044188,
			"target":34962
		},
		{
			"buffer":0,
			"byteLength":352,
			"byteOffset":1044540,
			"target":34962
		},
		{
			"buffer":0,
			"byteLength":352,
			"byteOffset":1044892,
			"target":34962
		},
		{
			"buffer":0,
			"byteLength":912,
			"byteOffset":1045244,
			"target":34962
		},
		{
			"buffer":0,
			"byteLength":912,
			"byteOffset":1046156,
			"target":34962
		},
		{
			"buffer":0,
			"byteLength":608,
			"byteOffset":1047068,
			"target":34962
		},
		{
			"buffer":0,
			"byteLength":608,
			"byteOffset":1047676,
			"target":34962
		},
		{
			"buffer":0,
			"byteLength":608,
			"byteOffset":1048284,
			"target":34962
		},
		{
			"buffer":0,
			"byteLength":608,
			"byteOffset":1048892,
			"target":34962
		},
		{
			"buffer":0,
			"byteLength":608,
			"byteOffset":1049500,
			"target":34962
		},
		{
			"buffer":0,
			"byteLength":228,
			"byteOffset":1050108,
			"target":34963
		},
		{
			"buffer":0,
			"byteLength":528,
			"byteOffset":1050336,
			"target":34962
		},
		{
			"buffer":0,
			"byteLength":528,
			"byteOffset":1050864,
			"target":34962
		},
		{
			"buffer":0,
			"byteLength":352,
			"byteOffset":1051392,
			"target":34962
		},
		{
			"buffer":0,
			"byteLength":352,
			"byteOffset":1051744,
			"target":34962
		},
		{
			"buffer":0,
			"byteLength":352,
			"byteOffset":1052096,
			"target":34962
		},
		{
			"buffer":0,
			"byteLength":352,
			"byteOffset":1052448,
			"target":34962
		},
		{
			"buffer":0,
			"byteLength":352,
			"byteOffset":1052800,
			"target":34962
		},
		{
			"buffer":0,
			"byteLength":912,
			"byteOffset":1053152,
			"target":34962
		},
		{
			"buffer":0,
			"byteLength":912,
			"byteOffset":1054064,
			"target":34962
		},
		{
			"buffer":0,
			"byteLength":608,
			"byteOffset":1054976,
			"target":34962
		},
		{
			"buffer":0,
			"byteLength":608,
			"byteOffset":1055584,
			"target":34962
		},
		{
			"buffer":0,
			"byteLength":608,
			"byteOffset":1056192,
			"target":34962
		},
		{
			"buffer":0,
			"byteLength":608,
			"byteOffset":1056800,
			"target":34962
		},
		{
			"buffer":0,
			"byteLength":608,
			"byteOffset":1057408,
			"target":34962
		},
		{
			"buffer":0,
			"byteLength":228,
			"byteOffset":1058016,
			"target":34963
		},
		{
			"buffer":0,
			"byteLength":528,
			"byteOffset":1058244,
			"target":34962
		},
		{
			"buffer":0,
			"byteLength":528,
			"byteOffset":1058772,
			"target":34962
		},
		{
			"buffer":0,
			"byteLength":352,
			"byteOffset":1059300,
			"target":34962
		},
		{
			"buffer":0,
			"byteLength":352,
			"byteOffset":1059652,
			"target":34962
		},
		{
			"buffer":0,
			"byteLength":352,
			"byteOffset":1060004,
			"target":34962
		},
		{
			"buffer":0,
			"byteLength":352,
			"byteOffset":1060356,
			"target":34962
		},
		{
			"buffer":0,
			"byteLength":352,
			"byteOffset":1060708,
			"target":34962
		},
		{
			"buffer":0,
			"byteLength":912,
			"byteOffset":1061060,
			"target":34962
		},
		{
			"buffer":0,
			"byteLength":912,
			"byteOffset":1061972,
			"target":34962
		},
		{
			"buffer":0,
			"byteLength":608,
			"byteOffset":1062884,
			"target":34962
		},
		{
			"buffer":0,
			"byteLength":608,
			"byteOffset":1063492,
			"target":34962
		},
		{
			"buffer":0,
			"byteLength":608,
			"byteOffset":1064100,
			"target":34962
		},
		{
			"buffer":0,
			"byteLength":608,
			"byteOffset":1064708,
			"target":34962
		},
		{
			"buffer":0,
			"byteLength":608,
			"byteOffset":1065316,
			"target":34962
		},
		{
			"buffer":0,
			"byteLength":528,
			"byteOffset":1065924,
			"target":34962
		},
		{
			"buffer":0,
			"byteLength":528,
			"byteOffset":1066452,
			"target":34962
		},
		{
			"buffer":0,
			"byteLength":352,
			"byteOffset":1066980,
			"target":34962
		},
		{
			"buffer":0,
			"byteLength":352,
			"byteOffset":1067332,
			"target":34962
		},
		{
			"buffer":0,
			"byteLength":352,
			"byteOffset":1067684,
			"target":34962
		},
		{
			"buffer":0,
			"byteLength":352,
			"byteOffset":1068036,
			"target":34962
		},
		{
			"buffer":0,
			"byteLength":352,
			"byteOffset":1068388,
			"target":34962
		},
		{
			"buffer":0,
			"byteLength":912,
			"byteOffset":1068740,
			"target":34962
		},
		{
			"buffer":0,
			"byteLength":912,
			"byteOffset":1069652,
			"target":34962
		},
		{
			"buffer":0,
			"byteLength":608,
			"byteOffset":1070564,
			"target":34962
		},
		{
			"buffer":0,
			"byteLength":608,
			"byteOffset":1071172,
			"target":34962
		},
		{
			"buffer":0,
			"byteLength":608,
			"byteOffset":1071780,
			"target":34962
		},
		{
			"buffer":0,
			"byteLength":608,
			"byteOffset":1072388,
			"target":34962
		},
		{
			"buffer":0,
			"byteLength":608,
			"byteOffset":1072996,
			"target":34962
		},
		{
			"buffer":0,
			"byteLength":528,
			"byteOffset":1073604,
			"target":34962
		},
		{
			"buffer":0,
			"byteLength":528,
			"byteOffset":1074132,
			"target":34962
		},
		{
			"buffer":0,
			"byteLength":352,
			"byteOffset":1074660,
			"target":34962
		},
		{
			"buffer":0,
			"byteLength":352,
			"byteOffset":1075012,
			"target":34962
		},
		{
			"buffer":0,
			"byteLength":352,
			"byteOffset":1075364,
			"target":34962
		},
		{
			"buffer":0,
			"byteLength":352,
			"byteOffset":1075716,
			"target":34962
		},
		{
			"buffer":0,
			"byteLength":352,
			"byteOffset":1076068,
			"target":34962
		},
		{
			"buffer":0,
			"byteLength":912,
			"byteOffset":1076420,
			"target":34962
		},
		{
			"buffer":0,
			"byteLength":912,
			"byteOffset":1077332,
			"target":34962
		},
		{
			"buffer":0,
			"byteLength":608,
			"byteOffset":1078244,
			"target":34962
		},
		{
			"buffer":0,
			"byteLength":608,
			"byteOffset":1078852,
			"target":34962
		},
		{
			"buffer":0,
			"byteLength":608,
			"byteOffset":1079460,
			"target":34962
		},
		{
			"buffer":0,
			"byteLength":608,
			"byteOffset":1080068,
			"target":34962
		},
		{
			"buffer":0,
			"byteLength":608,
			"byteOffset":1080676,
			"target":34962
		},
		{
			"buffer":0,
			"byteLength":228,
			"byteOffset":1081284,
			"target":34963
		},
		{
			"buffer":0,
			"byteLength":48384,
			"byteOffset":1081512,
			"target":34962
		},
		{
			"buffer":0,
			"byteLength":48384,
			"byteOffset":1129896,
			"target":34962
		},
		{
			"buffer":0,
			"byteLength":32256,
			"byteOffset":1178280,
			"target":34962
		},
		{
			"buffer":0,
			"byteLength":32256,
			"byteOffset":1210536,
			"target":34962
		},
		{
			"buffer":0,
			"byteLength":32256,
			"byteOffset":1242792,
			"target":34962
		},
		{
			"buffer":0,
			"byteLength":32256,
			"byteOffset":1275048,
			"target":34962
		},
		{
			"buffer":0,
			"byteLength":32256,
			"byteOffset":1307304,
			"target":34962
		},
		{
			"buffer":0,
			"byteLength":8064,
			"byteOffset":1339560,
			"target":34963
		},
		{
			"buffer":0,
			"byteLength":936,
			"byteOffset":1347624,
			"target":34962
		},
		{
			"buffer":0,
			"byteLength":936,
			"byteOffset":1348560,
			"target":34962
		},
		{
			"buffer":0,
			"byteLength":624,
			"byteOffset":1349496,
			"target":34962
		},
		{
			"buffer":0,
			"byteLength":624,
			"byteOffset":1350120,
			"target":34962
		},
		{
			"buffer":0,
			"byteLength":624,
			"byteOffset":1350744,
			"target":34962
		},
		{
			"buffer":0,
			"byteLength":624,
			"byteOffset":1351368,
			"target":34962
		},
		{
			"buffer":0,
			"byteLength":624,
			"byteOffset":1351992,
			"target":34962
		},
		{
			"buffer":0,
			"byteLength":156,
			"byteOffset":1352616,
			"target":34963
		},
		{
			"buffer":0,
			"byteLength":792,
			"byteOffset":1352772,
			"target":34962
		},
		{
			"buffer":0,
			"byteLength":792,
			"byteOffset":1353564,
			"target":34962
		},
		{
			"buffer":0,
			"byteLength":528,
			"byteOffset":1354356,
			"target":34962
		},
		{
			"buffer":0,
			"byteLength":528,
			"byteOffset":1354884,
			"target":34962
		},
		{
			"buffer":0,
			"byteLength":528,
			"byteOffset":1355412,
			"target":34962
		},
		{
			"buffer":0,
			"byteLength":528,
			"byteOffset":1355940,
			"target":34962
		},
		{
			"buffer":0,
			"byteLength":528,
			"byteOffset":1356468,
			"target":34962
		},
		{
			"buffer":0,
			"byteLength":132,
			"byteOffset":1356996,
			"target":34963
		},
		{
			"buffer":0,
			"byteLength":55008,
			"byteOffset":1357128,
			"target":34962
		},
		{
			"buffer":0,
			"byteLength":55008,
			"byteOffset":1412136,
			"target":34962
		},
		{
			"buffer":0,
			"byteLength":36672,
			"byteOffset":1467144,
			"target":34962
		},
		{
			"buffer":0,
			"byteLength":36672,
			"byteOffset":1503816,
			"target":34962
		},
		{
			"buffer":0,
			"byteLength":36672,
			"byteOffset":1540488,
			"target":34962
		},
		{
			"buffer":0,
			"byteLength":36672,
			"byteOffset":1577160,
			"target":34962
		},
		{
			"buffer":0,
			"byteLength":36672,
			"byteOffset":1613832,
			"target":34962
		},
		{
			"buffer":0,
			"byteLength":36672,
			"byteOffset":1650504,
			"target":34962
		},
		{
			"buffer":0,
			"byteLength":9168,
			"byteOffset":1687176,
			"target":34963
		},
		{
			"buffer":0,
			"byteLength":936,
			"byteOffset":1696344,
			"target":34962
		},
		{
			"buffer":0,
			"byteLength":936,
			"byteOffset":1697280,
			"target":34962
		},
		{
			"buffer":0,
			"byteLength":624,
			"byteOffset":1698216,
			"target":34962
		},
		{
			"buffer":0,
			"byteLength":624,
			"byteOffset":1698840,
			"target":34962
		},
		{
			"buffer":0,
			"byteLength":624,
			"byteOffset":1699464,
			"target":34962
		},
		{
			"buffer":0,
			"byteLength":624,
			"byteOffset":1700088,
			"target":34962
		},
		{
			"buffer":0,
			"byteLength":624,
			"byteOffset":1700712,
			"target":34962
		},
		{
			"buffer":0,
			"byteLength":624,
			"byteOffset":1701336,
			"target":34962
		},
		{
			"buffer":0,
			"byteLength":156,
			"byteOffset":1701960,
			"target":34963
		},
		{
			"buffer":0,
			"byteLength":7272,
			"byteOffset":1702116,
			"target":34962
		},
		{
			"buffer":0,
			"byteLength":7272,
			"byteOffset":1709388,
			"target":34962
		},
		{
			"buffer":0,
			"byteLength":4848,
			"byteOffset":1716660,
			"target":34962
		},
		{
			"buffer":0,
			"byteLength":4848,
			"byteOffset":1721508,
			"target":34962
		},
		{
			"buffer":0,
			"byteLength":4848,
			"byteOffset":1726356,
			"target":34962
		},
		{
			"buffer":0,
			"byteLength":4848,
			"byteOffset":1731204,
			"target":34962
		},
		{
			"buffer":0,
			"byteLength":4848,
			"byteOffset":1736052,
			"target":34962
		},
		{
			"buffer":0,
			"byteLength":4848,
			"byteOffset":1740900,
			"target":34962
		},
		{
			"buffer":0,
			"byteLength":1212,
			"byteOffset":1745748,
			"target":34963
		},
		{
			"buffer":0,
			"byteLength":3312,
			"byteOffset":1746960,
			"target":34962
		},
		{
			"buffer":0,
			"byteLength":3312,
			"byteOffset":1750272,
			"target":34962
		},
		{
			"buffer":0,
			"byteLength":2208,
			"byteOffset":1753584,
			"target":34962
		},
		{
			"buffer":0,
			"byteLength":2208,
			"byteOffset":1755792,
			"target":34962
		},
		{
			"buffer":0,
			"byteLength":2208,
			"byteOffset":1758000,
			"target":34962
		},
		{
			"buffer":0,
			"byteLength":2208,
			"byteOffset":1760208,
			"target":34962
		},
		{
			"buffer":0,
			"byteLength":2208,
			"byteOffset":1762416,
			"target":34962
		},
		{
			"buffer":0,
			"byteLength":2208,
			"byteOffset":1764624,
			"target":34962
		},
		{
			"buffer":0,
			"byteLength":552,
			"byteOffset":1766832,
			"target":34963
		},
		{
			"buffer":0,
			"byteLength":4608,
			"byteOffset":1767384,
			"target":34962
		},
		{
			"buffer":0,
			"byteLength":4608,
			"byteOffset":1771992,
			"target":34962
		},
		{
			"buffer":0,
			"byteLength":3072,
			"byteOffset":1776600,
			"target":34962
		},
		{
			"buffer":0,
			"byteLength":3072,
			"byteOffset":1779672,
			"target":34962
		},
		{
			"buffer":0,
			"byteLength":3072,
			"byteOffset":1782744,
			"target":34962
		},
		{
			"buffer":0,
			"byteLength":3072,
			"byteOffset":1785816,
			"target":34962
		},
		{
			"buffer":0,
			"byteLength":3072,
			"byteOffset":1788888,
			"target":34962
		},
		{
			"buffer":0,
			"byteLength":3072,
			"byteOffset":1791960,
			"target":34962
		},
		{
			"buffer":0,
			"byteLength":1128,
			"byteOffset":1795032,
			"target":34963
		},
		{
			"buffer":0,
			"byteLength":3936,
			"byteOffset":1796160,
			"target":34962
		},
		{
			"buffer":0,
			"byteLength":3936,
			"byteOffset":1800096,
			"target":34962
		},
		{
			"buffer":0,
			"byteLength":2624,
			"byteOffset":1804032,
			"target":34962
		},
		{
			"buffer":0,
			"byteLength":2624,
			"byteOffset":1806656,
			"target":34962
		},
		{
			"buffer":0,
			"byteLength":2624,
			"byteOffset":1809280,
			"target":34962
		},
		{
			"buffer":0,
			"byteLength":2624,
			"byteOffset":1811904,
			"target":34962
		},
		{
			"buffer":0,
			"byteLength":2624,
			"byteOffset":1814528,
			"target":34962
		},
		{
			"buffer":0,
			"byteLength":2624,
			"byteOffset":1817152,
			"target":34962
		},
		{
			"buffer":0,
			"byteLength":1008,
			"byteOffset":1819776,
			"target":34963
		},
		{
			"buffer":0,
			"byteLength":2016,
			"byteOffset":1820784,
			"target":34962
		},
		{
			"buffer":0,
			"byteLength":2016,
			"byteOffset":1822800,
			"target":34962
		},
		{
			"buffer":0,
			"byteLength":1344,
			"byteOffset":1824816,
			"target":34962
		},
		{
			"buffer":0,
			"byteLength":1344,
			"byteOffset":1826160,
			"target":34962
		},
		{
			"buffer":0,
			"byteLength":1344,
			"byteOffset":1827504,
			"target":34962
		},
		{
			"buffer":0,
			"byteLength":1344,
			"byteOffset":1828848,
			"target":34962
		},
		{
			"buffer":0,
			"byteLength":1344,
			"byteOffset":1830192,
			"target":34962
		},
		{
			"buffer":0,
			"byteLength":1344,
			"byteOffset":1831536,
			"target":34962
		},
		{
			"buffer":0,
			"byteLength":504,
			"byteOffset":1832880,
			"target":34963
		},
		{
			"buffer":0,
			"byteLength":936,
			"byteOffset":1833384,
			"target":34962
		},
		{
			"buffer":0,
			"byteLength":936,
			"byteOffset":1834320,
			"target":34962
		},
		{
			"buffer":0,
			"byteLength":624,
			"byteOffset":1835256,
			"target":34962
		},
		{
			"buffer":0,
			"byteLength":624,
			"byteOffset":1835880,
			"target":34962
		},
		{
			"buffer":0,
			"byteLength":624,
			"byteOffset":1836504,
			"target":34962
		},
		{
			"buffer":0,
			"byteLength":624,
			"byteOffset":1837128,
			"target":34962
		},
		{
			"buffer":0,
			"byteLength":624,
			"byteOffset":1837752,
			"target":34962
		},
		{
			"buffer":0,
			"byteLength":264,
			"byteOffset":1838376,
			"target":34963
		},
		{
			"buffer":0,
			"byteLength":48,
			"byteOffset":1838640,
			"target":34962
		},
		{
			"buffer":0,
			"byteLength":48,
			"byteOffset":1838688,
			"target":34962
		},
		{
			"buffer":0,
			"byteLength":32,
			"byteOffset":1838736,
			"target":34962
		},
		{
			"buffer":0,
			"byteLength":32,
			"byteOffset":1838768,
			"target":34962
		},
		{
			"buffer":0,
			"byteLength":32,
			"byteOffset":1838800,
			"target":34962
		},
		{
			"buffer":0,
			"byteLength":32,
			"byteOffset":1838832,
			"target":34962
		},
		{
			"buffer":0,
			"byteLength":32,
			"byteOffset":1838864,
			"target":34962
		},
		{
			"buffer":0,
			"byteLength":12,
			"byteOffset":1838896,
			"target":34963
		}
	],
	"buffers":[
		{
			"byteLength":1838908,
			"uri":"OfficeTest.bin"
		}
	]
}
